<?xml version="1.0" standalone="no"?>
<!DOCTYPE svg PUBLIC "-//W3C//DTD SVG 1.1//EN" "http://www.w3.org/Graphics/SVG/1.1/DTD/svg11.dtd" >
<svg>
<metadata>
Created by FontForge 20120731 at Thu Sep  5 04:48:15 2019
 By ffonts
(c) 2015 Entertainment One UK Limited. All rights reserved.
</metadata>
<defs>
<font id="PJMasks-Regular" horiz-adv-x="235" >
  <font-face 
    font-family="PJ Masks Regular"
    font-weight="400"
    font-stretch="normal"
    units-per-em="1000"
    panose-1="2 0 0 0 0 0 0 0 0 0"
    ascent="750"
    descent="-250"
    x-height="472"
    cap-height="700"
    bbox="-58 -262 1214 953"
    underline-thickness="50"
    underline-position="-150"
    unicode-range="U+000D-1D76E"
  />
<missing-glyph horiz-adv-x="250" 
 />
    <glyph glyph-name="fi" unicode="fi" horiz-adv-x="520" 
d="M112 0h-7q-20 0 -32.5 14t-12.5 31v466q0 81 41.5 135t134.5 54h62q17 0 30.5 -13t13.5 -32t-13 -32t-31 -13h-54q-87 0 -87 -101v-37h108q19 0 32 -13t13 -32t-13 -32t-32 -13h-108v-337q0 -19 -13.5 -32t-31.5 -13zM416 0h-11q-19 0 -31.5 14t-12.5 31v382
q0 17 12.5 31t31.5 14h11q18 0 31 -13t13 -32v-382q0 -19 -13 -32t-31 -13zM416 579h-11q-19 0 -31.5 14t-12.5 31v15q0 17 12.5 31t31.5 14h11q18 0 31 -13t13 -32v-15q0 -19 -13 -32t-31 -13z" />
    <glyph glyph-name="fl" unicode="fl" horiz-adv-x="594" 
d="M112 0h-7q-20 0 -32.5 14t-12.5 31v466q0 81 41.5 135t134.5 54h61q18 0 31.5 -12.5t13.5 -32.5q0 -19 -13.5 -32t-30.5 -13h-54q-87 0 -87 -101v-37h108q18 0 31.5 -13t13.5 -32t-13.5 -32t-31.5 -13h-108v-337q0 -19 -13.5 -32t-31.5 -13zM546 0h-35q-73 0 -109 41.5
t-36 104.5v509q0 19 13 32t31 13h10q19 0 32 -14t13 -31v-491q0 -42 17 -58.5t54 -16.5h10q20 0 32.5 -13.5t12.5 -30.5q0 -19 -13 -32t-32 -13z" />
    <glyph glyph-name=".notdef" horiz-adv-x="250" 
 />
    <glyph glyph-name=".null" horiz-adv-x="0" 
 />
    <glyph glyph-name="nonmarkingreturn" horiz-adv-x="333" 
 />
    <glyph glyph-name="NUL" horiz-adv-x="230" 
 />
    <glyph glyph-name="CR" unicode="&#xd;" horiz-adv-x="230" 
 />
    <glyph glyph-name="space" unicode=" " horiz-adv-x="230" 
 />
    <glyph glyph-name="exclam" unicode="!" horiz-adv-x="213" 
d="M59 232l-19 423q0 19 13 32t31 13h45q18 0 31 -13t13 -32l-19 -423q0 -20 -12 -32.5t-34 -12.5t-35.5 13t-13.5 32zM114 0h-11q-18 0 -31 13t-13 31v16q0 18 13.5 31.5t30.5 13.5h11q19 0 32 -14t13 -31v-16q0 -17 -12.5 -30.5t-32.5 -13.5z" />
    <glyph glyph-name="quotedbl" unicode="&#x22;" horiz-adv-x="324" 
d="M40 553v102q0 17 13 31t32 14h10q18 0 31.5 -13t13.5 -32v-16q0 -13 -3.5 -23t-6.5 -14l-4 -3q-42 -48 -49 -55q-8 -8 -16 -8q-21 0 -21 17zM194 553v102q0 17 13 31t32 14h10q18 0 31.5 -13t13.5 -32v-16q0 -13 -3.5 -23t-6.5 -14l-4 -3q-42 -48 -49 -55q-8 -8 -16 -8
q-21 0 -21 17z" />
    <glyph glyph-name="numbersign" unicode="#" horiz-adv-x="808" 
d="M186 -44h-16q-22 0 -31 11t-7 22l1 11l31 148l-106 1h-5t-11 2t-12 7t-8 14t0 23q3 9 3 15q8 37 42 39h118l41 189h-107h-5t-11 2t-12 7t-8 14t0 23l4 16q8 36 41 39h119q35 164 36 168q8 32 46 32h16q22 0 31.5 -11.5t7.5 -22.5l-1 -11q-147 -693 -150 -706
q-10 -32 -47 -32zM741 438h-119q-22 -100 -32 -150q-4 -22 -29 -22h-52q-12 0 -18 8t-2 22l30 142h-141q-15 0 -21.5 6.5t-5.5 13.5l1 6l10 49q4 26 26 26h152q35 164 36 168q8 32 46 32h16q22 0 31.5 -11.5t8.5 -22.5l-2 -11l-33 -155h107h5t11 -2t12 -7t8 -14t0 -24
q-3 -9 -3 -15q-8 -37 -42 -39zM680 149h-120q-33 -157 -34 -161q-10 -32 -47 -32h-16q-22 0 -31 11t-8 22l2 11l31 148h-141q-15 0 -21.5 7t-5.5 13l1 7l11 48q3 26 26 26h362h5t11 -2t12 -7t8 -14t0 -23l-4 -16q-8 -36 -41 -38z" />
    <glyph glyph-name="dollar" unicode="$" horiz-adv-x="493" 
d="M205 -71v73q-62 10 -109.5 50t-63.5 100q-5 19 7.5 36t34.5 17h15q4 0 9.5 -0.5t17.5 -10t17 -27.5q10 -35 41.5 -56.5t70.5 -21.5q46 0 80.5 30t34.5 75q0 40 -33.5 68.5t-80.5 48.5t-94.5 42.5t-81 62.5t-33.5 97q0 74 47 124t121 60v71q0 14 9 24t25 10t25.5 -10
t9.5 -24v-70q67 -9 113 -51.5t54 -106.5q3 -16 -9 -32t-33 -16h-15q-17 0 -28 10t-13 20l-2 9q-4 31 -27.5 54t-71.5 23h-2q-52 0 -76 -26.5t-24 -58.5t33.5 -57t81 -45t95 -44t81 -68t33.5 -104q0 -82 -55.5 -138.5t-134.5 -65.5v-72q0 -14 -9.5 -24t-25.5 -10t-25 10
t-9 24z" />
    <glyph glyph-name="percent" unicode="%" horiz-adv-x="868" 
d="M666 -15q-71 0 -121.5 50.5t-50.5 121.5t50.5 121.5t121.5 50.5t121.5 -50.5t50.5 -121.5t-50.5 -121.5t-121.5 -50.5zM202 368q-71 0 -121.5 50.5t-50.5 121.5t50.5 121.5t121.5 50.5t121.5 -50.5t50.5 -121.5t-50.5 -121.5t-121.5 -50.5zM232 0h-28q-29 0 -37.5 12.5
t5.5 31.5l412 623q21 33 56 33h24q28 0 36 -13t-5 -32l-412 -623q-18 -32 -51 -32zM202 448q38 0 65 27t27 65t-27 65t-65 27t-65 -27t-27 -65t27 -65t65 -27zM666 65q38 0 64.5 27t26.5 65t-27 65t-64 27q-38 0 -65 -27t-27 -65t27 -65t65 -27z" />
    <glyph glyph-name="ampersand" unicode="&#x26;" horiz-adv-x="705" 
d="M661 0h-43q-16 0 -33 8t-25 16l-9 8l-289 287q-55 -32 -80.5 -62t-25.5 -71q0 -47 32 -75.5t86 -28.5q65 0 118 46q22 16 37 1l9 -9l13.5 -13.5l9.5 -9.5q18 -18 -1 -36q-47 -42 -90.5 -58.5t-98.5 -16.5q-100 0 -163 57.5t-63 148.5q0 116 149 196q-98 85 -98 160
q0 72 52 119.5t141 47.5q93 0 142 -52.5t49 -112.5q0 -62 -27.5 -107t-95.5 -83l130 -129q45 48 71 102q17 32 48 32h51q34 0 17 -33q-55 -107 -116 -166l121 -121q15 -15 9 -30t-27 -15zM277 427q55 29 79 55.5t24 61.5q0 34 -24.5 58t-65.5 24q-44 0 -67 -25.5t-23 -55.5
q0 -44 77 -118z" />
    <glyph glyph-name="quotesingle" unicode="'" horiz-adv-x="170" 
d="M40 553v102q0 17 13 31t32 14h11q18 0 31 -13t13 -32v-16q0 -13 -3.5 -23t-6.5 -14l-4 -3q-42 -48 -49 -55q-8 -8 -16 -8q-21 0 -21 17z" />
    <glyph glyph-name="parenleft" unicode="(" horiz-adv-x="282" 
d="M239 -153h-23q-28 0 -46 33q-110 225 -110 460q0 236 111 460q5 11 18.5 21.5t28.5 10.5h20q23 0 31 -13t-2 -31q-58 -111 -84.5 -214.5t-26.5 -233.5t26.5 -233.5t84.5 -214.5q9 -16 0.5 -30.5t-28.5 -14.5z" />
    <glyph glyph-name="parenright" unicode=")" horiz-adv-x="282" 
d="M67 -153h-24q-20 0 -28 14.5t1 30.5q58 110 84 213.5t26 234.5t-26 234.5t-84 213.5q-10 18 -2.5 31t30.5 13h20q16 0 29 -10.5t19 -21.5q110 -225 110 -460t-110 -460q-15 -33 -45 -33z" />
    <glyph glyph-name="asterisk" unicode="*" horiz-adv-x="392" 
d="M316 410l-89 51v-103q0 -12 -8.5 -20t-19.5 -8h-7q-12 0 -20 8.5t-8 19.5v103l-89 -51q-11 -6 -22 -3t-16 13l-4 6q-6 12 -2 22.5t13 16.5l88 50q-87 49 -88 49q-9 6 -13 16.5t2 22.5q3 6 4 6q5 10 16 13t22 -3l89 -50v102q0 11 8 20t20 9h7q11 0 19.5 -8.5t8.5 -20.5
v-102l89 50q9 6 20.5 3t18.5 -13l3 -6q6 -10 3 -21t-14 -17l-88 -50l88 -50q11 -6 14 -17t-3 -22q-2 -3 -3 -5q-6 -11 -18 -14t-21 3z" />
    <glyph glyph-name="plus" unicode="+" horiz-adv-x="486" 
d="M411 227h-123v-123q0 -19 -13 -32t-32 -13q-18 0 -31.5 13.5t-13.5 31.5v123h-123q-19 0 -32 13.5t-13 31.5q0 19 13 32t32 13h123v123q0 19 13.5 32t31.5 13q19 0 32 -13t13 -32v-123h123q19 0 32 -13t13 -32q0 -18 -13 -31.5t-32 -13.5z" />
    <glyph glyph-name="comma" unicode="," horiz-adv-x="169" 
d="M40 -43v102q0 17 12.5 31t31.5 14h11q18 0 31 -13t13 -32v-16q0 -13 -3.5 -23t-6.5 -14l-3 -3q-42 -48 -49 -55q-8 -8 -17 -8q-20 0 -20 17z" />
    <glyph glyph-name="hyphen" unicode="-" horiz-adv-x="403" 
d="M328 227h-253q-19 0 -32 13.5t-13 31.5q0 19 13 32t32 13h253q19 0 32 -13t13 -32q0 -18 -13 -31.5t-32 -13.5z" />
    <glyph glyph-name="period" unicode="." horiz-adv-x="160" 
d="M85 0h-11q-18 0 -31 13t-13 31v16q0 18 13 31.5t31 13.5h11q19 0 32 -14t13 -31v-16q0 -17 -13 -30.5t-32 -13.5z" />
    <glyph glyph-name="slash" unicode="/" horiz-adv-x="436" 
d="M30 -104h-28q-23 0 -32 13t0 32l385 787q18 32 51 32h28q23 0 32 -13t0 -32l-385 -786q-18 -33 -51 -33z" />
    <glyph glyph-name="zero" unicode="0" horiz-adv-x="534" 
d="M474 479v-263q0 -99 -54.5 -165.5t-152.5 -66.5t-152.5 66.5t-54.5 165.5v263q0 99 54.5 165.5t152.5 66.5t152.5 -66.5t54.5 -165.5zM375 216v263q0 64 -29 101t-79 37q-49 0 -78 -37t-29 -101v-263q0 -63 29 -100t78 -37q50 0 79 36.5t29 100.5z" />
    <glyph glyph-name="one" unicode="1" horiz-adv-x="301" 
d="M191 0h-10q-19 0 -32 13.5t-13 30.5v491q0 42 -17 58.5t-54 16.5h-10q-20 0 -32.5 13.5t-12.5 31.5t13 31.5t32 13.5h35q73 0 109.5 -41.5t36.5 -104.5v-510q0 -18 -13.5 -31t-31.5 -13z" />
    <glyph glyph-name="two" unicode="2" horiz-adv-x="544" 
d="M460 0h-381q-28 0 -40 26.5t8 49.5l204 216q60 60 88 104.5t28 90.5q0 59 -33.5 95t-88.5 36q-50 0 -108 -38q-4 -3 -10.5 -6t-23 -1t-28.5 17q-11 19 -8.5 34t12.5 25q27 27 72.5 44.5t92.5 17.5q97 0 162 -62.5t65 -156.5q0 -33 -9 -66t-21.5 -56.5t-25.5 -42
t-22 -27.5l-9 -10l-192 -201h268q17 0 30.5 -12.5t13.5 -32.5q0 -18 -13 -31t-31 -13z" />
    <glyph glyph-name="three" unicode="3" horiz-adv-x="547" 
d="M281 355h-18q-20 0 -32.5 14t-12.5 31v39l99 171h-189q-20 0 -32.5 14t-12.5 31q0 18 13 31.5t32 13.5h276q26 0 38.5 -23t0.5 -44l-109 -185q68 -18 120.5 -78t52.5 -149q0 -94 -66.5 -165.5t-174.5 -71.5q-147 0 -230 89q-3 4 -6.5 10t-3.5 23t14 30q30 29 63 5
q32 -24 45.5 -32.5t42 -16.5t67.5 -8q72 0 111 39.5t39 97.5q0 57 -38 95.5t-89 38.5z" />
    <glyph glyph-name="four" unicode="4" horiz-adv-x="556" 
d="M451 0h-10q-19 0 -32 13.5t-13 30.5v141h-321q-26 0 -38.5 23t1.5 46l262 413q20 33 54 33h18q29 0 38.5 -11t4.5 -23l-5 -11l-241 -381h227v108q0 17 13 31t32 14h10q18 0 31.5 -13t13.5 -32v-338q0 -18 -13.5 -31t-31.5 -13z" />
    <glyph glyph-name="five" unicode="5" horiz-adv-x="556" 
d="M269 369h-121q-20 0 -32.5 14t-12.5 31v241q0 18 13.5 31.5t32.5 13.5h272q19 0 32 -13.5t13 -31.5q0 -17 -12.5 -31t-32.5 -14h-217v-143h75q109 0 173 -69t64 -177q0 -94 -66.5 -165.5t-174.5 -71.5q-147 0 -230 89q-3 4 -6.5 10t-3.5 23t13 30q31 28 64 5
q32 -24 45.5 -32.5t42 -16.5t66.5 -8q73 0 112 39.5t39 97.5q0 60 -42 104t-106 44z" />
    <glyph glyph-name="six" unicode="6" horiz-adv-x="549" 
d="M251 406l15 28q10 16 20 20.5t37 0.5q72 -11 131.5 -73t59.5 -157q0 -94 -67.5 -165.5t-174.5 -71.5q-104 0 -168 64.5t-64 172.5q0 49 39 124l180 318q19 33 54 33h15q28 0 38.5 -12.5t-0.5 -32.5l-200 -357q-25 -47 -25 -82q0 -52 38.5 -89.5t97.5 -37.5
q58 0 97.5 40.5t39.5 95.5q0 57 -40.5 97t-96.5 40q-2 0 -5 0.5t-10.5 2.5t-10.5 6.5t-5.5 13t5.5 21.5z" />
    <glyph glyph-name="seven" unicode="7" horiz-adv-x="521" 
d="M143 0h-19q-23 0 -32.5 12.5t0.5 31.5l276 566h-291q-19 0 -31.5 14t-12.5 31q0 18 13 31.5t31 13.5h365q35 0 47.5 -23.5t-3.5 -49.5l-291 -596q-18 -31 -52 -31z" />
    <glyph glyph-name="eight" unicode="8" horiz-adv-x="552" 
d="M419 405q93 -67 93 -186q0 -98 -67 -165t-169 -67q-101 0 -168.5 67t-67.5 165q0 118 94 186q-46 52 -46 122q0 78 53.5 131t134.5 53t134.5 -53t53.5 -131q0 -69 -45 -122zM276 74q57 0 94.5 38.5t37.5 98.5q0 61 -37.5 99t-94.5 38q-56 0 -93.5 -38t-37.5 -99
q0 -60 37.5 -98.5t93.5 -38.5zM276 441q38 0 62.5 25.5t24.5 65.5t-24.5 65.5t-62.5 25.5q-37 0 -62 -25.5t-25 -65.5t25 -65.5t62 -25.5z" />
    <glyph glyph-name="nine" unicode="9" horiz-adv-x="549" 
d="M236 0h-15q-28 0 -39 12t0 32l200 357q25 47 25 82q0 52 -38 90t-97 38q-58 0 -97.5 -41t-39.5 -96q0 -57 40.5 -97t96.5 -40h5t10.5 -2t10.5 -6.5t5.5 -13t-5.5 -21.5l-15 -29q-10 -16 -20.5 -20.5t-37.5 -0.5q-71 12 -130.5 73.5t-59.5 156.5t67.5 166t174.5 71
q104 0 168 -64.5t64 -172.5q0 -49 -39 -124l-180 -318q-20 -32 -54 -32z" />
    <glyph glyph-name="colon" unicode=":" horiz-adv-x="190" 
d="M100 0h-11q-18 0 -31 12.5t-13 31.5v16q0 19 13 32t31 13h11q19 0 32 -14t13 -31v-16q0 -17 -13 -30.5t-32 -13.5zM100 266h-11q-18 0 -31 13t-13 32v16q0 19 13 31.5t31 12.5h11q19 0 32 -13.5t13 -30.5v-16q0 -17 -13 -31t-32 -14z" />
    <glyph glyph-name="semicolon" unicode=";" horiz-adv-x="189" 
d="M49 -43v102q0 17 13 31t32 14h10q18 0 31 -13t13 -32v-16q0 -13 -3 -23t-7 -14l-3 -3q-42 -48 -49 -55q-8 -8 -17 -8q-20 0 -20 17zM104 266h-11q-18 0 -31 13t-13 32v16q0 19 13 31.5t31 12.5h11q19 0 31.5 -13.5t12.5 -30.5v-16q0 -17 -12.5 -31t-31.5 -14z" />
    <glyph glyph-name="less" unicode="&#x3c;" horiz-adv-x="537" 
d="M502 86v-20q0 -24 -15 -32t-30 1l-382 172q-5 2 -12.5 6.5t-20 21.5t-12.5 37t11 36.5t23 22.5l11 6q363 163 382 172q14 10 29.5 3t15.5 -35v-16q0 -16 -8 -28t-16 -16l-8 -4l-320 -141l320 -141q4 -1 9 -4t14 -14.5t9 -26.5z" />
    <glyph glyph-name="equal" unicode="=" horiz-adv-x="581" 
d="M502 324h-422q-19 0 -32 13t-13 31q0 19 13 32t32 13h422q18 0 31 -13t13 -32q0 -18 -13 -31t-31 -13zM502 132h-422q-19 0 -32 13t-13 31q0 19 13 32t32 13h422q18 0 31 -13t13 -32q0 -18 -13 -31t-31 -13z" />
    <glyph glyph-name="greater" unicode="&#x3e;" horiz-adv-x="537" 
d="M387 272l-320 141q-4 1 -9 4t-14 15.5t-9 28.5v16q0 28 15.5 35t29.5 -3l382 -172q5 -2 12.5 -6.5t20 -21.5t12.5 -37t-11.5 -36.5t-22.5 -22.5l-11 -6q-363 -164 -382 -172q-15 -9 -30 -1t-15 32v20q0 15 8 26t16 15l8 4z" />
    <glyph glyph-name="question" unicode="?" horiz-adv-x="559" 
d="M275 188h-131q-20 0 -32.5 14.5t-12.5 30.5v8q0 17 12 30.5t33 13.5h121q65 0 112 49.5t47 122.5q0 60 -48.5 108t-113.5 48q-38 0 -66.5 -8t-42.5 -17t-45 -32q-33 -24 -64 5q-14 13 -14.5 29t5.5 25l6 9q83 89 230 89q102 0 177.5 -78.5t75.5 -177.5q0 -53 -17 -99
t-44 -76.5t-60.5 -52t-66 -31.5t-61.5 -10zM153 0h-10q-18 0 -31.5 13t-13.5 31v16q0 19 13.5 32t31.5 13h10q19 0 32 -14t13 -31v-16q0 -17 -13 -30.5t-32 -13.5z" />
    <glyph glyph-name="at" unicode="@" horiz-adv-x="1009" 
d="M615 138h-155q-67 0 -112 40.5t-45 100.5q0 82 80 128q59 33 200 33q-1 1 0.5 9.5t-3 22.5t-11.5 27t-25.5 22.5t-44.5 9.5q-31 0 -70 -13q-17 -6 -34.5 1.5t-23.5 27.5q-5 16 3 32.5t25 22.5q54 18 109 18q79 0 125.5 -47t46.5 -134v-195q1 -35 22.5 -56.5t51.5 -21.5
q59 0 87 51t28 132q0 151 -106.5 258t-258.5 107q-151 0 -257.5 -107t-106.5 -258t106.5 -258t257.5 -107q68 0 117 20q19 7 35.5 -1t24.5 -26q5 -16 -2 -33.5t-28 -24.5q-70 -24 -147 -24q-188 0 -321 133t-133 321t133 321t321 133t321.5 -133t133.5 -321
q0 -130 -50.5 -201t-150.5 -71q-96 0 -143 61zM583 221v134q-105 0 -148 -24q-34 -20 -34 -56q0 -54 76 -54h106z" />
    <glyph glyph-name="A" unicode="A" horiz-adv-x="629" 
d="M577 0h-13q-17 0 -29.5 8t-16.5 16l-3 8l-201 553l-109 -304h175q12 0 21 -6t12 -12l3 -6l15 -40q1 -3 1.5 -7.5t-5.5 -11.5t-22 -7h-233l-57 -159q-1 -4 -4 -9t-16 -14t-30 -9h-13q-25 0 -34.5 11t-6.5 23l3 11l242 622q1 1 2 3.5t5.5 8t10.5 10t16.5 8t23.5 3.5
q20 0 35 -8t19 -16l5 -9l242 -622q1 -2 1.5 -5t1 -10.5t-2.5 -13.5t-12.5 -11t-25.5 -5z" />
    <glyph glyph-name="B" unicode="B" horiz-adv-x="583" 
d="M316 0h-205q-20 0 -33 13.5t-13 31.5v610q0 18 13 31.5t35 13.5h150q106 0 158.5 -52.5t52.5 -123.5q0 -46 -21 -88t-61 -62q74 -12 113.5 -59t39.5 -108q0 -55 -20.5 -96.5t-54.5 -65t-73 -34.5t-81 -11zM164 89h134q141 0 141 105q0 111 -156 111h-76q-3 0 -7.5 0.5
t-11.5 7t-7 18.5v56q0 12 6.5 18.5t12.5 6.5l7 1h35q131 0 131 104q0 37 -30.5 65t-85.5 28h-93v-521z" />
    <glyph glyph-name="C" unicode="C" horiz-adv-x="705" 
d="M661 138q16 -22 12.5 -41.5t-20.5 -32.5q-101 -79 -236 -79q-156 0 -264 103t-108 262q0 158 108 261t264 103q134 0 236 -79q17 -12 21 -32t-12 -41q-19 -18 -38 -17.5t-35 13.5q-73 63 -172 63q-111 0 -188 -78t-77 -193t77 -193t188 -78q99 0 172 62q14 13 32.5 14
t39.5 -17z" />
    <glyph glyph-name="D" unicode="D" horiz-adv-x="710" 
d="M292 0h-180q-22 0 -34.5 14t-12.5 31v610q0 16 12 30.5t35 14.5h175q156 0 267 -98.5t111 -251.5q0 -152 -108 -251t-265 -99zM165 89h117q131 0 204 74.5t73 186.5t-79 186t-191 74h-124v-521z" />
    <glyph glyph-name="E" unicode="E" horiz-adv-x="517" 
d="M442 0h-333q-19 0 -31.5 13.5t-12.5 30.5v611q0 19 13 32t31 13h333q17 0 31 -13t14 -32t-14 -32t-31 -13h-277v-214h186q19 0 32 -13t13 -31q0 -19 -13 -32t-32 -13h-186v-218h277q17 0 31 -12.5t14 -31.5t-14 -32t-31 -13z" />
    <glyph glyph-name="F" unicode="F" horiz-adv-x="502" 
d="M121 0h-11q-20 0 -32.5 13.5t-12.5 30.5v611q0 19 13.5 32t31.5 13h333q18 0 31 -13.5t13 -31.5t-13 -31.5t-31 -13.5h-278v-214h187q19 0 31.5 -13.5t12.5 -29.5v-3q0 -17 -13.5 -30t-30.5 -13h-187v-262q0 -19 -13 -32t-31 -13z" />
    <glyph glyph-name="G" unicode="G" horiz-adv-x="756" 
d="M596 147v160h-123q-19 0 -32 13.5t-13 31.5t13 31t32 13h178q18 0 31.5 -13t13.5 -31v-249q-110 -118 -279 -118q-156 0 -264 103t-108 262q0 158 108 261t264 103q135 0 236 -79q20 -16 21 -38.5t-12 -34.5q-34 -36 -73 -4q-73 63 -172 63q-112 0 -189 -78t-77 -193
t77 -193t189 -78q105 0 179 68z" />
    <glyph glyph-name="H" unicode="H" horiz-adv-x="681" 
d="M572 0h-10q-20 0 -32.5 13.5t-12.5 30.5v263h-352v-262q0 -19 -13 -32t-31 -13h-11q-20 0 -32.5 13.5t-12.5 30.5v611q0 17 13 31t32 14h11q17 0 30.5 -13t13.5 -32v-259h352v259q0 17 13 31t32 14h10q18 0 31 -13t13 -32v-610q0 -19 -13 -32t-31 -13z" />
    <glyph glyph-name="I" unicode="I" horiz-adv-x="230" 
d="M121 0h-11q-20 0 -32.5 13.5t-12.5 30.5v611q0 17 13 31t32 14h11q17 0 30.5 -13t13.5 -32v-610q0 -19 -13 -32t-31 -13z" />
    <glyph glyph-name="J" unicode="J" horiz-adv-x="467" 
d="M221 -15h-5q-83 2 -134.5 54.5t-51.5 138.5q0 16 13.5 29t31.5 13h11q19 0 31.5 -13.5t12.5 -28.5q0 -49 23.5 -73.5t64.5 -24.5h2q87 0 87 98v432h-160q-17 0 -31 13t-14 32q0 18 13 31.5t32 13.5h215q18 0 31.5 -13.5t13.5 -31.5v-477q0 -86 -51.5 -138.5t-134.5 -54.5
z" />
    <glyph glyph-name="K" unicode="K" horiz-adv-x="517" 
d="M464 0h-28q-15 0 -28.5 8t-19.5 16l-6 8l-186 279q-4 5 -8.5 14.5t-5.5 35.5t14 48q2 3 32.5 49t74 112.5t63.5 96.5q10 15 24 23t23 9l9 1h21q25 0 35.5 -14t-0.5 -31l-194 -295q193 -291 209 -315q13 -18 5 -31.5t-34 -13.5zM121 0h-11q-20 0 -32.5 13.5t-12.5 30.5
v611q0 17 13 31t32 14h11q17 0 30.5 -13t13.5 -32v-610q0 -19 -13 -32t-31 -13z" />
    <glyph glyph-name="L" unicode="L" horiz-adv-x="487" 
d="M417 0h-307q-18 0 -31.5 12.5t-13.5 31.5v611q0 17 13 31t32 14h10q18 0 31 -13t13 -32v-566h253q19 0 32 -13t13 -31q0 -19 -13 -32t-32 -13z" />
    <glyph glyph-name="M" unicode="M" horiz-adv-x="805" 
d="M695 0h-11q-18 0 -31 13t-13 31v515l-183 -388q-15 -35 -55 -35q-39 0 -55 35l-182 388v-515q0 -18 -13.5 -31t-31.5 -13h-11q-19 0 -31.5 13.5t-12.5 31.5v610q0 19 13 32t31 13h60q12 0 22 -3.5t15.5 -8t9.5 -9.5t6 -9l1 -3l179 -383l180 383q2 4 5 9.5t17.5 14.5
t32.5 9h58q18 0 31.5 -13t13.5 -32v-611q0 -20 -14 -32t-31 -12z" />
    <glyph glyph-name="N" unicode="N" horiz-adv-x="732" 
d="M622 0h-35q-14 0 -27.5 8t-19.5 16l-6 8l-369 511v-499q0 -18 -13.5 -31t-31.5 -13h-10q-18 0 -31.5 13t-13.5 31v611q0 18 12.5 31.5t32.5 13.5h28q16 0 30.5 -8t21.5 -16l6 -9l371 -509v497q0 19 13 32t31 13h11q19 0 32 -13.5t13 -31.5v-611q0 -18 -13 -31t-32 -13z
" />
    <glyph glyph-name="O" unicode="O" horiz-adv-x="834" 
d="M789 350q0 -159 -108 -262t-264 -103t-264 103t-108 262q0 158 108 261t264 103t264 -103t108 -261zM417 79q112 0 189 78t77 193t-77 193t-189 78t-189 -78t-77 -193t77 -193t189 -78z" />
    <glyph glyph-name="P" unicode="P" horiz-adv-x="558" 
d="M120 0h-11q-18 0 -31 13t-13 31v611q0 19 13.5 32t30.5 13h167q63 0 113.5 -21t79.5 -55.5t44 -74.5t15 -81q0 -104 -72.5 -166t-173.5 -62h-75q-12 0 -19 7.5t-7 18.5v39q0 11 7 18.5t19 7.5h66q62 0 104 39t42 97q0 57 -37.5 100t-112.5 43h-105v-566q0 -19 -13 -31.5
t-31 -12.5z" />
    <glyph glyph-name="Q" unicode="Q" horiz-adv-x="834" 
d="M689 12l-45 45q-99 -72 -227 -72q-156 0 -264 103t-108 262q0 158 108 261t264 103t264 -103t108 -261q0 -119 -63 -210l-76 76q33 61 33 134q0 115 -77 193t-189 78q-111 0 -188 -78t-77 -193t77 -193t188 -78q86 0 156 49l-42 42q-12 12 -13 30t13 33l8 8
q13 12 31.5 12t31.5 -13l157 -157q13 -14 13 -32t-13 -31q-5 -5 -7 -8q-15 -13 -33 -12.5t-30 12.5z" />
    <glyph glyph-name="R" unicode="R" horiz-adv-x="552" 
d="M471 0h-22q-16 0 -31.5 8t-22.5 16l-7 8l-207 271v41q0 25 26 25h66q63 0 100.5 31.5t37.5 89.5q0 52 -33 86t-109 34h-104v-566q0 -18 -13.5 -31t-31.5 -13h-10q-18 0 -31.5 13t-13.5 31v611q0 19 13.5 32t31.5 13h166q123 0 183 -62t60 -147q0 -91 -56.5 -145
t-140.5 -65q164 -215 181 -237q13 -16 4.5 -30t-36.5 -14z" />
    <glyph glyph-name="S" unicode="S" horiz-adv-x="525" 
d="M264 -13h-10q-75 0 -135.5 44t-79.5 115q-5 19 7.5 37t35.5 18h15q4 0 10 -0.5t18.5 -10.5t17.5 -29q10 -36 43 -58.5t73 -22.5q48 0 84 31t36 78q0 35 -25 62.5t-62 43.5t-80.5 37t-80.5 42t-62 59t-25 88q0 85 59 139t149 54h5q82 0 139 -45.5t67 -119.5
q3 -17 -9.5 -33.5t-34.5 -16.5h-15q-18 0 -29 10t-13 20l-3 10q-4 32 -28.5 56t-74.5 24h-2q-54 0 -78.5 -27.5t-24.5 -60.5q0 -34 34.5 -59.5t83.5 -46t98.5 -46t84 -71t34.5 -107.5q0 -92 -66 -153t-156 -61z" />
    <glyph glyph-name="T" unicode="T" horiz-adv-x="536" 
d="M275 0h-11q-20 0 -32.5 13.5t-12.5 30.5v566h-159q-19 0 -32 13t-13 32q0 18 13 31.5t32 13.5h416q19 0 32 -13.5t13 -31.5q0 -19 -13 -32t-32 -13h-157v-566q0 -18 -13 -31t-31 -13z" />
    <glyph glyph-name="U" unicode="U" horiz-adv-x="535" 
d="M289 -12h-43q-83 2 -134.5 54t-51.5 138v475q0 18 13.5 31.5t31.5 13.5h10q19 0 32 -13t13 -32v-475q0 -98 88 -98h40q41 0 64 24.5t23 73.5v475q0 19 13.5 32t32.5 13h9q18 0 31.5 -13.5t13.5 -31.5v-475q0 -86 -51.5 -138t-134.5 -54z" />
    <glyph glyph-name="V" unicode="V" horiz-adv-x="654" 
d="M328 136l208 531q1 4 4.5 9.5t15 14.5t25.5 9h21q25 0 34.5 -12t1.5 -33l-238 -611q-2 -5 -6 -12.5t-22.5 -19.5t-44.5 -12t-44 11t-23 22l-5 11q-227 581 -239 611q-8 22 1.5 33.5t33.5 11.5h18q17 0 29.5 -8t16.5 -16l4 -9z" />
    <glyph glyph-name="W" unicode="W" horiz-adv-x="907" 
d="M645 136l143 531q1 4 3.5 9.5t15 14.5t31.5 9h18q48 0 35 -45l-173 -611q-1 -2 -2 -5t-6.5 -10.5t-13 -13t-21 -10.5t-29.5 -5q-26 0 -44.5 11t-23.5 22l-5 11q-75 220 -119 349l-120 -349q-1 -2 -2 -5t-6.5 -10.5t-13 -13t-21 -10.5t-29.5 -5q-26 0 -44.5 11t-23.5 22
l-5 11q-165 583 -173 611q-13 45 35 45h18q19 0 31.5 -8t15.5 -16l3 -9l143 -531l146 432q1 4 4 9t15 14t27 9t26 -8t15 -16l4 -8z" />
    <glyph glyph-name="X" unicode="X" horiz-adv-x="595" 
d="M527 0h-25q-14 0 -27.5 8t-20.5 16l-6 8l-150 227l-151 -227q-18 -32 -51 -32h-28q-29 0 -37.5 12.5t5.5 31.5l202 305q-185 280 -202 306q-13 19 -4 32t37 13h23q16 0 29.5 -8t19.5 -16l6 -9l151 -227l150 227q21 33 56 33h25q27 0 35.5 -13t-4.5 -32l-203 -306
q188 -284 202 -305q14 -20 5.5 -32t-37.5 -12z" />
    <glyph glyph-name="Y" unicode="Y" horiz-adv-x="563" 
d="M287 0h-11q-20 0 -32.5 13.5t-12.5 30.5v291q-195 295 -212 320q-12 19 -3 32t34 13h29q15 0 28 -8t19 -16l5 -9l150 -227l151 227q20 33 58 33h21q28 0 36.5 -14t-4.5 -31l-212 -320v-291q0 -19 -13 -31.5t-31 -12.5z" />
    <glyph glyph-name="Z" unicode="Z" horiz-adv-x="628" 
d="M546 0h-456q-26 0 -38.5 23t1.5 46l369 541h-332q-17 0 -31 12.5t-14 32.5t14 32.5t31 12.5h426q25 0 38 -22t0 -47l-370 -542h362q19 0 32 -13.5t13 -31.5q0 -19 -13.5 -31.5t-31.5 -12.5z" />
    <glyph glyph-name="bracketleft" unicode="[" horiz-adv-x="311" 
d="M246 -163h-35q-73 0 -109.5 41.5t-36.5 104.5v725q0 63 36.5 104.5t109.5 41.5h35q19 0 32 -13t13 -32q0 -17 -12.5 -30.5t-32.5 -13.5h-10q-37 0 -54 -16.5t-17 -58.5v-688q0 -42 17 -58.5t54 -16.5h10q20 0 32.5 -13.5t12.5 -31.5t-13 -31.5t-32 -13.5z" />
    <glyph glyph-name="backslash" unicode="\" horiz-adv-x="444" 
d="M438 -104h-28q-15 0 -27.5 8t-18.5 16l-5 9q-380 776 -385 786q-9 19 0 32t32 13h28q15 0 27.5 -8t18.5 -16l5 -8q380 -776 385 -787q9 -19 0 -32t-32 -13z" />
    <glyph glyph-name="bracketright" unicode="]" horiz-adv-x="310" 
d="M99 -163h-35q-18 0 -31 13.5t-13 31.5t12.5 31.5t31.5 13.5h11q37 0 53.5 16.5t16.5 58.5v688q0 42 -16.5 58.5t-53.5 16.5h-11q-19 0 -31.5 13.5t-12.5 30.5q0 19 12.5 32t31.5 13h35q73 0 109.5 -41.5t36.5 -104.5v-725q0 -63 -36.5 -104.5t-109.5 -41.5z" />
    <glyph glyph-name="asciicircum" unicode="^" horiz-adv-x="524" 
d="M469 278h-20q-15 0 -26.5 8t-14.5 16l-4 9l-141 319l-141 -319q-1 -4 -4 -9.5t-15.5 -14.5t-28.5 -9h-17q-28 0 -34.5 15.5t3.5 29.5l172 382q2 5 6.5 12.5t21.5 20t37 12.5t36.5 -11t22.5 -23l6 -11q163 -363 172 -382q9 -14 1 -29.5t-32 -15.5z" />
    <glyph glyph-name="underscore" unicode="_" horiz-adv-x="541" 
d="M482 -121h-422q-19 0 -32 13t-13 32q0 18 13 31.5t32 13.5h422q18 0 31 -13.5t13 -31.5q0 -19 -13 -32t-31 -13z" />
    <glyph glyph-name="grave" unicode="`" horiz-adv-x="500" 
d="M337 563q-6 -11 -17.5 -14t-22.5 3q-7 4 -70.5 40.5t-65.5 37.5q-11 6 -14 18.5t3 22.5q6 11 17.5 14t22.5 -3q3 -2 68.5 -39.5t67.5 -38.5q11 -7 14 -18.5t-3 -22.5z" />
    <glyph glyph-name="a" unicode="a" horiz-adv-x="468" 
d="M373 0h-175q-67 0 -112 40.5t-45 99.5q0 83 80 128q58 34 200 34q-1 1 0.5 9.5t-3 22t-11.5 26.5t-25.5 22.5t-44.5 9.5q-35 0 -70 -13q-17 -6 -34.5 2t-23.5 28q-5 16 3 32.5t25 22.5q54 18 109 18q78 0 125 -47t47 -134v-257q0 -18 -12.5 -31t-32.5 -13zM321 83v134
q-103 0 -148 -24q-34 -20 -34 -57q0 -53 76 -53h106z" />
    <glyph glyph-name="b" unicode="b" horiz-adv-x="572" 
d="M295 0h-190q-19 0 -32 13.5t-13 30.5v611q0 19 13.5 32t31.5 13h7q19 0 32 -13.5t13 -31.5v-192q72 19 136 19q94 0 166.5 -67.5t72.5 -173.5q0 -61 -23 -109.5t-59.5 -76t-76 -41.5t-78.5 -14zM157 89h125q58 0 103 38t45 114q0 65 -39.5 108t-106.5 43q-76 0 -127 -23
v-280z" />
    <glyph glyph-name="c" unicode="c" horiz-adv-x="465" 
d="M376 90q39 10 56 -27q8 -12 1.5 -30.5t-31.5 -28.5q-43 -18 -110 -18q-103 0 -177.5 66.5t-74.5 181.5q0 116 74.5 182t177.5 66q67 0 110 -18q25 -10 31.5 -28.5t-1.5 -30.5q-17 -37 -56 -27q-39 13 -78 13q-61 0 -108.5 -39.5t-47.5 -117.5t47.5 -117.5t108.5 -39.5
q39 0 78 13z" />
    <glyph glyph-name="d" unicode="d" horiz-adv-x="572" 
d="M467 0h-189q-39 0 -78.5 14t-76.5 41.5t-60 76t-23 109.5q0 106 73 173.5t167 67.5q65 0 135 -19v192q0 18 13.5 31.5t31.5 13.5h7q18 0 31.5 -13t13.5 -32v-611q0 -17 -12.5 -30.5t-32.5 -13.5zM415 89v280q-50 23 -127 23q-67 0 -106.5 -43t-39.5 -108q0 -76 45 -114
t103 -38h125z" />
    <glyph glyph-name="e" unicode="e" horiz-adv-x="525" 
d="M419 208h-276q6 -67 50.5 -100t113.5 -33q31 0 79 16q17 7 34.5 -1t23.5 -28q5 -16 -3 -32.5t-25 -22.5q-59 -20 -110 -20q-127 0 -196.5 70.5t-69.5 180.5q0 104 58 174t170 70q81 0 145.5 -47t79.5 -139q6 -40 -12.5 -62t-40.5 -24zM145 289h248q-3 47 -36.5 78.5
t-85.5 31.5q-61 0 -91 -32.5t-35 -77.5z" />
    <glyph glyph-name="f" unicode="f" horiz-adv-x="322" 
d="M112 0h-8q-20 0 -32 13.5t-12 30.5v467q0 81 41 135t135 54h61q17 0 31 -13t14 -32t-13.5 -32t-31.5 -13h-53q-88 0 -88 -101v-37h109q18 0 31.5 -13t13.5 -32t-13.5 -32t-31.5 -13h-109v-337q0 -19 -13 -32t-31 -13z" />
    <glyph glyph-name="g" unicode="g" horiz-adv-x="572" 
d="M415 7v1q-72 -19 -135 -19q-94 0 -167 67.5t-73 173.5q0 61 23 109.5t60 76.5t76.5 42t78.5 14h189q20 0 32.5 -13.5t12.5 -31.5v-429q0 -114 -66 -182.5t-176 -68.5q-37 0 -69 5.5t-45 11.5l-14 5q-17 6 -25 22.5t-3 32.5q6 20 23.5 27.5t34.5 1.5q57 -19 89 -19
q9 -1 23 -0.5t47.5 15.5t55.5 45q29 42 28 113zM415 102v280h-125q-58 0 -103 -38t-45 -114q0 -65 39.5 -108t106.5 -43q77 0 127 23z" />
    <glyph glyph-name="h" unicode="h" horiz-adv-x="559" 
d="M464 0h-10q-20 0 -32.5 13.5t-12.5 30.5v212q0 65 -32.5 100t-89.5 35q-76 0 -131 -20v-326q0 -20 -13.5 -32.5t-30.5 -12.5h-8q-19 0 -31.5 13t-12.5 31v611q0 18 12.5 31.5t31.5 13.5h8q17 0 30.5 -13t13.5 -32v-191q74 18 146 18q24 0 48.5 -4.5t54 -20t52 -39.5
t37.5 -67.5t15 -99.5v-207q0 -18 -13.5 -31t-31.5 -13z" />
    <glyph glyph-name="i" unicode="i" horiz-adv-x="220" 
d="M115 0h-10q-19 0 -32 13.5t-13 30.5v383q0 17 13 31t32 14h10q18 0 31.5 -13t13.5 -32v-383q0 -18 -13.5 -31t-31.5 -13zM115 579h-10q-19 0 -32 13.5t-13 30.5v16q0 17 13 31t32 14h10q18 0 31.5 -13t13.5 -32v-15q0 -19 -13.5 -32t-31.5 -13z" />
    <glyph glyph-name="j" unicode="j" horiz-adv-x="227" 
d="M21 -221h-34q-19 0 -32 13t-13 32q0 17 13 30.5t32 13.5h10q37 0 54 16.5t17 58.5v484q0 17 12.5 31t31.5 14h11q18 0 31 -13t13 -32v-502q0 -64 -36 -105t-110 -41zM123 579h-11q-19 0 -31.5 13.5t-12.5 30.5v16q0 17 12.5 31t31.5 14h11q18 0 31 -13t13 -32v-15
q0 -19 -13 -32t-31 -13z" />
    <glyph glyph-name="k" unicode="k" horiz-adv-x="508" 
d="M115 0h-11q-19 0 -31.5 13.5t-12.5 30.5v611q0 17 12.5 31t31.5 14h11q18 0 31 -13t13 -32v-611q0 -19 -13 -31.5t-31 -12.5zM456 0h-23q-17 0 -33 8t-24 16l-7 8l-170 170q-14 15 -19.5 30t-2.5 26.5t7.5 21t9.5 14.5l5 5l140 140q30 33 68 33h19q25 0 36 -16t-3 -29
l-176 -177l206 -206q13 -10 4.5 -27t-37.5 -17z" />
    <glyph glyph-name="l" unicode="l" horiz-adv-x="289" 
d="M241 0h-35q-73 0 -109.5 41t-36.5 105v509q0 19 13 32t31 13h11q19 0 32 -14t13 -31v-491q0 -42 17 -58.5t54 -16.5h10q20 0 32.5 -13.5t12.5 -31.5t-13 -31t-32 -13z" />
    <glyph glyph-name="m" unicode="m" horiz-adv-x="825" 
d="M730 0h-8q-17 0 -30.5 12.5t-13.5 31.5v212q0 59 -33.5 97t-88.5 38q-65 0 -105 -24q21 -45 21 -116v-207q0 -19 -13.5 -31.5t-30.5 -12.5h-8q-17 0 -30.5 12.5t-13.5 31.5v212q0 62 -29 98.5t-84 36.5q-50 0 -106 -20v-327q0 -17 -12.5 -30.5t-32.5 -13.5h-7
q-18 0 -31.5 12.5t-13.5 31.5v383q0 18 13 31.5t32 13.5h52q60 10 118 10q64 0 117 -39q83 39 176 39q24 0 48.5 -4.5t54 -20t52 -39.5t37.5 -67.5t15 -99.5v-207q0 -19 -14 -31.5t-31 -12.5z" />
    <glyph glyph-name="n" unicode="n" horiz-adv-x="557" 
d="M462 0h-7q-18 0 -31.5 12.5t-13.5 31.5v212q0 56 -24 89.5t-80.5 44t-148.5 -18.5v-327q0 -17 -12.5 -30.5t-32.5 -13.5h-7q-17 0 -31 12.5t-14 31.5v383q0 18 13 31.5t32 13.5h52q60 10 132 10q30 0 57 -5t57.5 -20t52.5 -39t36.5 -67t14.5 -100v-207q0 -19 -13.5 -31.5
t-31.5 -12.5z" />
    <glyph glyph-name="o" unicode="o" horiz-adv-x="587" 
d="M547 234q0 -104 -72.5 -176t-181.5 -72t-181 72t-72 176t72 176t181 72t181.5 -72t72.5 -176zM293 76q65 0 108.5 44t43.5 114t-43.5 114t-108.5 44t-108 -44t-43 -114t43 -114t108 -44z" />
    <glyph glyph-name="p" unicode="p" horiz-adv-x="572" 
d="M112 -228h-7q-18 0 -31.5 12.5t-13.5 31.5v611q0 18 12.5 31.5t32.5 13.5h189q39 0 78.5 -14t76.5 -42t60 -76.5t23 -109.5q0 -106 -73 -173.5t-167 -67.5q-65 0 -135 19v-192q0 -18 -13.5 -31t-31.5 -13zM282 382h-125v-280q50 -23 127 -23q66 0 105.5 43t39.5 108
q0 76 -44.5 114t-102.5 38z" />
    <glyph glyph-name="q" unicode="q" horiz-adv-x="572" 
d="M467 -228h-8q-18 0 -31 13t-13 31v193q-68 -20 -136 -20q-94 0 -166.5 68t-72.5 174q0 61 23 109.5t59.5 76t76 41.5t78.5 14h190q19 0 32 -14t13 -31v-611q0 -18 -13.5 -31t-31.5 -13zM415 102v280h-125q-58 0 -103 -37.5t-45 -113.5q0 -66 39.5 -109t106.5 -43
q76 0 127 23z" />
    <glyph glyph-name="r" unicode="r" horiz-adv-x="360" 
d="M113 0h-8q-18 0 -31.5 12.5t-13.5 31.5v383q0 18 12.5 31.5t32.5 13.5h13q20 1 31 -14q42 14 78 14h65q17 0 31 -13t14 -32q0 -20 -14 -32.5t-31 -12.5h-61q-74 0 -74 -72v-266q0 -19 -13.5 -31.5t-30.5 -12.5z" />
    <glyph glyph-name="s" unicode="s" horiz-adv-x="441" 
d="M214 -13q-77 3 -138 29q-24 10 -28 32.5t4 29.5q6 13 21 20.5t35 0.5q53 -22 114 -25q41 -2 67 10.5t27 35.5q1 18 -13.5 30.5t-39.5 21.5q-99 36 -136.5 53.5t-55.5 37.5q-31 33 -30 84q3 61 53 100t140 34q50 -3 108 -22q16 -6 25 -23t2 -35q-8 -18 -25 -25t-32 -1
q-49 18 -83 21q-88 4 -90 -44q-1 -18 14 -29t56 -26q133 -48 168 -77q19 -15 29.5 -40t8.5 -49q-3 -66 -55.5 -107.5t-145.5 -36.5z" />
    <glyph glyph-name="t" unicode="t" horiz-adv-x="357" 
d="M298 0h-62q-93 0 -134.5 53.5t-41.5 134.5v467q0 17 12.5 31t32.5 14h7q18 0 31.5 -13t13.5 -32v-183h109q18 0 31 -13t13 -32t-13 -32t-32 -13h-108v-192q0 -53 22 -77t66 -24h53q18 0 31 -12.5t13 -32.5q0 -19 -13.5 -31.5t-30.5 -12.5z" />
    <glyph glyph-name="u" unicode="u" horiz-adv-x="557" 
d="M452 0h-52q-63 -14 -132 -14q-218 0 -218 227v214q0 20 13.5 32.5t31.5 12.5h7q18 0 31.5 -12.5t13.5 -32.5v-219q0 -56 24 -89.5t80.5 -44t148.5 18.5v334q0 17 13 31t32 14h7q18 0 31.5 -12.5t13.5 -32.5v-383q0 -18 -13 -31t-32 -13z" />
    <glyph glyph-name="v" unicode="v" horiz-adv-x="508" 
d="M254 120l141 319q1 4 4 9.5t14.5 14.5t26.5 9h20q24 0 32 -15.5t0 -29.5l-173 -383q-2 -5 -6.5 -12.5t-21 -19.5t-37.5 -12q-20 0 -36 11t-22 22l-6 11q-164 364 -173 383q-19 45 32 45h17q16 0 28 -8t16 -16l4 -9z" />
    <glyph glyph-name="w" unicode="w" horiz-adv-x="727" 
d="M453 44l-90 272l-90 -272q-2 -5 -6 -12.5t-19.5 -19.5t-34.5 -12t-34 11t-21 22l-6 11q-129 362 -136 383q-8 16 0 30.5t32 14.5h17q15 0 25.5 -8t13.5 -16l4 -9l105 -296l99 294q1 4 4.5 10t16.5 15.5t30 9.5t30 -9t17 -17l5 -9l99 -294l105 296q1 4 3.5 9.5t12.5 14.5
t23 9h17q51 0 36 -45l-136 -383q-2 -5 -5.5 -12.5t-19 -19.5t-35.5 -12t-35.5 11t-21.5 22z" />
    <glyph glyph-name="x" unicode="x" horiz-adv-x="449" 
d="M388 0h-23q-12 0 -24.5 8t-18.5 16l-7 8l-90 125l-91 -125q-22 -32 -50 -32h-20q-27 0 -36.5 14.5t2.5 29.5l138 190q-122 169 -139 193q-14 17 -5 31t36 14h21q13 0 26 -8t19 -16l6 -9l93 -127l92 127q21 33 52 33h20q27 0 36 -14.5t-4 -30.5l-140 -193
q124 -170 138 -190q14 -18 5 -31t-36 -13z" />
    <glyph glyph-name="y" unicode="y" horiz-adv-x="519" 
d="M66 -221h-39q-18 0 -31.5 12.5t-13.5 32.5q0 17 12.5 30.5t32.5 13.5h28q35 0 57.5 15t41.5 53l61 123q-173 341 -186 368q-10 20 -0.5 32.5t33.5 12.5h15q16 0 28 -8t16 -16l4 -9l140 -281l140 281q14 33 42 33h20q27 0 36 -12.5t-2 -32.5l-264 -521q-35 -70 -75 -98.5
t-96 -28.5z" />
    <glyph glyph-name="z" unicode="z" horiz-adv-x="435" 
d="M363 0h-290q-26 0 -39 22t1 47l232 313h-177q-18 0 -31 13t-13 32t13 32t31 13h257q26 0 38.5 -24t-0.5 -44l-231 -315h208q19 0 32.5 -13t13.5 -32q0 -20 -14 -32t-31 -12z" />
    <glyph glyph-name="braceleft" unicode="{" horiz-adv-x="396" 
d="M331 -163h-35q-73 0 -109.5 41.5t-36.5 104.5v204q0 42 -16.5 58.5t-53.5 16.5h-11q-19 0 -31.5 14t-12.5 31v78q0 17 12.5 30.5t31.5 13.5h11q37 0 53.5 16.5t16.5 58.5v204q0 63 36.5 104.5t109.5 41.5h35q19 0 32 -13t13 -32q0 -17 -13 -30.5t-32 -13.5h-10
q-37 0 -54 -16.5t-17 -58.5v-204q0 -52 -24 -89.5t-73 -50.5q49 -13 73 -51t24 -89v-204q0 -42 17 -58.5t54 -16.5h10q20 0 32.5 -13.5t12.5 -31.5t-13 -31.5t-32 -13.5z" />
    <glyph glyph-name="bar" unicode="|" horiz-adv-x="239" 
d="M125 -262h-11q-19 0 -31.5 14t-12.5 31v1126q0 17 12.5 30.5t31.5 13.5h11q18 0 31 -12.5t13 -31.5v-1126q0 -19 -13 -32t-31 -13z" />
    <glyph glyph-name="braceright" unicode="}" horiz-adv-x="401" 
d="M100 -163h-35q-19 0 -32 13.5t-13 31.5t12.5 31.5t32.5 13.5h10q37 0 54 16.5t17 58.5v204q0 51 24 89t73 51q-49 13 -73 50.5t-24 89.5v204q0 42 -17 58.5t-54 16.5h-10q-19 0 -32 13.5t-13 30.5q0 19 13 32t32 13h35q73 0 109.5 -41.5t36.5 -104.5v-204q0 -42 17 -58.5
t53 -16.5h11q19 0 31.5 -13.5t12.5 -30.5v-78q0 -18 -12.5 -31.5t-31.5 -13.5h-11q-37 0 -53.5 -16.5t-16.5 -58.5v-204q0 -63 -36.5 -104.5t-109.5 -41.5z" />
    <glyph glyph-name="asciitilde" unicode="~" horiz-adv-x="510" 
d="M406 339q1 2 2.5 4.5t7.5 9.5t12 10t14.5 5.5t16.5 -3.5q28 -16 3 -66q-19 -34 -44.5 -49.5t-55.5 -13t-56 11t-57 24.5q-42 22 -63.5 29t-43.5 1t-38 -34q-1 -2 -2.5 -4t-6.5 -9t-10.5 -10t-14 -5.5t-17.5 3.5q-31 15 -4 66q61 113 230 19q31 -17 50.5 -23t41 0.5
t35.5 33.5z" />
    <glyph glyph-name="uni00A0" unicode="&#xa0;" horiz-adv-x="230" 
 />
    <glyph glyph-name="exclamdown" unicode="&#xa1;" horiz-adv-x="213" 
d="M129 -240h-45q-18 0 -31 13t-13 32l19 423q0 19 12 31.5t34 12.5t35.5 -12.5t13.5 -31.5l19 -423q0 -19 -13 -32t-31 -13zM110 355h-11q-19 0 -32 14t-13 31v15q0 17 13 31t32 14h11q18 0 31 -13t13 -32v-15q0 -18 -13 -31.5t-31 -13.5z" />
    <glyph glyph-name="cent" unicode="&#xa2;" horiz-adv-x="465" 
d="M309 -8v-57q0 -15 -9.5 -25t-25.5 -10t-25.5 10.5t-9.5 24.5v62q-86 16 -142.5 79.5t-56.5 163.5t56.5 163.5t142.5 79.5v62q0 14 9.5 24t25.5 10t25.5 -10t9.5 -24v-58q53 -3 93 -17q24 -10 31 -29t-2 -31q-6 -15 -20.5 -23.5t-35.5 -2.5q-33 12 -66 13v-314q33 1 66 13
q41 11 56 -27q9 -12 2 -31t-31 -28q-31 -13 -93 -18zM239 93v294q-43 -16 -70 -52.5t-27 -94.5t27 -95t70 -52z" />
    <glyph glyph-name="sterling" unicode="&#xa3;" horiz-adv-x="531" 
d="M451 0h-310q-18 0 -31 13t-13 32v259h-72l20 90h52v128q0 86 51.5 138t133.5 54h5q83 -2 134.5 -54t51.5 -138q0 -16 -13 -29.5t-32 -13.5h-10q-19 0 -32 13.5t-13 29.5q0 49 -23 73.5t-64 24.5h-2q-88 0 -88 -98v-432h255q17 0 31 -13t14 -32q0 -18 -13 -31.5t-32 -13.5
zM390 304h-175v90h175q17 0 30.5 -13t13.5 -32q0 -18 -13 -31.5t-31 -13.5z" />
    <glyph glyph-name="currency" unicode="&#xa4;" horiz-adv-x="644" 
d="M525 210l75 -75q13 -13 13 -31.5t-13 -31.5t-31.5 -13t-31.5 13l-75 75q-64 -43 -140 -43t-140 43q-73 -74 -75 -75q-13 -13 -31.5 -13t-31.5 13t-13 31.5t13 31.5l75 75q-44 63 -44 141q0 79 43 140l-74 74q-13 13 -13 31.5t13 31.5q13 14 31.5 14t31.5 -14l74 -73
q63 44 141 44t141 -44q73 73 74 73q13 14 31.5 14t31.5 -14q13 -13 13 -31.5t-13 -31.5l-74 -74q44 -63 44 -140t-45 -141zM493 351q0 71 -50 121t-121 50t-120.5 -50t-49.5 -121t50 -120.5t120 -49.5q71 0 121 50t50 120z" />
    <glyph glyph-name="yen" unicode="&#xa5;" horiz-adv-x="579" 
d="M464 151h-124v-106q0 -19 -13.5 -32t-31.5 -13h-11q-19 0 -31.5 14t-12.5 31v106h-125q-19 0 -32 13.5t-13 31.5q0 19 14 32t31 13h125v47h-125q-19 0 -32 13.5t-13 31.5q0 19 14 32t31 13h96q-171 258 -183 277q-13 19 -4 32t35 13h28q15 0 28 -8t19 -16l5 -9l151 -227
l150 227q20 33 58 33h21q28 0 36.5 -14t-4.5 -31l-183 -277h96q17 0 31 -13t14 -32q0 -18 -13 -31.5t-32 -13.5h-124v-47h124q17 0 31 -13t14 -32q0 -18 -13 -31.5t-32 -13.5z" />
    <glyph glyph-name="brokenbar" unicode="&#xa6;" horiz-adv-x="247" 
d="M130 -132h-11q-19 0 -31.5 14t-12.5 31v301q0 17 12.5 31t31.5 14h11q18 0 31 -13t13 -32v-301q0 -19 -13 -32t-31 -13zM130 499h-11q-19 0 -31.5 13.5t-12.5 30.5v250q0 18 12.5 31.5t31.5 13.5h11q18 0 31 -13t13 -32v-250q0 -19 -13 -31.5t-31 -12.5z" />
    <glyph glyph-name="section" unicode="&#xa7;" horiz-adv-x="559" 
d="M290 -255h-5q-82 0 -139 45.5t-67 120.5q-3 17 9.5 33.5t34.5 16.5h15q18 0 29 -10.5t13 -20.5l3 -10q4 -32 28.5 -56t74.5 -24h2q54 0 78.5 27.5t24.5 61.5t-34.5 59.5t-84 46t-99 46t-84 71t-34.5 107.5q0 83 57 143q-50 48 -50 118q0 86 59 140t149 54h5
q81 0 138.5 -45.5t67.5 -119.5q3 -18 -9.5 -34.5t-34.5 -16.5h-15q-18 0 -29 10t-13 20l-3 11q-4 32 -28.5 56t-74.5 24h-2q-54 0 -78.5 -27.5t-24.5 -60.5q0 -29 25 -52t62 -38.5t80.5 -37t80.5 -45t62 -64.5t25 -94q0 -84 -56 -143q50 -48 50 -118q0 -86 -59 -140
t-149 -54zM197 347q-34 -31 -34 -77q0 -24 10.5 -43.5t34.5 -36t43 -26.5t57 -26.5t55 -24.5q34 31 34 76q0 25 -10.5 44.5t-34.5 36t-43 26.5t-57 26.5t-55 24.5z" />
    <glyph glyph-name="dieresis" unicode="&#xa8;" horiz-adv-x="449" 
d="M314 573h-9q-17 0 -27.5 11.5t-10.5 26.5v12q0 15 10.5 26.5t27.5 11.5h9q15 0 26 -11t11 -27v-12q0 -16 -11 -27t-26 -11zM145 573h-9q-17 0 -27.5 11.5t-10.5 26.5v12q0 15 10.5 26.5t27.5 11.5h9q15 0 26 -11t11 -27v-12q0 -16 -11 -27t-26 -11z" />
    <glyph glyph-name="copyright" unicode="&#xa9;" horiz-adv-x="832" 
d="M416 -18q-152 0 -259 107.5t-107 259.5q0 151 107 258.5t259 107.5t259 -107.5t107 -258.5q0 -152 -107 -259.5t-259 -107.5zM707 349q0 121 -85 206t-206 85t-206 -85t-85 -206t85 -206t206 -85t206 85t85 206zM516 534q20 -7 25.5 -22.5t-1.5 -25.5q-15 -30 -46 -21
q-35 11 -63 11q-49 0 -87.5 -32.5t-38.5 -95.5t38.5 -95t87.5 -32q31 0 63 10q31 9 46 -21q14 -33 -24 -48q-40 -15 -89 -15q-83 0 -144 54t-61 147q0 94 60.5 147.5t144.5 53.5q55 0 89 -15z" />
    <glyph glyph-name="ordfeminine" unicode="&#xaa;" horiz-adv-x="318" 
d="M249 382h-116q-43 0 -73 27t-30 66q0 54 53 84q38 22 131 22q-1 0 0 6t-2 15t-7.5 18t-16.5 15t-29 6q-22 0 -46 -9q-11 -4 -22.5 1t-15.5 19q-4 10 1.5 21t17.5 15q34 12 71 12q52 0 82.5 -31t30.5 -88v-169q0 -12 -8.5 -21t-20.5 -9zM214 437v88q-68 0 -97 -15
q-23 -14 -23 -37q0 -36 50 -36h70z" />
    <glyph glyph-name="guillemotleft" unicode="&#xab;" horiz-adv-x="519" 
d="M229 126h-32q-15 0 -26.5 5t-16.5 10l-4 5l-108 143q-12 17 -11.5 38.5t11.5 37.5l108 142q14 21 47 21h32q58 0 24 -45l-119 -156l119 -157q16 -20 10 -32t-34 -12zM453 126h-31q-15 0 -27 5t-17 10l-4 5l-107 143q-12 17 -11.5 39t11.5 37l107 142q14 21 48 21h31
q58 0 24 -45l-119 -156l119 -157q16 -20 10 -32t-34 -12z" />
    <glyph glyph-name="logicalnot" unicode="&#xac;" horiz-adv-x="642" 
d="M542 0h-11q-18 0 -31 13t-13 32v225h-407q-19 0 -32 13t-13 32q0 18 13 31t32 13h462q18 0 31.5 -12.5t13.5 -31.5v-270q0 -17 -13 -31t-32 -14z" />
    <glyph glyph-name="registered" unicode="&#xae;" horiz-adv-x="344" 
d="M172 433q-59 0 -100.5 41.5t-41.5 100.5q0 58 41.5 99.5t100.5 41.5t100.5 -41.5t41.5 -99.5q0 -59 -41.5 -100.5t-100.5 -41.5zM172 459q48 0 81.5 34t33.5 82q0 47 -33.5 81t-81.5 34t-81.5 -34t-33.5 -81q0 -48 33.5 -82t81.5 -34zM215 500h-5q-4 0 -7 2t-5 4l-1 1
l-44 57v9q0 5 6 5h14q29 0 29 26t-30 26h-22v-121q0 -9 -10 -9h-2q-9 0 -9 9v130q0 10 9 10h36q26 0 38.5 -13t12.5 -32q0 -38 -42 -44q35 -46 39 -51q3 -3 1 -6t-8 -3z" />
    <glyph glyph-name="macron" unicode="&#xaf;" horiz-adv-x="443" 
d="M300 584h-157q-12 0 -21 8.5t-9 20.5q0 13 9 21.5t21 8.5h157q12 0 20.5 -9t8.5 -21t-8.5 -20.5t-20.5 -8.5z" />
    <glyph glyph-name="degree" unicode="&#xb0;" horiz-adv-x="310" 
d="M155 450q-52 0 -88.5 36.5t-36.5 88.5t36.5 88.5t88.5 36.5t88.5 -36.5t36.5 -88.5t-36.5 -88.5t-88.5 -36.5zM155 508q28 0 47.5 19.5t19.5 47.5t-19.5 47.5t-47.5 19.5t-47.5 -19.5t-19.5 -47.5t19.5 -47.5t47.5 -19.5z" />
    <glyph glyph-name="plusminus" unicode="&#xb1;" horiz-adv-x="497" 
d="M417 321h-124v-124q0 -19 -13 -32t-32 -13q-18 0 -31.5 13t-13.5 32v124h-124q-18 0 -31 13t-13 32q0 18 13 31.5t31 13.5h124v124q0 18 13.5 31t31.5 13q19 0 32 -13t13 -31v-124h124q19 0 32 -13.5t13 -31.5q0 -19 -13 -32t-32 -13zM417 0h-338q-18 0 -31 13t-13 32
q0 18 13 31.5t31 13.5h338q19 0 32 -13.5t13 -31.5q0 -19 -13 -32t-32 -13z" />
    <glyph glyph-name="twosuperior" unicode="&#xb2;" horiz-adv-x="364" 
d="M293 291h-222q-17 0 -23.5 15.5t5.5 29.5l119 126q67 67 67 113q0 35 -19.5 56t-51.5 21q-30 0 -63 -22q-20 -15 -36 6q-14 18 2 34q36 36 96 36q57 0 95 -36.5t38 -90.5q0 -31 -13 -60.5t-25 -43.5l-13 -14l-112 -118h156q10 0 18 -7.5t8 -18.5t-7.5 -18.5t-18.5 -7.5z
" />
    <glyph glyph-name="threesuperior" unicode="&#xb3;" horiz-adv-x="371" 
d="M194 499h-10q-12 0 -19 8t-7 18v23l57 100h-110q-12 0 -19.5 8t-7.5 18q0 11 8 18.5t19 7.5h161q15 0 22.5 -13.5t0.5 -25.5q-12 -18 -63 -108q39 -10 69.5 -45t30.5 -87q0 -55 -38.5 -96.5t-101.5 -41.5q-87 0 -134 51q-16 20 2 37q17 17 37 3q18 -13 26.5 -18.5t25 -10
t38.5 -4.5q42 0 64.5 23t22.5 57q0 33 -22 55.5t-52 22.5z" />
    <glyph glyph-name="acute" unicode="&#xb4;" horiz-adv-x="445" 
d="M155 604l136 78q11 6 22.5 3t17.5 -14q6 -10 2.5 -22.5t-13.5 -18.5q-13 -4 -136 -78q-11 -6 -22.5 -3t-17.5 14q-6 10 -3 22t14 19z" />
    <glyph glyph-name="mu" unicode="&#xb5;" horiz-adv-x="557" 
d="M452 0h-52q-63 -14 -122 -14q-80 0 -131 33v-203q0 -18 -13.5 -31t-31.5 -13h-7q-18 0 -31.5 12.5t-13.5 31.5v611q0 20 13.5 32.5t31.5 12.5h7q18 0 31.5 -12.5t13.5 -32.5v-219q0 -56 24 -89.5t80.5 -44t148.5 18.5v334q0 17 13 31t32 14h7q18 0 31.5 -12.5t13.5 -32.5
v-383q0 -18 -13 -31t-32 -13z" />
    <glyph glyph-name="paragraph" unicode="&#xb6;" horiz-adv-x="646" 
d="M537 -154h-11q-20 0 -32.5 13.5t-12.5 30.5v710h-94v-709q0 -19 -13 -32t-31 -13h-11q-19 0 -31.5 13.5t-12.5 30.5v324q-100 0 -171.5 71t-71.5 172q0 99 69.5 170t167.5 73h255q17 0 30.5 -13t13.5 -32v-764q0 -19 -13 -32t-31 -13z" />
    <glyph glyph-name="periodcentered" unicode="&#xb7;" horiz-adv-x="176" 
d="M88 283q-24 0 -41 17t-17 42q0 24 17 41t41 17t41 -17t17 -41q0 -25 -17 -42t-41 -17z" />
    <glyph glyph-name="cedilla" unicode="&#xb8;" horiz-adv-x="467" 
d="M247 -78h-41q-17 -1 -19 17v60h44v-35h17q32 0 55 -23t23 -55q0 -33 -22.5 -56.5t-57.5 -23.5q-33 0 -63 19q-10 7 -11.5 15.5t1.5 13.5l3 4q1 2 4 4t12.5 4.5t19.5 -5.5q19 -10 33 -10q18 0 27 10.5t9 25.5q0 14 -10 24.5t-24 10.5z" />
    <glyph glyph-name="onesuperior" unicode="&#xb9;" horiz-adv-x="222" 
d="M131 291h-7q-11 0 -18.5 8.5t-7.5 18.5v286q0 24 -9.5 34t-31.5 10h-6q-11 0 -18.5 8t-7.5 18t7.5 18t18.5 8h20q43 0 64.5 -24t21.5 -61v-297q0 -11 -7.5 -19t-18.5 -8z" />
    <glyph glyph-name="ordmasculine" unicode="&#xba;" horiz-adv-x="401" 
d="M371 533q0 -70 -48.5 -118.5t-121.5 -48.5q-74 0 -122.5 48.5t-48.5 118.5t48.5 118.5t122.5 48.5q73 0 121.5 -48.5t48.5 -118.5zM201 427q43 0 72.5 29.5t29.5 76.5t-29.5 76.5t-72.5 29.5q-44 0 -73 -29.5t-29 -76.5t29 -76.5t73 -29.5z" />
    <glyph glyph-name="guillemotright" unicode="&#xbb;" horiz-adv-x="519" 
d="M322 126h-32q-28 0 -34 12t10 32l119 157l-119 156q-34 45 24 45h32q15 0 26.5 -5t15.5 -11l5 -5l108 -142q11 -16 11.5 -37.5t-11.5 -38.5l-108 -143q-14 -20 -47 -20zM97 126h-31q-28 0 -34 12t10 32l119 157l-119 156q-34 45 24 45h31q15 0 27 -5t16 -11l4 -5
l108 -142q11 -15 11.5 -37t-11.5 -39l-108 -143q-13 -20 -47 -20z" />
    <glyph glyph-name="onequarter" unicode="&#xbc;" horiz-adv-x="770" 
d="M145 0h-4q-23 0 -33 13t1 32l416 622q18 33 51 33h4q24 0 34 -12.5t-2 -32.5l-416 -623q-18 -32 -51 -32zM699 -1h-7q-11 0 -18.5 8t-7.5 18v82h-187q-15 0 -22.5 13.5t0.5 27.5l154 241q11 19 31 19h10q17 0 22.5 -6.5t3.5 -13.5l-3 -6l-141 -222h132v63q0 10 7.5 18
t18.5 8h7q11 0 18.5 -7.5t7.5 -18.5v-197q0 -11 -7.5 -19t-18.5 -8zM151 291h-6q-11 0 -18.5 8t-7.5 18v286q0 25 -9.5 34.5t-31.5 9.5h-6q-12 0 -19.5 8t-7.5 18q0 11 8 18.5t19 7.5h20q43 0 64 -24t21 -61v-297q0 -11 -7.5 -18.5t-18.5 -7.5z" />
    <glyph glyph-name="onehalf" unicode="&#xbd;" horiz-adv-x="838" 
d="M153 0h-4q-23 0 -33 13t1 32l416 622q18 33 52 33h4q23 0 33 -12.5t-1 -32.5l-417 -623q-17 -32 -51 -32zM767 0h-222q-17 0 -24 15t5 29l119 126q67 67 67 114q0 35 -19 56t-52 21q-28 0 -63 -22q-19 -15 -36 5q-14 20 3 35q34 36 96 36q57 0 94.5 -36.5t37.5 -91.5
q0 -31 -12.5 -60t-25.5 -43l-13 -14l-112 -118h157q10 0 18 -7t8 -19q0 -11 -8 -18.5t-18 -7.5zM151 291h-6q-11 0 -18.5 8.5t-7.5 18.5v286q0 24 -9.5 34t-31.5 10h-6q-12 0 -19.5 8t-7.5 18q0 11 8 18.5t19 7.5h20q42 0 63.5 -24t21.5 -61v-297q0 -11 -7.5 -19t-18.5 -8z
" />
    <glyph glyph-name="threequarters" unicode="&#xbe;" horiz-adv-x="876" 
d="M275 0h-4q-23 0 -33 13t1 32l416 622q18 33 52 33h4q23 0 33 -12.5t-1 -32.5l-417 -623q-17 -32 -51 -32zM195 499h-10q-12 0 -19.5 8t-7.5 18v23l58 100h-111q-11 0 -18.5 8t-7.5 18q0 11 7.5 18.5t18.5 7.5h162q15 0 22.5 -13.5t0.5 -25.5q-21 -32 -64 -108
q40 -10 70.5 -45t30.5 -87q0 -55 -38.5 -96.5t-101.5 -41.5q-87 0 -135 51q-16 19 2 37q18 17 37 3t27 -19t25 -9.5t39 -4.5q42 0 64.5 23t22.5 57q0 33 -22 55.5t-52 22.5zM805 0h-7q-11 0 -18.5 8t-7.5 18v82h-187q-15 0 -22.5 13t0.5 27l154 241q11 19 31 19h10
q17 0 22.5 -6.5t3.5 -13.5l-3 -6l-141 -222h132v63q0 10 7.5 18t18.5 8h7q11 0 18.5 -7.5t7.5 -18.5v-197q0 -11 -7.5 -18.5t-18.5 -7.5z" />
    <glyph glyph-name="questiondown" unicode="&#xbf;" horiz-adv-x="559" 
d="M415 176h-121q-66 0 -112.5 -49.5t-46.5 -122.5q0 -60 48.5 -108t113.5 -48q38 0 66.5 8t42 16.5t45.5 32.5q33 24 64 -4q13 -14 14 -30t-5 -25l-6 -9q-84 -89 -230 -89q-102 0 -177.5 78.5t-75.5 177.5q0 53 17 99t44 76.5t60.5 52t66 31.5t61.5 10h131q20 0 32.5 -14.5
t12.5 -29.5v-9q0 -17 -12.5 -30.5t-32.5 -13.5zM416 357h-10q-20 0 -32.5 13.5t-12.5 30.5v16q0 17 12.5 30.5t32.5 13.5h10q18 0 31.5 -13t13.5 -31v-16q0 -18 -13.5 -31t-31.5 -13z" />
    <glyph glyph-name="Agrave" unicode="&#xc0;" horiz-adv-x="630" 
d="M578 0h-14q-17 0 -29 8t-16 16l-4 8l-201 554l-109 -305h176q12 0 21 -6t12 -11l3 -6l14 -41q1 -3 2 -7.5t-5 -11.5t-22 -7h-233l-58 -159q-1 -4 -4 -9t-15.5 -14t-29.5 -9h-14q-25 0 -34 11t-6 23l3 11l241 622q1 1 2 3.5t5.5 8t10.5 10t17 8t24 3.5q20 0 34.5 -8
t19.5 -16l5 -9l241 -622q1 -2 2 -5t1 -10.5t-2.5 -13.5t-12 -11t-25.5 -5zM368 770l-136 78q-11 6 -14 17.5t3 22.5t18 14.5t23 -3.5q2 -1 67.5 -38.5t68.5 -39.5q11 -6 14 -17.5t-3 -22.5q-6 -10 -18.5 -13.5t-22.5 2.5z" />
    <glyph glyph-name="Aacute" unicode="&#xc1;" horiz-adv-x="630" 
d="M578 0h-14q-17 0 -29 8t-16 16l-4 8l-200 554l-110 -305h176q12 0 21 -6t12 -11l3 -6l14 -41q1 -3 2 -7.5t-5 -11.5t-22 -7h-233l-58 -159q-1 -4 -4 -9t-15.5 -14t-29.5 -9h-13q-25 0 -34.5 11t-6.5 23l3 11l241 622q1 1 2 3.5t5.5 8t10.5 10t17 8t24 3.5q20 0 34.5 -8
t19.5 -16l5 -9l241 -622q1 -2 2 -5t1 -10.5t-2.5 -13.5t-12 -11t-25.5 -5zM398 848l-136 -78q-10 -6 -22.5 -2.5t-18.5 13.5q-6 11 -3 22.5t14 17.5q3 2 68.5 39.5t67.5 38.5q11 7 23 3.5t18 -14.5t3 -22.5t-14 -17.5z" />
    <glyph glyph-name="Acircumflex" unicode="&#xc2;" horiz-adv-x="630" 
d="M578 0h-14q-17 0 -29 8t-16 16l-4 8l-200 554l-110 -305h176q12 0 21 -6t12 -11l3 -6l14 -41q1 -3 2 -7.5t-5 -11.5t-22 -7h-233l-58 -159q-1 -4 -4 -9t-15.5 -14t-29.5 -9h-13q-25 0 -34.5 11t-6.5 23l3 11l241 622q1 1 2 3.5t5.5 8t10.5 10t17 8t24 3.5q20 0 34.5 -8
t19.5 -16l5 -9l241 -622q1 -2 2 -5t1 -10.5t-2.5 -13.5t-12 -11t-25.5 -5zM399 781l-84 48l-84 -48q-11 -6 -22.5 -3t-17.5 14q-6 10 -3 22t14 19q1 0 25 14t48 27.5t25 13.5q14 8 30 0q2 0 49.5 -27t49.5 -28q11 -7 14 -18.5t-4 -22.5q-6 -11 -17.5 -14t-22.5 3z" />
    <glyph glyph-name="Atilde" unicode="&#xc3;" horiz-adv-x="630" 
d="M578 0h-14q-17 0 -29 8t-16 16l-4 8l-200 554l-110 -305h176q12 0 21 -6t12 -11l3 -6l14 -41q1 -3 2 -7.5t-5 -11.5t-22 -7h-233l-58 -159q-1 -4 -4 -9t-15.5 -14t-29.5 -9h-13q-25 0 -34.5 11t-6.5 23l3 11l242 622q1 4 4.5 9.5t18.5 14.5t35 9t34.5 -8t19.5 -16l5 -9
l241 -622q1 -2 2 -5t1 -10.5t-2.5 -13.5t-12 -11t-25.5 -5zM450 834l-31 -32q-3 -3 -9 -6.5t-27 -9t-43 5.5q-2 1 -63 26q-20 9 -36 -5l-18 -19q-9 -9 -21.5 -9t-20.5 8q-9 9 -9 21t8 21l30 31q30 30 78 12l63 -26q23 -11 38 4l18 19q2 2 5.5 4.5t15.5 5t22 -8.5
q9 -11 8 -23t-8 -19z" />
    <glyph glyph-name="Adieresis" unicode="&#xc4;" horiz-adv-x="630" 
d="M578 0h-14q-17 0 -29 8t-16 16l-4 8l-201 554l-109 -305h176q12 0 20.5 -6t11.5 -11l3 -6l15 -41q1 -3 2 -7.5t-5.5 -11.5t-22.5 -7h-232l-58 -159q-1 -4 -4 -9t-15.5 -14t-29.5 -9h-14q-25 0 -34 11t-6 23l3 11l241 622q1 1 2 3.5t5.5 8t10.5 10t17 8t24 3.5
q20 0 34.5 -8t18.5 -16l5 -9l242 -622q1 -2 2 -5t1 -10.5t-2.5 -13.5t-12 -11t-25.5 -5zM235 791h-9q-16 0 -27 11.5t-11 25.5v13q0 15 11 26.5t27 11.5h9q15 0 26 -11t11 -27v-13q0 -16 -11 -26.5t-26 -10.5zM404 791h-9q-16 0 -26.5 11.5t-10.5 25.5v13q0 15 10.5 26.5
t26.5 11.5h9q15 0 26 -11t11 -27v-13q0 -16 -11 -26.5t-26 -10.5z" />
    <glyph glyph-name="Aring" unicode="&#xc5;" horiz-adv-x="630" 
d="M578 0h-14q-17 0 -29 8t-16 16l-4 8l-201 554l-109 -305h176q12 0 21 -6t12 -11l3 -6l14 -41q1 -3 2 -7.5t-5.5 -11.5t-22.5 -7h-232l-58 -159q-1 -4 -4 -9t-15.5 -14t-29.5 -9h-14q-25 0 -34 11t-6 23l3 11l241 622q1 1 2 3.5t5.5 8t10.5 10t17 8t24 3.5q20 0 34.5 -8
t18.5 -16l5 -9l242 -622q1 -2 2 -5t1 -10.5t-2.5 -13.5t-12 -11t-25.5 -5zM315 767q-32 0 -55 23t-23 55q0 33 23 56t55 23t55 -23t23 -56q0 -32 -23 -55t-55 -23zM353 845q0 16 -11 27t-27 11t-27 -11t-11 -27t11 -26.5t27 -10.5t27 10.5t11 26.5z" />
    <glyph glyph-name="AE" unicode="&#xc6;" horiz-adv-x="946" 
d="M871 0h-333q-19 0 -31.5 14t-12.5 31v560l-215 -324h172q3 0 7.5 -0.5t11.5 -7t7 -18.5v-37q0 -12 -6.5 -19t-12.5 -7l-7 -1h-231l-105 -159q-19 -32 -52 -32h-28q-29 0 -37 13t5 32l413 622q20 33 55 33h400q17 0 31 -13t14 -32t-14 -32t-31 -13h-277v-213h186
q19 0 32 -13.5t13 -31.5t-13 -31.5t-32 -13.5h-186v-217h277q17 0 31 -13t14 -32t-14 -32t-31 -13z" />
    <glyph glyph-name="Ccedilla" unicode="&#xc7;" horiz-adv-x="705" 
d="M407 -77h-41q-17 -2 -19 17v51q-131 23 -216.5 121t-85.5 237q0 159 108 262t264 103q132 0 236 -79q16 -12 20 -32t-12 -41q-18 -18 -37 -17.5t-35 13.5q-73 62 -172 62q-112 0 -189 -77.5t-77 -193.5q0 -115 77 -192.5t189 -77.5q99 0 172 62q14 12 32 13.5t40 -16.5
q16 -22 12.5 -41.5t-20.5 -32.5q-103 -79 -236 -79q-17 0 -26 1v-21h17q32 0 55 -23t23 -56q0 -32 -22.5 -55.5t-57.5 -23.5q-33 0 -63 19q-10 7 -11.5 15.5t1.5 12.5l3 5q1 2 4 4t12.5 4.5t19.5 -5.5q19 -10 33 -10q18 0 27 10.5t9 25.5q0 14 -10 24.5t-24 10.5z" />
    <glyph glyph-name="Egrave" unicode="&#xc8;" horiz-adv-x="517" 
d="M442 0h-332q-19 0 -32 14t-13 31v610q0 20 13.5 32.5t31.5 12.5h332q18 0 31.5 -12.5t13.5 -32.5q0 -19 -14 -32t-31 -13h-277v-213h186q19 0 32 -13.5t13 -31.5t-13 -31.5t-32 -13.5h-186v-217h277q18 0 31.5 -12.5t13.5 -32.5t-13.5 -32.5t-31.5 -12.5zM329 770
l-136 78q-11 6 -14 17.5t3 22.5q7 11 18.5 14.5t22.5 -3.5q2 -1 67.5 -38.5t68.5 -39.5q11 -6 14 -17.5t-3 -22.5q-6 -10 -18.5 -13.5t-22.5 2.5z" />
    <glyph glyph-name="Eacute" unicode="&#xc9;" horiz-adv-x="518" 
d="M443 0h-333q-19 0 -32 14t-13 31v610q0 20 13.5 32.5t31.5 12.5h333q17 0 31 -13t14 -32t-14 -32t-31 -13h-278v-213h187q18 0 31 -13.5t13 -31.5t-13 -31.5t-31 -13.5h-187v-217h278q17 0 31 -13t14 -32t-14 -32t-31 -13zM194 821q1 1 67.5 39t68.5 39q11 7 22.5 3.5
t17.5 -14.5t3 -22.5t-14 -17.5q-3 -2 -68 -39.5t-68 -38.5q-11 -6 -22.5 -3t-17.5 14q-6 10 -3 22t14 18z" />
    <glyph glyph-name="Ecircumflex" unicode="&#xca;" horiz-adv-x="518" 
d="M443 0h-333q-19 0 -32 14t-13 31v610q0 20 13.5 32.5t31.5 12.5h333q17 0 31 -13t14 -32t-14 -32t-31 -13h-278v-213h187q18 0 31 -13.5t13 -31.5t-13 -31.5t-31 -13.5h-187v-217h278q17 0 31 -13t14 -32t-14 -32t-31 -13zM360 781l-84 48l-83 -48q-11 -6 -23 -3t-18 14
t-3 22.5t14 18.5q1 0 25 13.5t48 27.5t25 14q14 8 30 0q1 0 49 -27t50 -28q11 -7 14 -18.5t-3 -22.5q-6 -10 -18.5 -13.5t-22.5 2.5z" />
    <glyph glyph-name="Edieresis" unicode="&#xcb;" horiz-adv-x="517" 
d="M442 0h-332q-19 0 -32 14t-13 31v610q0 20 13.5 32.5t31.5 12.5h332q17 0 31 -13t14 -32t-14 -32t-31 -13h-277v-213h186q19 0 32 -13.5t13 -31.5t-13 -31.5t-32 -13.5h-186v-217h277q18 0 31.5 -12.5t13.5 -32.5q0 -19 -14 -32t-31 -13zM196 791h-9q-16 0 -27 11.5
t-11 25.5v13q0 15 11 26.5t27 11.5h9q15 0 26 -11t11 -27v-13q0 -16 -11 -26.5t-26 -10.5zM365 791h-9q-16 0 -26.5 11.5t-10.5 25.5v13q0 15 10.5 26.5t26.5 11.5h9q15 0 26 -11t11 -27v-13q0 -16 -11 -26.5t-26 -10.5z" />
    <glyph glyph-name="Igrave" unicode="&#xcc;" horiz-adv-x="228" 
d="M115 0h-10q-19 0 -32 14t-13 31v610q0 17 13 31t32 14h10q18 0 31.5 -13t13.5 -32v-610q0 -19 -13.5 -32t-31.5 -13zM57 899l136 -78q11 -6 14 -17.5t-4 -22.5q-6 -11 -17.5 -14t-22.5 3q-3 1 -68 38.5t-68 39.5q-11 6 -14 17.5t3 22.5t18 14.5t23 -3.5z" />
    <glyph glyph-name="Iacute" unicode="&#xcd;" horiz-adv-x="227" 
d="M123 0h-10q-19 0 -32 14t-13 31v610q0 17 13 31t32 14h10q18 0 31.5 -13t13.5 -32v-610q0 -19 -13.5 -32t-31.5 -13zM201 848l-136 -78q-11 -6 -23 -3t-18 14t-3 22.5t14 17.5q3 2 68.5 39.5t67.5 38.5q11 7 22.5 3.5t17.5 -14.5q7 -11 4 -22.5t-14 -17.5z" />
    <glyph glyph-name="Icircumflex" unicode="&#xce;" horiz-adv-x="259" 
d="M136 0h-11q-19 0 -32 14t-13 31v610q0 17 13 31t32 14h11q18 0 31 -13t13 -32v-610q0 -19 -13 -32t-31 -13zM214 781l-84 48l-84 -48q-11 -6 -22.5 -3t-17.5 14q-6 10 -3 22t14 19q1 0 25 14t48 27.5t25 13.5q14 8 30 0q1 0 49 -27t50 -28q11 -7 14 -18.5t-4 -22.5
q-6 -11 -17.5 -14t-22.5 3z" />
    <glyph glyph-name="Idieresis" unicode="&#xcf;" horiz-adv-x="232" 
d="M122 0h-11q-19 0 -31.5 14t-12.5 31v610q0 17 12.5 31t31.5 14h11q18 0 31 -13t13 -32v-610q0 -19 -13 -32t-31 -13zM206 791h-9q-17 0 -27.5 11.5t-10.5 25.5v13q0 15 10.5 26.5t27.5 11.5h9q15 0 26 -11t11 -27v-13q0 -16 -11 -26.5t-26 -10.5zM36 791h-9
q-16 0 -26.5 11.5t-10.5 25.5v13q0 15 10.5 26.5t26.5 11.5h9q15 0 26.5 -11t11.5 -27v-13q0 -15 -11.5 -26t-26.5 -11z" />
    <glyph glyph-name="Eth" unicode="&#xd0;" horiz-adv-x="770" 
d="M352 0h-180q-22 0 -34.5 14t-12.5 31v260h-61q-18 0 -31 13.5t-13 31.5t13 31.5t31 13.5h61v260q0 16 12 30.5t35 14.5h175q156 0 267 -98.5t111 -251.5q0 -152 -108 -251t-265 -99zM225 89h116q131 0 204 74.5t73 186.5t-79 186t-190 74h-124v-215h93q18 0 31 -13.5
t13 -31.5t-13 -31.5t-31 -13.5h-93v-216z" />
    <glyph glyph-name="Ntilde" unicode="&#xd1;" horiz-adv-x="732" 
d="M623 0h-35q-14 0 -27.5 8t-19.5 16l-6 8l-370 511v-498q0 -19 -13 -32t-31 -13h-11q-18 0 -31.5 13t-13.5 32v610q0 18 13 31.5t32 13.5h29q16 0 30.5 -8t20.5 -16l7 -9l370 -509v497q0 19 13.5 32t31.5 13h11q18 0 31 -13.5t13 -31.5v-610q0 -19 -12.5 -32t-31.5 -13z
M501 834l-31 -32q-3 -3 -9 -6.5t-26.5 -9t-42.5 5.5q-15 6 -63 26q-21 9 -37 -5q-17 -19 -18 -19q-9 -9 -21.5 -9t-20.5 8q-9 8 -9 20.5t9 21.5l29 31q30 30 78 12l63 -26q23 -11 38 4l18 18q2 2 5.5 4.5t15.5 5.5t22 -8q10 -12 8.5 -23.5t-8.5 -18.5z" />
    <glyph glyph-name="Ograve" unicode="&#xd2;" horiz-adv-x="834" 
d="M789 350q0 -158 -108 -261t-264 -103t-264 103t-108 261q0 159 108 262t264 103t264 -103t108 -262zM417 79q112 0 189 78t77 193t-77 193t-189 78t-189 -78t-77 -193t77 -193t189 -78zM468 770l-136 78q-11 6 -14 17.5t3 22.5q6 10 18.5 13.5t22.5 -2.5q2 -1 67.5 -38.5
t68.5 -39.5q11 -6 14 -17.5t-3 -22.5q-6 -10 -18.5 -13.5t-22.5 2.5z" />
    <glyph glyph-name="Oacute" unicode="&#xd3;" horiz-adv-x="834" 
d="M789 350q0 -158 -108 -261t-264 -103t-264 103t-108 261q0 159 108 262t264 103t264 -103t108 -262zM417 79q111 0 188 78t77 193t-77 193t-188 78q-112 0 -189 -78t-77 -193t77 -193t189 -78zM509 848l-136 -78q-10 -6 -22.5 -2.5t-18.5 13.5q-6 11 -3 22.5t14 17.5
q3 2 68.5 39.5t67.5 38.5q10 6 22.5 2.5t18.5 -13.5q6 -11 3 -22.5t-14 -17.5z" />
    <glyph glyph-name="Ocircumflex" unicode="&#xd4;" horiz-adv-x="834" 
d="M789 350q0 -158 -108 -261t-264 -103t-264 103t-108 261q0 159 108 262t264 103t264 -103t108 -262zM417 79q112 0 189 78t77 193t-77 193t-189 78t-189 -78t-77 -193t77 -193t189 -78zM501 781l-84 48l-84 -48q-11 -6 -22.5 -3t-17.5 14q-6 10 -3 22t14 18q1 1 48.5 28
t49.5 28q14 8 30 0q2 -1 49 -27.5t50 -28.5q11 -6 14 -17.5t-4 -22.5q-6 -11 -17.5 -14t-22.5 3z" />
    <glyph glyph-name="Otilde" unicode="&#xd5;" horiz-adv-x="833" 
d="M788 350q0 -158 -108 -261t-263 -103q-156 0 -264 103t-108 261q0 159 108 262t264 103t263.5 -103t107.5 -262zM417 79q111 0 188 78t77 193t-77 193t-188 78q-112 0 -189 -78t-77 -193t77 -193t189 -78zM551 834l-31 -32q-3 -3 -9 -6.5t-26.5 -9t-42.5 5.5q-1 0 -63 26
q-22 9 -36 -5l-19 -19q-8 -9 -20.5 -9t-21.5 8q-8 8 -8.5 20.5t8.5 21.5l29 31q30 30 79 12q1 -1 62 -26q24 -10 38 4l18 18q2 2 5.5 4.5t15.5 5.5t22 -8q10 -12 8.5 -23.5t-8.5 -18.5z" />
    <glyph glyph-name="Odieresis" unicode="&#xd6;" horiz-adv-x="834" 
d="M789 350q0 -158 -108 -261t-264 -103t-264 103t-108 261q0 159 108 262t264 103t264 -103t108 -262zM417 79q112 0 189 78t77 193t-77 193t-189 78q-111 0 -188 -78t-77 -193t77 -193t188 -78zM507 791h-9q-17 0 -27.5 11.5t-10.5 25.5v13q0 14 10.5 25.5t27.5 11.5h9
q15 0 26 -10.5t11 -26.5v-13q0 -16 -11 -26.5t-26 -10.5zM337 791h-9q-16 0 -26.5 11.5t-10.5 25.5v13q0 14 10.5 25.5t26.5 11.5h9q15 0 26 -10.5t11 -26.5v-13q0 -16 -11 -26.5t-26 -10.5z" />
    <glyph glyph-name="multiply" unicode="&#xd7;" horiz-adv-x="409" 
d="M292 194l-88 87l-87 -87q-13 -14 -32 -14t-32 14q-13 13 -13 31.5t13 31.5l88 88q-19 19 -42 41.5t-34 34t-12 11.5q-13 14 -13 32t13 32q13 13 32 13t32 -13q0 -1 11.5 -12t34 -34t41.5 -42l88 88q13 13 31.5 13t31.5 -13q13 -14 13 -32t-13 -32l-87 -87l87 -88
q13 -13 13 -31.5t-13 -31.5q-13 -14 -31.5 -14t-31.5 14z" />
    <glyph glyph-name="Oslash" unicode="&#xd8;" horiz-adv-x="834" 
d="M771 655l-68 -68q86 -99 86 -237q0 -158 -108 -261t-264 -103q-136 0 -236 78l-71 -70q-24 -24 -49 0q-11 13 -10.5 26t10.5 23l70 69q-86 99 -86 238q0 159 108 262t264 103q136 0 236 -80l69 69q24 24 49 0q11 -13 10.5 -26t-10.5 -23zM204 186l378 378q-71 57 -165 57
q-112 0 -189 -78t-77 -193q0 -92 53 -164zM630 514q-188 -190 -378 -378q71 -57 165 -57q111 0 188 78t77 193q0 93 -52 164z" />
    <glyph glyph-name="Ugrave" unicode="&#xd9;" horiz-adv-x="534" 
d="M288 -12h-42q-83 2 -134.5 54.5t-51.5 138.5v474q0 19 13 32t31 13h10q20 0 32.5 -13t12.5 -32v-474q0 -98 88 -98h40q88 0 88 98v474q0 19 12.5 32t32.5 13h9q18 0 31.5 -13t13.5 -32v-474q0 -86 -51.5 -138.5t-134.5 -54.5zM320 770l-136 78q-11 6 -14 17.5t3 22.5
q6 10 18.5 13.5t22.5 -2.5q2 -1 67.5 -38.5t68.5 -39.5q11 -6 14 -17.5t-3 -22.5q-6 -10 -18.5 -13.5t-22.5 2.5z" />
    <glyph glyph-name="Uacute" unicode="&#xda;" horiz-adv-x="534" 
d="M288 -12h-42q-83 2 -134.5 54.5t-51.5 138.5v474q0 19 13 32t31 13h10q19 0 32 -13t13 -32v-474q0 -98 88 -98h40q88 0 88 98v474q0 19 12.5 32t32.5 13h9q18 0 31.5 -13t13.5 -32v-474q0 -86 -51.5 -138.5t-134.5 -54.5zM360 848l-136 -78q-10 -6 -22.5 -2.5t-18.5 13.5
q-6 11 -3 22.5t14 17.5q3 2 68.5 39.5t67.5 38.5q10 6 22.5 2.5t18.5 -13.5q6 -11 3 -22.5t-14 -17.5z" />
    <glyph glyph-name="Ucircumflex" unicode="&#xdb;" horiz-adv-x="534" 
d="M289 -12h-43q-83 2 -134.5 54.5t-51.5 138.5v474q0 19 13.5 32t31.5 13h9q20 0 33 -13t13 -32v-474q0 -98 87 -98h40q88 0 88 98v474q0 19 13 32t32 13h10q18 0 31 -13t13 -32v-474q0 -86 -51 -138.5t-134 -54.5zM351 781l-84 48q-52 -32 -84 -48q-11 -6 -22.5 -3
t-17.5 14q-6 10 -3 22t14 18q1 1 48 28t50 28q14 8 30 0q2 -1 49 -27.5t50 -28.5q11 -6 14 -17.5t-3 -22.5q-6 -10 -18.5 -13.5t-22.5 2.5z" />
    <glyph glyph-name="Udieresis" unicode="&#xdc;" horiz-adv-x="535" 
d="M289 -12h-43q-83 2 -134.5 54.5t-51.5 138.5v474q0 19 13.5 32t31.5 13h9q20 0 33 -13t13 -32v-474q0 -98 87 -98h40q88 0 88 98v474q0 19 13 32t32 13h10q18 0 31.5 -13t13.5 -32v-474q0 -86 -51.5 -138.5t-134.5 -54.5zM357 791h-9q-17 0 -27.5 11.5t-10.5 25.5v13
q0 14 10.5 25.5t27.5 11.5h9q15 0 26 -10.5t11 -26.5v-13q0 -16 -11 -26.5t-26 -10.5zM187 791h-9q-16 0 -26.5 11.5t-10.5 25.5v13q0 14 10.5 25.5t26.5 11.5h9q15 0 26.5 -11t11.5 -26v-13q0 -15 -11.5 -26t-26.5 -11z" />
    <glyph glyph-name="Yacute" unicode="&#xdd;" horiz-adv-x="562" 
d="M287 0h-11q-19 0 -32 14t-13 31v290q-196 295 -212 320q-12 19 -3.5 32t34.5 13h29q15 0 28 -8t19 -16l5 -9l150 -227l151 227q20 33 58 33h20q27 0 36 -14t-3 -31l-212 -320v-290q0 -19 -13 -32t-31 -13zM404 848l-136 -78q-10 -6 -22.5 -2.5t-18.5 13.5q-6 11 -3 22.5
t14 17.5q3 2 68.5 39.5t67.5 38.5q10 6 22.5 2.5t18.5 -13.5q6 -11 3 -22.5t-14 -17.5z" />
    <glyph glyph-name="Thorn" unicode="&#xde;" horiz-adv-x="542" 
d="M295 138h-87q-3 0 -7.5 0.5t-11.5 7t-7 18.5v48q0 12 6.5 18.5t13.5 7.5h6h87q46 0 77 31t31 81t-31 81.5t-77 31.5h-87q-3 0 -7.5 0.5t-11.5 7t-7 18.5v48q0 12 6.5 18.5t13.5 6.5l6 1h87q93 0 155 -61.5t62 -151.5q0 -89 -62 -150.5t-155 -61.5zM121 0h-11
q-19 0 -32 14t-13 31v610q0 17 13 31t32 14h11q18 0 31 -13t13 -32v-610q0 -19 -13 -32t-31 -13z" />
    <glyph glyph-name="germandbls" unicode="&#xdf;" horiz-adv-x="579" 
d="M310 0h-90q-18 0 -31.5 13t-13.5 32q0 18 12.5 31.5t32.5 13.5h73q140 0 140 105q0 110 -156 110h-76q-3 0 -7.5 0.5t-11.5 7t-7 18.5v56q0 12 6.5 18.5t12.5 7.5l7 1h35q132 0 132 104q0 37 -28 64.5t-80 27.5q-45 0 -73 -27.5t-28 -74.5v-463q0 -19 -13.5 -32
t-31.5 -13h-9q-20 0 -32.5 13.5t-12.5 31.5v437q0 103 44.5 160.5t152.5 57.5q106 0 159 -52.5t53 -123.5q0 -46 -21 -88t-62 -62q75 -12 114 -58.5t39 -108.5q0 -55 -20 -96.5t-54 -65t-73 -34.5t-82 -11z" />
    <glyph glyph-name="agrave" unicode="&#xe0;" horiz-adv-x="468" 
d="M374 0h-175q-67 0 -112.5 40.5t-45.5 100.5q0 82 81 128q57 33 200 33q-1 1 0.5 9.5t-3 22.5t-11.5 27t-26 22.5t-45 9.5q-30 0 -69 -13q-18 -6 -35.5 1.5t-23.5 27.5q-5 16 3 32.5t26 22.5q52 18 109 18q78 0 124.5 -47t46.5 -134v-256q0 -18 -12.5 -31.5t-31.5 -13.5z
M322 83v134q-105 0 -148 -24q-35 -20 -35 -56q0 -54 76 -54h107zM331 563q-6 -10 -18.5 -13.5t-22.5 2.5q-3 2 -68.5 39.5t-67.5 38.5q-10 6 -13.5 18.5t2.5 22.5t18.5 13.5t22.5 -2.5q3 -2 68.5 -39.5t67.5 -38.5q11 -7 14 -18.5t-3 -22.5z" />
    <glyph glyph-name="aacute" unicode="&#xe1;" horiz-adv-x="468" 
d="M374 0h-176q-67 0 -112 40.5t-45 100.5q0 82 80 128q59 33 200 33q-1 1 0.5 9.5t-3 22.5t-11.5 27t-25.5 22.5t-44.5 9.5q-29 0 -70 -13q-17 -6 -34.5 1.5t-23.5 27.5q-5 16 3 32.5t26 22.5q52 18 108 18q79 0 125.5 -47t46.5 -134v-256q0 -18 -12.5 -31.5t-31.5 -13.5z
M321 83v134q-104 0 -148 -24q-34 -20 -34 -56q0 -54 76 -54h106zM333 630q-2 -1 -65.5 -37.5t-70.5 -40.5q-11 -6 -22.5 -3t-17.5 14t-3 22.5t14 18.5q2 1 67.5 38.5t68.5 39.5q11 6 22.5 3t17.5 -14q6 -10 3 -22.5t-14 -18.5z" />
    <glyph glyph-name="acircumflex" unicode="&#xe2;" horiz-adv-x="468" 
d="M373 0h-175q-67 0 -112 40.5t-45 100.5q0 82 80 128q59 33 200 33q-1 1 0.5 9.5t-3 22.5t-11.5 27t-25.5 22.5t-44.5 9.5q-29 0 -70 -13q-17 -6 -34.5 1.5t-23.5 27.5q-5 16 3 32.5t26 22.5q52 18 108 18q79 0 125.5 -47t46.5 -134v-256q0 -18 -12.5 -31.5t-32.5 -13.5z
M321 83v134q-104 0 -148 -24q-34 -20 -34 -56q0 -54 76 -54h106zM335 563l-84 48l-84 -48q-11 -6 -22.5 -3t-18.5 14q-6 10 -2.5 22.5t13.5 18.5q2 1 49 27.5t50 28.5q14 8 30 0l98 -56q11 -6 14 -18.5t-3 -22.5q-6 -11 -17.5 -14t-22.5 3z" />
    <glyph glyph-name="atilde" unicode="&#xe3;" horiz-adv-x="468" 
d="M373 0h-175q-67 0 -112 40.5t-45 100.5q0 82 80 128q59 33 200 33q-1 1 0.5 9.5t-3 22.5t-11.5 27t-25.5 22.5t-44.5 9.5q-31 0 -70 -13q-17 -6 -34.5 1.5t-23.5 27.5q-5 16 3 32.5t26 22.5q52 18 108 18q79 0 125.5 -47t46.5 -134v-256q0 -18 -12.5 -31.5t-32.5 -13.5z
M321 83v134q-104 0 -148 -24q-34 -20 -34 -56q0 -54 76 -54h106zM384 616l-31 -32q-3 -3 -9 -6.5t-26.5 -9t-42.5 5.5q-15 5 -63 27q-23 8 -36 -6l-19 -19q-8 -9 -20.5 -9t-21.5 9q-8 8 -8.5 20.5t8.5 21.5l29 30q31 31 78 13q12 -6 63 -27q24 -9 38 5l18 18q2 2 5.5 4.5
t15.5 5t22 -8.5t8.5 -23t-8.5 -19z" />
    <glyph glyph-name="adieresis" unicode="&#xe4;" horiz-adv-x="468" 
d="M373 0h-175q-67 0 -112 40.5t-45 100.5q0 82 80 128q59 33 200 33q-1 1 0.5 9.5t-3 22.5t-11.5 27t-25.5 22.5t-44.5 9.5q-29 0 -70 -13q-17 -6 -34.5 1.5t-23.5 27.5q-5 16 3 32.5t26 22.5q52 18 108 18q79 0 125.5 -47t46.5 -134v-256q0 -18 -12.5 -31.5t-32.5 -13.5z
M321 83v134q-104 0 -148 -24q-34 -20 -34 -56q0 -54 76 -54h106zM331 573h-9q-17 0 -27.5 11.5t-10.5 26.5v12q0 15 10.5 26.5t27.5 11.5h9q15 0 26 -11t11 -27v-12q0 -16 -11 -27t-26 -11zM161 573h-9q-16 0 -26.5 11.5t-10.5 26.5v12q0 15 10.5 26.5t26.5 11.5h9
q15 0 26 -11t11 -27v-12q0 -16 -11 -27t-26 -11z" />
    <glyph glyph-name="aring" unicode="&#xe5;" horiz-adv-x="468" 
d="M373 0h-175q-67 0 -112 40.5t-45 100.5q0 82 80 128q59 33 200 33q-1 1 0.5 9.5t-3 22.5t-11.5 27t-25.5 22.5t-44.5 9.5q-29 0 -70 -13q-17 -6 -34.5 1.5t-23.5 27.5q-5 16 3 32.5t26 22.5q52 18 108 18q79 0 125.5 -47t46.5 -134v-256q0 -18 -12.5 -31.5t-32.5 -13.5z
M321 83v134q-104 0 -148 -24q-34 -20 -34 -56q0 -54 76 -54h106zM247 549q-32 0 -55 23.5t-23 55.5t23 55t55 23t55 -23t23 -55t-23 -55.5t-55 -23.5zM247 590q16 0 27 11t11 27t-11 27t-27 11t-27 -11t-11 -27t11 -27t27 -11z" />
    <glyph glyph-name="ae" unicode="&#xe6;" horiz-adv-x="807" 
d="M701 208h-275q6 -67 50 -100t113 -33q28 0 79 17q17 6 35 -2t24 -27q5 -16 -3 -33t-26 -23q-59 -20 -110 -20q-104 0 -170 49q-3 -15 -15 -25.5t-29 -10.5h-175q-67 0 -112.5 40.5t-45.5 100.5q0 82 80 128q59 33 200 33q-1 1 0.5 9.5t-3 22.5t-11.5 27t-25.5 22.5
t-44.5 9.5q-29 0 -70 -13q-17 -6 -34.5 1.5t-23.5 27.5q-5 16 3 32.5t26 22.5q52 18 108 18q94 0 140 -64q61 64 165 64q80 0 144.5 -47t79.5 -139q7 -40 -11.5 -62t-40.5 -24zM321 83v134q-104 0 -147 -24q-35 -19 -35 -56q0 -54 76 -54h106zM427 290h249q-4 47 -37 78
t-85 31q-62 0 -91 -32t-36 -77z" />
    <glyph glyph-name="ccedilla" unicode="&#xe7;" horiz-adv-x="465" 
d="M280 -77h-41q-17 -2 -18 17v55q-79 21 -130 83t-51 156q0 116 74.5 182t177.5 66q65 0 110 -18q24 -9 31 -28t-1 -31q-17 -38 -57 -27q-40 14 -78 14q-61 0 -108 -39.5t-47 -118.5q0 -78 47 -117.5t108 -39.5q41 0 78 13q40 11 57 -26q8 -12 1 -31t-31 -28
q-48 -19 -110 -19q-8 0 -28 2v-23h17q32 0 55 -23t23 -56q0 -32 -22.5 -55.5t-57.5 -23.5q-33 0 -63 19q-10 7 -11.5 15.5t1.5 12.5l3 5q1 2 4 4t12.5 4.5t20.5 -5.5q19 -11 33 -11q17 0 26 11t9 26q0 14 -10 24.5t-24 10.5z" />
    <glyph glyph-name="egrave" unicode="&#xe8;" horiz-adv-x="525" 
d="M419 208h-275q6 -67 50 -100t113 -33q27 0 80 17q17 6 34.5 -2t23.5 -27q5 -16 -3 -33t-26 -23q-59 -20 -110 -20q-126 0 -196 70.5t-70 180.5q0 104 58.5 174t170.5 70q80 0 144.5 -47t79.5 -139q7 -40 -11.5 -62t-40.5 -24zM145 290h249q-4 47 -37 78t-85 31
q-62 0 -91 -32t-36 -77zM215 682q1 -1 66.5 -39t68.5 -39q11 -7 14 -19t-3 -22q-6 -11 -17.5 -14t-22.5 3q-7 4 -70.5 40.5t-65.5 37.5q-10 6 -13.5 18.5t2.5 22.5q6 11 18 14t23 -3z" />
    <glyph glyph-name="eacute" unicode="&#xe9;" horiz-adv-x="524" 
d="M419 208h-276q6 -67 50.5 -100t112.5 -33q27 0 80 17q17 6 34.5 -2t23.5 -27q5 -16 -3 -33t-26 -23q-59 -20 -109 -20q-127 0 -196.5 70.5t-69.5 180.5q0 104 58 174t170 70q81 0 145.5 -47t78.5 -139q7 -40 -11.5 -62t-40.5 -24zM144 290h249q-3 46 -36.5 77.5
t-85.5 31.5q-62 0 -91 -32t-36 -77zM350 630q-2 -1 -67.5 -38.5t-68.5 -39.5q-10 -6 -22.5 -2.5t-18.5 13.5q-6 11 -3 22.5t14 18.5q2 1 67.5 38.5t68.5 39.5q10 6 22.5 2.5t18.5 -13.5t2.5 -22.5t-13.5 -18.5z" />
    <glyph glyph-name="ecircumflex" unicode="&#xea;" horiz-adv-x="524" 
d="M419 208h-276q6 -67 50.5 -100t112.5 -33q27 0 80 17q17 6 34.5 -2t23.5 -27q5 -16 -3 -33t-26 -23q-59 -20 -109 -20q-127 0 -196.5 70.5t-69.5 180.5q0 104 58 174t170 70q81 0 145.5 -47t78.5 -139q7 -40 -11.5 -62t-40.5 -24zM144 290h249q-3 46 -36.5 77.5
t-85.5 31.5q-62 0 -91 -32t-36 -77zM351 563l-84 48l-84 -48q-11 -6 -22.5 -3t-18.5 14q-6 10 -2.5 22.5t13.5 18.5q2 1 49 27.5t50 28.5q14 8 30 0l98 -56q11 -6 14 -18.5t-3 -22.5q-6 -11 -17.5 -14t-22.5 3z" />
    <glyph glyph-name="edieresis" unicode="&#xeb;" horiz-adv-x="525" 
d="M419 208h-275q5 -67 49.5 -100t113.5 -33q28 0 79 17q17 6 34.5 -2t24.5 -27q5 -16 -3.5 -33t-25.5 -23q-59 -20 -110 -20q-126 0 -196 70.5t-70 180.5q0 104 58.5 174t170.5 70q80 0 144.5 -47t79.5 -139q6 -40 -12.5 -62t-40.5 -24zM145 290h248q-3 46 -36.5 77.5
t-84.5 31.5q-62 0 -91 -32t-36 -77zM357 573h-9q-17 0 -27.5 11.5t-10.5 26.5v12q0 15 10.5 26.5t27.5 11.5h9q15 0 26 -11t11 -27v-12q0 -16 -11 -27t-26 -11zM187 573h-8q-17 0 -27.5 11.5t-10.5 26.5v12q0 15 10.5 26.5t27.5 11.5h8q15 0 26.5 -11t11.5 -27v-12
q0 -16 -11.5 -27t-26.5 -11z" />
    <glyph glyph-name="igrave" unicode="&#xec;" horiz-adv-x="220" 
d="M116 0h-11q-19 0 -32 14t-13 31v382q0 17 13 31t32 14h11q18 0 31 -13t13 -32v-382q0 -19 -13 -32t-31 -13zM37 682l136 -78q11 -7 14 -19t-3 -22q-6 -11 -17.5 -14t-22.5 3q-123 74 -136 78q-10 6 -13.5 18.5t2.5 22.5q6 11 17.5 14t22.5 -3z" />
    <glyph glyph-name="iacute" unicode="&#xed;" horiz-adv-x="220" 
d="M115 0h-10q-19 0 -32 14t-13 31v382q0 17 13 31t32 14h10q18 0 31.5 -13t13.5 -32v-382q0 -19 -13.5 -32t-31.5 -13zM40 604l136 78q11 6 22.5 3t17.5 -14q6 -10 3 -22.5t-14 -18.5q-2 -1 -65.5 -37.5t-70.5 -40.5q-11 -6 -22.5 -3t-17.5 14q-6 10 -3 22t14 19z" />
    <glyph glyph-name="icircumflex" unicode="&#xee;" horiz-adv-x="220" 
d="M115 0h-10q-19 0 -32 14t-13 31v382q0 17 13 31t32 14h10q18 0 31.5 -13t13.5 -32v-382q0 -19 -13.5 -32t-31.5 -13zM194 563l-84 48l-84 -48q-11 -6 -22.5 -3t-18.5 14q-6 10 -2.5 22.5t13.5 18.5q2 1 49 27.5t50 28.5q14 8 30 0l98 -56q11 -6 14 -18.5t-3 -22.5
q-6 -11 -17.5 -14t-22.5 3z" />
    <glyph glyph-name="idieresis" unicode="&#xef;" horiz-adv-x="220" 
d="M116 0h-11q-19 0 -32 14t-13 31v382q0 17 13 31t32 14h11q18 0 31 -13t13 -32v-382q0 -19 -13 -32t-31 -13zM200 573h-9q-17 0 -27.5 11.5t-10.5 26.5v12q0 15 10.5 26.5t27.5 11.5h9q15 0 26 -11t11 -27v-12q0 -16 -11 -27t-26 -11zM30 573h-9q-16 0 -26.5 11.5
t-10.5 26.5v12q0 15 10.5 26.5t26.5 11.5h9q15 0 26 -11t11 -27v-12q0 -16 -11 -27t-26 -11z" />
    <glyph glyph-name="eth" unicode="&#xf0;" horiz-adv-x="554" 
d="M388 296l-139 247l-62 -35q-11 -6 -22.5 -3t-17.5 14t-3 22.5t14 18.5q1 0 62 34l-32 59q-11 20 -0.5 32.5t38.5 12.5h15q35 0 54 -33l12 -22q47 25 50 28q11 6 22.5 3t17.5 -14q6 -10 3 -22.5t-14 -18.5l-49 -28l138 -244q39 -75 39 -124q0 -108 -64 -172.5t-168 -64.5
q-107 0 -174.5 71.5t-67.5 165.5q0 95 59.5 157t130.5 73q27 4 37.5 -0.5t20.5 -20.5l15 -28q8 -22 2.5 -31.5t-17.5 -10.5l-11 -2q-56 0 -96.5 -40t-40.5 -97q0 -55 39.5 -95.5t97.5 -40.5q59 0 97 37.5t38 90.5q0 30 -24 81z" />
    <glyph glyph-name="ntilde" unicode="&#xf1;" horiz-adv-x="556" 
d="M462 0h-8q-17 0 -30.5 13t-13.5 32v211q0 56 -24.5 89.5t-80.5 44t-148 -18.5v-326q0 -18 -13 -31.5t-32 -13.5h-7q-18 0 -31.5 12.5t-13.5 32.5v382q0 18 13 31.5t32 13.5h52q50 10 131 10q30 0 57 -5t57.5 -20t52.5 -39t36.5 -67t14.5 -100v-206q0 -20 -13.5 -32.5
t-30.5 -12.5zM413 616l-32 -32q-3 -3 -9 -6.5t-26.5 -9t-42.5 5.5q-15 5 -63 27q-23 8 -36 -6l-19 -19q-8 -9 -20.5 -9t-21.5 9q-8 8 -8.5 20.5t8.5 21.5l29 30q32 31 79 13q12 -6 63 -27q24 -9 38 5l17 18q2 2 5.5 4.5t15.5 5t22 -8.5t9 -22.5t-8 -19.5z" />
    <glyph glyph-name="ograve" unicode="&#xf2;" horiz-adv-x="586" 
d="M214 685q1 -1 67.5 -39t68.5 -39q11 -7 14 -18.5t-4 -22.5q-6 -11 -17.5 -14t-22.5 3q-122 73 -136 78q-10 6 -13.5 18.5t2.5 22.5q6 11 18 14t23 -3zM546 235q0 -104 -72 -176t-181 -72t-181 71.5t-72 176.5t72 176.5t181 71.5t181 -72t72 -176zM293 77q65 0 108.5 44
t43.5 114t-43.5 114t-108.5 44t-108.5 -44t-43.5 -114t43.5 -114t108.5 -44z" />
    <glyph glyph-name="oacute" unicode="&#xf3;" horiz-adv-x="586" 
d="M546 235q0 -105 -72 -176.5t-181 -71.5t-181 72t-72 176t72 176t181 72t181 -71.5t72 -176.5zM293 77q65 0 108.5 44t43.5 114t-43.5 114t-108.5 44t-108 -44t-43 -114t43 -114t108 -44zM235 607l136 78q11 6 22.5 3t17.5 -14q6 -10 2.5 -22.5t-13.5 -18.5
q-13 -5 -136 -78q-11 -6 -22.5 -3t-17.5 14q-6 10 -3 22t14 19z" />
    <glyph glyph-name="ocircumflex" unicode="&#xf4;" horiz-adv-x="587" 
d="M547 235q0 -104 -72.5 -176t-181.5 -72t-181 72t-72 176t72 176t181 72t181.5 -72t72.5 -176zM293 77q65 0 108.5 44t43.5 114t-43.5 114t-108.5 44t-108 -44t-43 -114t43 -114t108 -44zM378 566l-84 48l-83 -48q-11 -6 -23 -3t-18 14q-6 10 -2.5 22.5t13.5 18.5
q2 1 49.5 28t48.5 28q14 8 30 0q3 -2 50 -28.5t49 -27.5q10 -6 13.5 -18.5t-2.5 -22.5t-18.5 -13.5t-22.5 2.5z" />
    <glyph glyph-name="otilde" unicode="&#xf5;" horiz-adv-x="586" 
d="M429 619l-31 -32q-3 -3 -9 -6.5t-27 -9t-43 5.5q-18 7 -63 27q-23 8 -36 -6q-17 -17 -18 -19q-9 -9 -21.5 -9t-20.5 9q-9 8 -9 20.5t8 21.5l30 30q31 31 78 13q12 -6 63 -27q25 -10 38 5l17 18q2 2 6 4.5t15.5 5t21.5 -8.5t9 -22.5t-8 -19.5zM546 235q0 -104 -72 -176
t-181 -72t-181 71.5t-72 176.5t72 176.5t181 71.5t181 -72t72 -176zM293 77q65 0 108.5 44t43.5 114t-43.5 114t-108.5 44t-108.5 -44t-43.5 -114t43.5 -114t108.5 -44z" />
    <glyph glyph-name="odieresis" unicode="&#xf6;" horiz-adv-x="587" 
d="M547 235q0 -104 -72 -176t-181 -72t-181.5 72t-72.5 176t72.5 176t181.5 72t181 -72t72 -176zM294 77q65 0 108 44t43 114t-43 114t-108 44t-108.5 -44t-43.5 -114t43.5 -114t108.5 -44zM215 576h-9q-17 0 -27.5 11.5t-10.5 26.5v12q0 15 10.5 26.5t27.5 11.5h9
q15 0 26 -11t11 -27v-12q0 -16 -11 -27t-26 -11zM384 576h-9q-16 0 -27 11.5t-11 26.5v12q0 15 11 26.5t27 11.5h9q15 0 26 -11t11 -27v-12q0 -16 -11 -27t-26 -11z" />
    <glyph glyph-name="divide" unicode="&#xf7;" horiz-adv-x="487" 
d="M412 295h-337q-19 0 -32 13.5t-13 31.5t13 31.5t32 13.5h337q19 0 32 -13.5t13 -31.5t-13 -31.5t-32 -13.5zM249 447h-11q-18 0 -31 13t-13 32v15q0 19 13 32t31 13h11q19 0 31.5 -14t12.5 -31v-15q0 -17 -12.5 -31t-31.5 -14zM249 128h-11q-18 0 -31 13t-13 32v15
q0 19 13 32t31 13h11q19 0 31.5 -14t12.5 -31v-15q0 -17 -12.5 -31t-31.5 -14z" />
    <glyph glyph-name="oslash" unicode="&#xf8;" horiz-adv-x="634" 
d="M464 440l70 70q24 24 49 0q11 -13 10.5 -26t-10.5 -23q-27 -26 -68 -67q56 -67 56 -159q0 -105 -72 -176.5t-181 -71.5q-90 0 -158 52l-60 -60q-10 -10 -23 -10.5t-26 10.5q-11 13 -10.5 26t10.5 23l61 60q-47 64 -47 147q0 104 72 176t181 72q81 0 146 -43zM446 324
l-219 -218q38 -29 91 -29q65 0 108.5 44t43.5 114q0 49 -24 89zM183 159l213 213q-33 21 -78 21q-65 0 -108.5 -44t-43.5 -114q0 -42 17 -76z" />
    <glyph glyph-name="ugrave" unicode="&#xf9;" horiz-adv-x="557" 
d="M452 0h-52q-63 -14 -132 -14q-30 0 -57 4.5t-58 19t-52.5 38.5t-36 66.5t-14.5 99.5v213q0 20 13.5 32.5t31.5 12.5h7q18 0 31.5 -12.5t13.5 -32.5v-219q0 -56 24 -89.5t80.5 -44t148.5 18.5v334q0 18 12.5 31.5t31.5 13.5h8q17 0 31 -13t14 -32v-382q0 -18 -13 -31.5
t-32 -13.5zM367 566q-6 -11 -18 -14t-23 3q-3 2 -68.5 39.5t-67.5 38.5q-10 6 -13.5 18.5t2.5 22.5q7 11 18.5 14t22.5 -3q3 -2 68.5 -39.5t67.5 -38.5q11 -7 14 -18.5t-3 -22.5z" />
    <glyph glyph-name="uacute" unicode="&#xfa;" horiz-adv-x="556" 
d="M452 0h-53q-63 -14 -131 -14q-30 0 -57 4.5t-58 19t-52.5 38.5t-36 66.5t-14.5 99.5v213q0 20 13.5 32.5t30.5 12.5h8q17 0 31 -13t14 -32v-219q0 -56 24 -89.5t80 -44t148 18.5v334q0 18 13 31.5t32 13.5h8q17 0 30.5 -13t13.5 -32v-382q0 -18 -13 -31.5t-31 -13.5z
M356 633q-2 -1 -67.5 -38.5t-68.5 -39.5q-10 -6 -22.5 -2.5t-18.5 13.5q-6 11 -3 22.5t14 18.5q2 1 67.5 38.5t68.5 39.5q10 6 22.5 2.5t18.5 -13.5t2.5 -22.5t-13.5 -18.5z" />
    <glyph glyph-name="ucircumflex" unicode="&#xfb;" horiz-adv-x="557" 
d="M452 0h-52q-63 -14 -132 -14q-30 0 -57 4.5t-58 19t-52.5 38.5t-36 66.5t-14.5 99.5v213q0 20 13.5 32.5t31.5 12.5h7q18 0 31.5 -12.5t13.5 -32.5v-219q0 -56 24 -89.5t80.5 -44t148.5 18.5v334q0 18 13 31.5t32 13.5h7q18 0 31.5 -12.5t13.5 -32.5v-382
q0 -18 -13 -31.5t-32 -13.5zM357 566l-84 48l-83 -48q-11 -6 -23 -3t-18 14q-6 10 -2.5 22.5t13.5 18.5q2 1 49.5 28t48.5 28q14 8 30 0q3 -2 50 -28.5t49 -27.5q10 -6 13.5 -18.5t-2.5 -22.5t-18.5 -13.5t-22.5 2.5z" />
    <glyph glyph-name="udieresis" unicode="&#xfc;" horiz-adv-x="557" 
d="M452 0h-52q-63 -14 -132 -14q-30 0 -57 4.5t-57.5 19t-52.5 38.5t-36.5 66.5t-14.5 99.5v213q0 20 14 32.5t31 12.5h7q18 0 31.5 -12.5t13.5 -32.5v-219q0 -56 24.5 -89.5t80.5 -44t148 18.5v334q0 18 13 31.5t32 13.5h7q18 0 31.5 -12.5t13.5 -32.5v-382
q0 -18 -13 -31.5t-32 -13.5zM194 576h-9q-17 0 -27.5 11.5t-10.5 26.5v12q0 15 10.5 26.5t27.5 11.5h9q15 0 26 -11t11 -27v-12q0 -16 -11 -27t-26 -11zM363 576h-9q-16 0 -27 11.5t-11 26.5v12q0 15 11 26.5t27 11.5h9q15 0 26 -11t11 -27v-12q0 -16 -11 -27t-26 -11z" />
    <glyph glyph-name="yacute" unicode="&#xfd;" horiz-adv-x="519" 
d="M66 -221h-39q-18 0 -31.5 12.5t-13.5 32.5q0 18 12.5 31.5t32.5 13.5h28q35 0 57.5 14.5t41.5 53.5l61 122q-173 341 -186 368q-10 20 -0.5 32.5t33.5 12.5h15q16 0 28 -8t16 -16l4 -9l140 -280l140 280q14 33 42 33h20q27 0 36 -12t-2 -33l-264 -521q-35 -69 -75 -98
t-96 -29zM186 607l136 78q11 6 22.5 3t17.5 -14q6 -10 2.5 -22.5t-13.5 -18.5q-13 -5 -136 -78q-11 -6 -22.5 -3t-17.5 14q-6 10 -3 22t14 19z" />
    <glyph glyph-name="thorn" unicode="&#xfe;" horiz-adv-x="586" 
d="M116 -202h-11q-19 0 -32 14t-13 31v815q0 17 13 31t32 14h11q18 0 31 -13t13 -32v-232q63 46 145 46q103 0 172 -68.5t69 -167.5t-69 -167.5t-172 -68.5q-82 0 -145 46v-203q0 -19 -13 -32t-31 -13zM305 86q62 0 103 42t41 108t-41 108t-103 42t-103 -42t-41 -108
t41 -108t103 -42z" />
    <glyph glyph-name="ydieresis" unicode="&#xff;" horiz-adv-x="518" 
d="M66 -221h-40q-17 0 -30.5 12.5t-13.5 32.5q0 18 12 31.5t32 13.5h29q35 0 57.5 14.5t41.5 53.5l61 122q-173 341 -187 368q-10 20 0 32.5t34 12.5h14q16 0 28 -8t16 -16l5 -9l139 -280l140 280q14 33 43 33h20q55 0 33 -45l-263 -521q-35 -69 -75 -98t-96 -29zM180 576
h-9q-17 0 -27.5 11.5t-10.5 26.5v12q0 15 10.5 26.5t27.5 11.5h9q15 0 26 -11t11 -27v-12q0 -16 -11 -27t-26 -11zM349 576h-9q-16 0 -26.5 11.5t-10.5 26.5v12q0 15 10.5 26.5t26.5 11.5h9q15 0 26 -11t11 -27v-12q0 -16 -11 -27t-26 -11z" />
    <glyph glyph-name="Amacron" unicode="&#x100;" horiz-adv-x="629" 
d="M577 0h-13q-17 0 -29.5 8t-16.5 16l-4 8l-200 554l-109 -305h175q12 0 21 -6t12 -11l3 -6l15 -41q1 -3 1.5 -7.5t-5.5 -11.5t-22 -7h-233l-58 -159q0 -1 -1 -3.5t-5 -8t-9 -9.5t-14 -7.5t-20 -3.5h-13q-25 0 -34.5 11t-6.5 23l3 11l242 622q1 1 2 3.5t5.5 8t10.5 10
t16.5 8t23.5 3.5q20 0 35 -8t19 -16l5 -9l242 -622q1 -2 1.5 -5t1 -10.5t-2.5 -13.5t-12.5 -11t-25.5 -5zM393 803h-157q-12 0 -21 8.5t-9 20.5t9 21t21 9h157q12 0 21 -9t9 -21t-9 -20.5t-21 -8.5z" />
    <glyph glyph-name="amacron" unicode="&#x101;" horiz-adv-x="468" 
d="M374 0h-175q-67 0 -112.5 40.5t-45.5 99.5q0 83 81 128q60 34 200 34q-1 1 0.5 9.5t-3 22t-11.5 26.5t-26 22.5t-45 9.5q-30 0 -69 -13q-17 -6 -35 2t-24 27q-5 16 3 33t26 23q54 18 109 18q78 0 124.5 -47t46.5 -134v-257q0 -18 -12.5 -31t-31.5 -13zM322 83v134
q-103 0 -148 -24q-35 -20 -35 -57q0 -53 76 -53h107zM336 583h-156q-13 0 -21.5 9t-8.5 21t8.5 21t21.5 9h156q13 0 21.5 -9t8.5 -21t-8.5 -21t-21.5 -9z" />
    <glyph glyph-name="Abreve" unicode="&#x102;" horiz-adv-x="630" 
d="M578 0h-14q-17 0 -29 8t-16 16l-4 8l-200 554l-110 -305h176q12 0 21 -6t12 -11l3 -6l14 -41q1 -3 2 -7.5t-5 -11.5t-22 -7h-233l-58 -159q-1 -4 -4 -9t-15.5 -14t-29.5 -9h-13q-25 0 -34.5 11t-6.5 23l3 11l241 622q1 1 2 3.5t5.5 8t10.5 10t17 8t24 3.5q20 0 34.5 -8
t19.5 -16l5 -9l241 -622q1 -2 2 -5t1 -10.5t-2.5 -13.5t-12 -11t-25.5 -5zM403 905h14q11 0 16.5 -9t4.5 -18q-9 -42 -43.5 -70t-79.5 -28t-80 29t-43 74q-1 7 3.5 14.5t16.5 7.5h18q14 0 21 -21t24.5 -34t39.5 -13t40 13.5t24 33.5q7 21 24 21z" />
    <glyph glyph-name="abreve" unicode="&#x103;" horiz-adv-x="468" 
d="M373 0h-175q-67 0 -112 40.5t-45 99.5q0 84 80 128q60 34 200 34q-1 1 0.5 9.5t-3 22t-11.5 26.5t-25.5 22.5t-44.5 9.5q-31 0 -70 -13q-17 -6 -34.5 2t-23.5 27q-5 16 2.5 33t25.5 23q54 18 109 18q78 0 125 -47t47 -134v-257q0 -18 -13 -31t-32 -13zM321 83v134
q-103 0 -148 -24q-34 -20 -34 -57q0 -53 76 -53h106zM344 685h13q12 0 17.5 -9t3.5 -17q-9 -43 -43.5 -71t-78.5 -28q-46 0 -80.5 29.5t-42.5 73.5q-1 7 3.5 14.5t16.5 7.5h18q15 0 21 -21q7 -20 24.5 -33t39.5 -13t39.5 13t24.5 34q7 20 24 20z" />
    <glyph glyph-name="Aogonek" unicode="&#x104;" horiz-adv-x="675" 
d="M604 5v-5q0 -42 26.5 -69t65.5 -27q11 0 19 -7.5t8 -19.5t-8.5 -19.5t-18.5 -7.5q-66 0 -109.5 43t-43.5 107v4q-9 4 -16 11t-9 12l-3 5l-200 554l-110 -305h176q12 0 21 -6t12 -11l3 -6l15 -41q1 -3 1.5 -7.5t-5.5 -11.5t-22 -7h-233l-58 -159q0 -1 -1 -3.5t-5 -8
t-9 -9.5t-14 -7.5t-20 -3.5h-13q-25 0 -34.5 11t-6.5 23l3 11l242 622q1 1 2 3.5t5.5 8t10.5 10t16.5 8t23.5 3.5q20 0 35 -8t20 -16l4 -9l242 -622q11 -28 -12 -40z" />
    <glyph glyph-name="aogonek" unicode="&#x105;" horiz-adv-x="485" 
d="M315 0h-117q-67 0 -112 40.5t-45 99.5q0 84 80 128q60 34 200 34q-1 1 0.5 9.5t-3 22t-11.5 26.5t-25.5 22.5t-44.5 9.5q-31 0 -70 -13q-17 -6 -34.5 2t-23.5 27q-5 16 2.5 33t25.5 23q54 18 109 18q78 0 125 -47t47 -134v-257q0 -17 -11.5 -30t-29.5 -14q0 -42 26.5 -69
t65.5 -27q11 0 19 -7.5t8 -19.5t-8.5 -20t-18.5 -8q-66 0 -109.5 43.5t-44.5 107.5zM321 83v134q-103 0 -148 -24q-34 -20 -34 -57q0 -53 76 -53h106z" />
    <glyph glyph-name="Cacute" unicode="&#x106;" horiz-adv-x="705" 
d="M487 849q-1 -1 -67.5 -38.5t-68.5 -39.5q-10 -6 -22.5 -2.5t-18.5 13.5q-6 11 -3 22.5t14 18.5q2 1 67.5 38.5t68.5 39.5q11 6 22.5 3t18.5 -14q6 -10 2.5 -22.5t-13.5 -18.5zM661 139q16 -23 12.5 -42.5t-20.5 -32.5q-101 -79 -236 -79q-156 0 -264 103t-108 262
t108 262t264 103q134 0 236 -79q16 -12 20 -32.5t-11 -41.5q-19 -18 -38 -17.5t-35 13.5q-73 63 -172 63q-111 0 -188 -78t-77 -193t77 -193t188 -78q100 0 172 63q15 12 32.5 13t39.5 -16z" />
    <glyph glyph-name="cacute" unicode="&#x107;" horiz-adv-x="464" 
d="M195 603q1 1 66.5 39t68.5 39q11 7 23 4t18 -14q6 -10 2.5 -22.5t-13.5 -18.5q-3 -2 -68 -39.5t-68 -38.5q-11 -6 -22.5 -3t-17.5 14q-6 10 -3 22t14 18zM375 90q39 10 56 -27q8 -12 1.5 -30.5t-30.5 -28.5q-45 -18 -110 -18q-103 0 -177.5 66t-74.5 182
q0 115 74.5 181.5t177.5 66.5q59 0 110 -18q24 -10 30.5 -28.5t-1.5 -30.5q-17 -37 -56 -27q-37 13 -78 13q-61 0 -108 -39.5t-47 -117.5q0 -79 47 -118t108 -39q41 0 78 13z" />
    <glyph glyph-name="Ccircumflex" unicode="&#x108;" horiz-adv-x="705" 
d="M661 139q16 -23 12.5 -42.5t-20.5 -32.5q-101 -79 -236 -79q-156 0 -264 103t-108 262t108 262t264 103q134 0 236 -79q17 -12 20.5 -32.5t-12.5 -41.5q-18 -18 -37 -17.5t-35 13.5q-74 63 -172 63q-112 0 -189 -78t-77 -193t77 -193t189 -78q100 0 172 63q14 12 32 13
t40 -16zM502 782l-84 48l-84 -48q-10 -6 -22.5 -2.5t-18.5 13.5t-2.5 22.5t13.5 18.5q2 1 49 27.5t50 28.5q16 7 30 0l98 -56q11 -6 14 -18.5t-3 -22.5q-6 -11 -17.5 -14t-22.5 3z" />
    <glyph glyph-name="ccircumflex" unicode="&#x109;" horiz-adv-x="465" 
d="M375 90q40 11 57 -27q8 -12 1 -31t-31 -28q-45 -18 -110 -18q-103 0 -177.5 66t-74.5 182q0 115 74.5 181.5t177.5 66.5q59 0 110 -18q24 -9 31 -28t-1 -31q-17 -38 -57 -27q-37 13 -78 13q-61 0 -108 -39.5t-47 -117.5q0 -79 47 -118t108 -39q41 0 78 13zM375 563
l-84 48l-84 -48q-11 -6 -22.5 -3t-17.5 14q-6 10 -3 22t14 19l98 56q14 6 30 0q3 -2 50 -28.5t49 -27.5q24 -16 10 -41q-6 -11 -17.5 -14t-22.5 3z" />
    <glyph glyph-name="Cdotaccent" unicode="&#x10a;" horiz-adv-x="704" 
d="M660 139q16 -23 12.5 -42.5t-20.5 -32.5q-101 -79 -235 -79q-156 0 -264 103t-108 262t108 262t264 103q133 0 235 -79q17 -12 21 -32.5t-12 -41.5q-18 -18 -37.5 -17.5t-35.5 13.5q-73 63 -171 63q-112 0 -189 -78t-77 -193t77 -193t189 -78q99 0 171 63q15 12 33 13
t39 -16zM421 783h-10q-19 0 -32 14t-13 31v15q0 17 13 31t32 14h10q18 0 31.5 -13t13.5 -32v-15q0 -19 -13.5 -32t-31.5 -13z" />
    <glyph glyph-name="cdotaccent" unicode="&#x10b;" horiz-adv-x="465" 
d="M375 90q40 10 57 -27q8 -12 1 -31t-31 -28q-45 -18 -110 -18q-103 0 -177.5 66t-74.5 182q0 115 74.5 181.5t177.5 66.5q59 0 110 -18q24 -9 31 -28t-1 -31q-17 -37 -57 -27q-37 13 -78 13q-60 0 -107.5 -39.5t-47.5 -117.5t47.5 -117.5t107.5 -39.5q41 0 78 13zM293 564
h-10q-19 0 -32 13.5t-13 30.5v16q0 17 13 31t32 14h10q18 0 31 -13t13 -32v-16q0 -19 -13 -31.5t-31 -12.5z" />
    <glyph glyph-name="Ccaron" unicode="&#x10c;" horiz-adv-x="705" 
d="M661 139q16 -23 12.5 -42.5t-20.5 -32.5q-103 -79 -236 -79q-156 0 -264 103t-108 262t108 262t264 103q132 0 236 -79q17 -12 20.5 -32.5t-12.5 -41.5q-18 -18 -37 -17.5t-35 13.5q-74 63 -172 63q-112 0 -189 -78t-77 -193t77 -193t189 -78q100 0 172 63q14 12 32 13
t40 -16zM405 782l-99 56q-11 6 -14 17.5t3 22.5t18 14.5t23 -3.5l84 -47l83 47q11 7 23 3.5t18 -14.5t3 -22.5t-14 -17.5q-1 -1 -49 -28t-49 -28q-14 -8 -30 0z" />
    <glyph glyph-name="ccaron" unicode="&#x10d;" horiz-adv-x="465" 
d="M375 90q40 11 57 -27q8 -12 1 -31t-31 -28q-45 -18 -110 -18q-103 0 -177.5 66t-74.5 182q0 115 74.5 181.5t177.5 66.5q59 0 110 -18q24 -9 31 -28t-1 -31q-17 -38 -57 -27q-37 13 -78 13q-60 0 -107.5 -39.5t-47.5 -117.5t47.5 -117.5t107.5 -39.5q41 0 78 13zM289 623
l84 47q11 6 22.5 3t17.5 -14q6 -10 3 -22t-14 -18q-1 -1 -48.5 -28t-49.5 -28q-14 -8 -30 0q-2 1 -49 27.5t-50 28.5q-11 6 -14 17.5t3 22.5q6 10 18.5 13.5t22.5 -2.5z" />
    <glyph glyph-name="Dcaron" unicode="&#x10e;" horiz-adv-x="710" 
d="M292 0h-181q-22 0 -34 13.5t-12 31.5v610q0 17 11.5 31t35.5 14h174q157 0 268 -98.5t111 -251.5q0 -152 -108 -251t-265 -99zM165 90h116q131 0 204 74t73 186t-79 186t-191 74h-123v-520zM408 838l-99 -56q-14 -8 -30 0q-1 1 -49 28t-49 28q-11 6 -14 18t3 22
q6 11 17.5 14.5t22.5 -3.5l84 -47l84 47q11 7 23 3.5t18 -14.5t3 -22.5t-14 -17.5z" />
    <glyph glyph-name="dcaron" unicode="&#x10f;" horiz-adv-x="626" 
d="M467 0h-189q-39 0 -78.5 14t-76.5 41.5t-60 76t-23 109.5q0 106 73 173.5t167 67.5q63 0 135 -19v192q0 18 13 31.5t32 13.5h7q18 0 31.5 -13t13.5 -32v-611q0 -17 -12.5 -30.5t-32.5 -13.5zM415 89v280q-51 23 -127 23q-67 0 -106.5 -43t-39.5 -108q0 -76 45 -114
t103 -38h125zM602 578h-21q-13 0 -18.5 6t-4.5 12v5l14 59q7 25 34 25h21q13 0 18.5 -5.5t4.5 -11.5v-5l-14 -60q-7 -25 -34 -25z" />
    <glyph glyph-name="Dcroat" unicode="&#x110;" horiz-adv-x="770" 
d="M352 0h-180q-22 0 -34.5 14t-12.5 31v260h-61q-18 0 -31 13.5t-13 31.5t13 31.5t31 13.5h61v260q0 16 12 30.5t35 14.5h175q156 0 267 -98.5t111 -251.5q0 -152 -108 -251t-265 -99zM225 89h116q131 0 204 74.5t73 186.5t-79 186t-190 74h-124v-215h93q18 0 31 -13.5
t13 -31.5t-13 -31.5t-31 -13.5h-93v-216z" />
    <glyph glyph-name="dcroat" unicode="&#x111;" horiz-adv-x="629" 
d="M467 0h-189q-39 0 -78.5 14t-76.5 41.5t-60 76t-23 109.5q0 106 73 173.5t167 67.5q63 0 135 -19v67h-90q-13 0 -21.5 8.5t-8.5 20.5q0 13 8.5 21.5t21.5 8.5h90v66q0 18 13.5 31.5t31.5 13.5h7q18 0 31.5 -13t13.5 -32v-66h56q13 0 21.5 -9t8.5 -21t-8.5 -20.5
t-21.5 -8.5h-56v-486q0 -17 -12.5 -30.5t-32.5 -13.5zM415 89v280q-51 23 -127 23q-67 0 -106.5 -43t-39.5 -108q0 -76 45 -114t103 -38h125z" />
    <glyph glyph-name="Emacron" unicode="&#x112;" horiz-adv-x="517" 
d="M442 0h-332q-19 0 -32 14t-13 31v610q0 20 13.5 32.5t31.5 12.5h332q17 0 31 -13t14 -32t-14 -32t-31 -13h-277v-213h186q19 0 32 -13.5t13 -31.5t-13 -31.5t-32 -13.5h-186v-217h277q18 0 31.5 -12.5t13.5 -32.5q0 -19 -14 -32t-31 -13zM354 803h-156q-13 0 -21.5 8.5
t-8.5 20.5t8.5 21t21.5 9h156q13 0 21.5 -9t8.5 -21t-8.5 -20.5t-21.5 -8.5z" />
    <glyph glyph-name="emacron" unicode="&#x113;" horiz-adv-x="525" 
d="M419 208h-275q5 -67 49.5 -100t113.5 -33q31 0 79 16q17 6 34.5 -1.5t24.5 -27.5q5 -16 -3.5 -32.5t-25.5 -22.5q-59 -20 -110 -20q-126 0 -196 70.5t-70 180.5q0 104 58.5 174t170.5 70q80 0 144.5 -47t79.5 -139q6 -40 -12.5 -62t-40.5 -24zM145 289h248
q-3 47 -36.5 78t-84.5 31q-111 0 -127 -109zM346 583h-157q-12 0 -21 9t-9 21t9 21t21 9h157q12 0 20.5 -9t8.5 -21t-8.5 -21t-20.5 -9z" />
    <glyph glyph-name="Ebreve" unicode="&#x114;" horiz-adv-x="518" 
d="M443 0h-333q-19 0 -32 14t-13 31v610q0 20 13.5 32.5t31.5 12.5h333q17 0 31 -13t14 -32t-14 -32t-31 -13h-278v-213h187q19 0 32 -13.5t13 -31.5t-13 -31.5t-32 -13.5h-187v-217h278q17 0 31 -13t14 -32t-14 -32t-31 -13zM365 905h14q11 0 16.5 -9.5t3.5 -17.5
q-9 -42 -43 -70t-79 -28q-46 0 -80.5 29.5t-42.5 73.5q-1 7 3.5 14.5t16.5 7.5h18q14 0 21 -21t24.5 -34t39.5 -13t39.5 13t24.5 34t24 21z" />
    <glyph glyph-name="ebreve" unicode="&#x115;" horiz-adv-x="525" 
d="M419 208h-276q6 -67 50.5 -100t113.5 -33q31 0 79 16q17 6 34.5 -1.5t24.5 -27.5q5 -16 -3.5 -32.5t-25.5 -22.5q-59 -20 -110 -20q-126 0 -196 70.5t-70 180.5q0 104 58 174t170 70q81 0 145.5 -47t79.5 -139q6 -40 -12.5 -62t-40.5 -24zM145 289h248q-3 47 -36.5 78
t-85.5 31q-61 0 -90.5 -32t-35.5 -77zM356 686h13q12 0 17.5 -9.5t3.5 -17.5q-9 -42 -43 -70t-79 -28q-46 0 -80.5 29t-42.5 73q-2 8 3 15.5t17 7.5h18q14 0 21 -21q6 -20 24 -33.5t40 -13.5t39.5 13t24.5 34t24 21z" />
    <glyph glyph-name="Edotaccent" unicode="&#x116;" horiz-adv-x="517" 
d="M442 0h-333q-19 0 -31.5 14t-12.5 31v610q0 20 13 32.5t31 12.5h333q17 0 31 -13t14 -32t-14 -32t-31 -13h-277v-213h186q19 0 32 -13.5t13 -31.5t-13 -31.5t-32 -13.5h-186v-217h277q17 0 31 -13t14 -32t-14 -32t-31 -13zM281 783h-10q-19 0 -32 14t-13 31v15
q0 17 13 31t32 14h10q18 0 31 -13t13 -32v-15q0 -19 -13 -32t-31 -13z" />
    <glyph glyph-name="edotaccent" unicode="&#x117;" horiz-adv-x="525" 
d="M419 208h-276q6 -67 50.5 -100t112.5 -33q32 0 80 16q17 6 34.5 -1.5t23.5 -27.5q5 -16 -3 -32.5t-25 -22.5q-60 -20 -110 -20q-127 0 -196.5 70.5t-69.5 180.5q0 104 58 174t170 70q81 0 145.5 -47t79.5 -139q6 -40 -12.5 -62t-40.5 -24zM145 289h248q-3 47 -36.5 78
t-85.5 31q-61 0 -91 -32t-35 -77zM273 564h-11q-20 0 -32.5 13.5t-12.5 30.5v16q0 17 13 31t32 14h11q17 0 30.5 -13.5t13.5 -31.5v-16q0 -18 -13 -31t-31 -13z" />
    <glyph glyph-name="Eogonek" unicode="&#x118;" horiz-adv-x="533" 
d="M443 0h-60q0 -42 26.5 -69t65.5 -27q11 0 19.5 -7.5t8.5 -19.5t-8.5 -19.5t-19.5 -7.5q-66 0 -109.5 43t-43.5 107h-212q-19 0 -32 14t-13 31v610q0 20 13.5 32.5t31.5 12.5h333q17 0 31 -13t14 -32t-14 -32t-31 -13h-278v-213h187q18 0 31 -13.5t13 -31.5t-13 -31.5
t-31 -13.5h-187v-217h278q17 0 31 -13t14 -32t-14 -32t-31 -13z" />
    <glyph glyph-name="eogonek" unicode="&#x119;" horiz-adv-x="525" 
d="M280 -12v-2q0 -42 26.5 -69t65.5 -27q11 0 19 -7.5t8 -19.5t-8.5 -19.5t-18.5 -7.5q-66 0 -110 43.5t-44 106.5v12q-86 22 -132 86.5t-46 153.5q0 104 58 174t170 70q81 0 145.5 -47t79.5 -139q6 -40 -12.5 -62t-40.5 -24l-21 -2h-276q6 -67 50.5 -100t112.5 -33
q32 0 80 16q17 6 34.5 -1.5t23.5 -27.5q5 -16 -3 -32.5t-25 -22.5q-60 -20 -110 -20q-18 0 -26 1zM145 289h248q-3 47 -36.5 78t-85.5 31q-61 0 -91 -32t-35 -77z" />
    <glyph glyph-name="Ecaron" unicode="&#x11a;" horiz-adv-x="517" 
d="M442 0h-333q-19 0 -31.5 14t-12.5 31v610q0 20 13 32.5t31 12.5h333q17 0 31 -13t14 -32t-14 -32t-31 -13h-277v-213h186q19 0 32 -13.5t13 -31.5t-13 -31.5t-32 -13.5h-186v-217h277q17 0 31 -13t14 -32t-14 -32t-31 -13zM261 782l-99 56q-11 6 -14 17.5t3 22.5t18 14.5
t23 -3.5l84 -47l84 47q11 7 22.5 3.5t17.5 -14.5t3 -22.5t-14 -17.5q-1 -1 -49 -28t-49 -28q-14 -8 -30 0z" />
    <glyph glyph-name="ecaron" unicode="&#x11b;" horiz-adv-x="525" 
d="M419 208h-276q6 -67 50.5 -100t113.5 -33q31 0 79 16q17 6 34.5 -1.5t24.5 -27.5q5 -16 -3.5 -32.5t-25.5 -22.5q-59 -20 -110 -20q-126 0 -196 70.5t-70 180.5q0 104 58 174t170 70q81 0 145.5 -47t79.5 -139q6 -40 -12.5 -62t-40.5 -24zM145 289h248q-3 47 -36.5 78
t-85.5 31q-61 0 -90.5 -32t-35.5 -77zM252 563l-98 56q-11 6 -14 17.5t3 22.5t17.5 14t22.5 -3l84 -47l84 47q10 6 22.5 2.5t18.5 -13.5q6 -11 3 -22.5t-14 -17.5q-3 -2 -50 -28.5t-49 -27.5q-14 -7 -30 0z" />
    <glyph glyph-name="Gcircumflex" unicode="&#x11c;" horiz-adv-x="756" 
d="M596 147v160h-123q-19 0 -32 13.5t-13 31.5t13 31t32 13h178q18 0 31.5 -13t13.5 -31v-249q-110 -118 -279 -118q-156 0 -264 103t-108 262q0 158 108 261t264 103q133 0 236 -79q20 -16 21 -38.5t-12 -34.5q-34 -36 -73 -4q-72 62 -172 62q-112 0 -189 -77.5t-77 -192.5
q0 -116 77 -193.5t189 -77.5q105 0 179 68zM500 782l-83 48l-84 -48q-10 -6 -22.5 -2.5t-18.5 13.5t-2.5 22.5t13.5 18.5q2 1 49 27.5t50 28.5q15 7 30 0q1 -1 48.5 -28t49.5 -28q10 -6 13.5 -18.5t-2.5 -22.5q-6 -11 -18 -14t-23 3z" />
    <glyph glyph-name="gcircumflex" unicode="&#x11d;" horiz-adv-x="572" 
d="M414 7v1q-70 -19 -135 -19q-94 0 -166.5 67.5t-72.5 173.5q0 61 23 109.5t59.5 76t76 41.5t78.5 14h190q19 0 32 -13.5t13 -30.5v-429q0 -114 -66 -182.5t-176 -68.5q-37 0 -69 5.5t-45 10.5l-14 5q-18 6 -26 23t-3 33q6 19 23.5 27t34.5 2q59 -19 89 -19q9 -1 23 -0.5
t48 15.5t55 45q29 40 28 113zM415 102v280h-125q-58 0 -103 -38t-45 -114q0 -65 39.5 -108t106.5 -43q76 0 127 23zM405 563l-84 48l-84 -48q-10 -6 -22.5 -2.5t-18.5 13.5q-6 11 -3 22.5t14 18.5q2 1 49 27.5t50 28.5q14 6 30 0q1 -1 48.5 -28t49.5 -28q11 -7 14 -18.5
t-3 -22.5t-17.5 -14t-22.5 3z" />
    <glyph glyph-name="Gbreve" unicode="&#x11e;" horiz-adv-x="756" 
d="M596 147v160h-123q-19 0 -32 13.5t-13 31.5t13 31t32 13h178q19 0 32 -13t13 -31v-249q-51 -56 -123.5 -87t-155.5 -31q-156 0 -264 103t-108 262q0 158 108 261t264 103q133 0 236 -79q21 -16 22 -38.5t-13 -34.5q-33 -35 -73 -4q-72 62 -172 62q-112 0 -188.5 -77.5
t-76.5 -192.5q0 -116 76.5 -193.5t188.5 -77.5q105 0 179 68zM506 905h13q12 0 17.5 -9.5t3.5 -17.5q-9 -42 -43 -70t-79 -28q-46 0 -80.5 29.5t-42.5 73.5q-1 7 3.5 14.5t16.5 7.5h18q14 0 21 -21t24.5 -34t39.5 -13t39.5 13t24.5 34t24 21z" />
    <glyph glyph-name="gbreve" unicode="&#x11f;" horiz-adv-x="571" 
d="M414 7v1q-70 -19 -135 -19q-94 0 -166.5 67.5t-72.5 173.5q0 61 23 109.5t59.5 76t76 41.5t78.5 14h190q19 0 31.5 -13.5t12.5 -30.5v-429q0 -114 -66 -182.5t-176 -68.5q-37 0 -68.5 5.5t-44.5 10.5l-14 5q-18 6 -26 23t-3 33q6 19 23.5 27t34.5 2q59 -19 89 -19
q9 -1 23 -0.5t48 15.5t55 45q29 40 28 113zM415 102v280h-125q-58 0 -103 -38t-45 -114q0 -65 39.5 -108t105.5 -43q77 0 128 23zM378 686h14q11 0 16.5 -9t4.5 -18q-10 -42 -44 -70t-79 -28t-80 29t-43 73q-3 23 20 23h18q14 0 21 -21t24.5 -34t39.5 -13t40 13.5t24 33.5
q7 21 24 21z" />
    <glyph glyph-name="Gdotaccent" unicode="&#x120;" horiz-adv-x="756" 
d="M596 147v160h-123q-19 0 -32 13.5t-13 30.5q0 18 13 31.5t32 13.5h178q19 0 32 -13t13 -32v-248q-110 -118 -279 -118q-156 0 -264 103t-108 261q0 159 108 262t264 103q133 0 236 -79q20 -17 21 -39t-12 -34q-33 -35 -73 -4q-72 62 -172 62q-112 0 -189 -77.5
t-77 -193.5q0 -115 77 -192.5t189 -77.5q105 0 179 68zM420 783h-10q-19 0 -32 14t-13 31v15q0 17 13 31t32 14h10q18 0 31.5 -13t13.5 -32v-15q0 -19 -13.5 -32t-31.5 -13z" />
    <glyph glyph-name="gdotaccent" unicode="&#x121;" horiz-adv-x="572" 
d="M415 7v1q-72 -19 -135 -19q-94 0 -167 67.5t-73 173.5q0 61 23 109.5t60 76t76.5 41.5t78.5 14h189q20 0 32.5 -13.5t12.5 -30.5v-429q0 -114 -66 -182.5t-176 -68.5q-37 0 -69 5.5t-45 10.5l-14 5q-18 6 -25.5 23t-2.5 33q6 19 23.5 27t34.5 2q57 -19 89 -19
q9 -1 23 -0.5t47.5 15.5t55.5 45q29 40 28 113zM415 102v280h-125q-58 0 -103 -38t-45 -114q0 -65 39.5 -108t106.5 -43q77 0 127 23zM293 564h-11q-20 0 -32.5 13.5t-12.5 30.5v16q0 17 13 31t32 14h11q17 0 30.5 -13.5t13.5 -31.5v-16q0 -18 -13 -31t-31 -13z" />
    <glyph glyph-name="Gcommaaccent" unicode="&#x122;" horiz-adv-x="756" 
d="M596 147v160h-123q-19 0 -32 13t-13 31t13 31.5t32 13.5h178q18 0 31.5 -13t13.5 -32v-248q-110 -118 -279 -118q-156 0 -264 103t-108 261q0 159 108 262t264 103q133 0 236 -79q20 -17 21 -39t-13 -34q-32 -36 -72 -4q-72 62 -172 62q-112 0 -189 -77.5t-77 -193.5
q0 -115 77 -192.5t189 -77.5q105 0 179 68zM377 -173v86q0 15 10.5 26.5t27.5 11.5h9q15 0 26.5 -11t11.5 -27v-13q0 -11 -3 -19.5t-6 -11.5l-3 -3q-36 -41 -42 -47q-7 -7 -14 -7q-17 0 -17 15z" />
    <glyph glyph-name="gcommaaccent" unicode="&#x123;" horiz-adv-x="572" 
d="M415 7v1q-72 -19 -135 -19q-94 0 -167 67.5t-73 173.5q0 61 23 109.5t60 76t76.5 41.5t78.5 14h189q20 0 32.5 -13.5t12.5 -30.5v-429q0 -114 -66 -182.5t-176 -68.5q-37 0 -69 5.5t-45 10.5l-14 5q-18 6 -25.5 23t-2.5 33q6 19 23.5 27t34.5 2q57 -19 89 -19
q9 -1 23 -0.5t47.5 15.5t55.5 45q29 42 28 113zM415 102v280h-125q-58 0 -103 -38t-45 -114q0 -65 39.5 -108t106.5 -43q77 0 127 23zM312 546h-9q-15 0 -26.5 11t-11.5 27v13q0 11 3 20t6 12l3 3q35 40 41 46q7 7 14 7q18 0 18 -15v-86q0 -15 -10.5 -26.5t-27.5 -11.5z" />
    <glyph glyph-name="Hcircumflex" unicode="&#x124;" horiz-adv-x="681" 
d="M572 0h-11q-19 0 -32 14t-13 31v262h-351v-262q0 -19 -13.5 -32t-31.5 -13h-10q-19 0 -32 14t-13 31v610q0 17 13 31t32 14h10q18 0 31.5 -13t13.5 -32v-258h351v258q0 17 13 31t32 14h11q18 0 31 -13t13 -32v-610q0 -19 -13 -32t-31 -13zM424 782l-83 48l-84 -48
q-10 -6 -22.5 -2.5t-18.5 13.5t-2.5 22.5t13.5 18.5q2 1 49 27.5t50 28.5q15 7 30 0q1 -1 48.5 -28t49.5 -28q10 -6 13.5 -18.5t-2.5 -22.5q-6 -11 -18 -14t-23 3z" />
    <glyph glyph-name="hcircumflex" unicode="&#x125;" horiz-adv-x="559" 
d="M464 0h-7q-20 0 -32.5 14t-12.5 31v212q0 65 -32.5 100t-89.5 35q-78 0 -133 -20v-327q0 -20 -14.5 -32.5t-30.5 -12.5h-7q-19 0 -32 13.5t-13 31.5v611q0 18 12.5 31.5t31.5 13.5h8q17 0 31 -13t14 -32v-191q72 18 145 18q31 0 62.5 -9t66 -32t56.5 -72t22 -119v-206
q0 -19 -13.5 -32t-31.5 -13zM378 718l-84 48l-83 -48q-11 -6 -23 -3t-18 14q-6 10 -2.5 22.5t13.5 18.5q2 1 49.5 28t48.5 28q16 7 30 0q3 -2 50 -28.5t49 -27.5q10 -6 13.5 -18.5t-2.5 -22.5t-18.5 -13.5t-22.5 2.5z" />
    <glyph glyph-name="Hbar" unicode="&#x126;" horiz-adv-x="681" 
d="M572 0h-11q-19 0 -31.5 14t-12.5 31v223h-352v-223q0 -19 -13 -32t-31 -13h-11q-19 0 -32 14t-13 31v610q0 17 13 31t32 14h11q17 0 30.5 -13t13.5 -32v-142h352v142q0 17 12.5 31t31.5 14h11q18 0 31 -13t13 -32v-610q0 -19 -13 -32t-31 -13zM517 358v66h-352v-66h352z
" />
    <glyph glyph-name="hbar" unicode="&#x127;" horiz-adv-x="618" 
d="M524 0h-7q-20 0 -32.5 14t-12.5 31v212q0 65 -32.5 100t-89.5 35q-79 0 -133 -20v-327q0 -20 -14.5 -32.5t-30.5 -12.5h-8q-19 0 -31.5 13.5t-12.5 31.5v486h-58q-12 0 -20.5 8.5t-8.5 20.5q0 13 8.5 21.5t20.5 8.5h58v66q0 18 12.5 31.5t31.5 13.5h8q17 0 31 -13t14 -32
v-66h90q12 0 20.5 -9t8.5 -21t-8.5 -20.5t-20.5 -8.5h-90v-66q72 18 145 18q31 0 62.5 -9t66 -32t56.5 -72t22 -119v-206q0 -19 -13.5 -32t-31.5 -13z" />
    <glyph glyph-name="Itilde" unicode="&#x128;" horiz-adv-x="230" 
d="M120 0h-10q-19 0 -32 14t-13 31v610q0 17 13 31t32 14h10q18 0 31.5 -13t13.5 -32v-610q0 -19 -13.5 -32t-31.5 -13zM250 835l-32 -32q-3 -3 -9 -6.5t-26.5 -9t-42.5 5.5q-18 7 -63 27q-22 8 -36 -6l-10 -10t-7 -6l-2 -3q-8 -9 -20.5 -9t-21.5 8q-8 9 -8.5 21.5t8.5 20.5
q2 2 15 16t15 15q30 30 78 13q12 -6 63 -27q24 -10 38 4l17 19q2 2 5.5 4.5t15.5 5t22 -8.5t9 -22.5t-8 -19.5z" />
    <glyph glyph-name="itilde" unicode="&#x129;" horiz-adv-x="220" 
d="M115 0h-10q-19 0 -32 14t-13 31v383q0 17 13 30.5t32 13.5h10q18 0 31.5 -13t13.5 -31v-383q0 -19 -13.5 -32t-31.5 -13zM245 617l-32 -33q-3 -3 -9 -6.5t-26.5 -9t-42.5 5.5l-63 27q-22 9 -36 -5l-10.5 -10.5t-6 -7t-2.5 -2.5q-8 -8 -20.5 -8t-21.5 8q-8 8 -8.5 20.5
t8.5 21.5l29 31q32 30 79 12q12 -6 63 -27q24 -9 38 5l17 18q2 2 5.5 4.5t15.5 5.5t22 -8q10 -12 9 -23.5t-8 -18.5z" />
    <glyph glyph-name="Imacron" unicode="&#x12a;" horiz-adv-x="229" 
d="M120 0h-11q-19 0 -31.5 14t-12.5 31v610q0 17 12.5 31t31.5 14h11q18 0 31 -13t13 -32v-610q0 -19 -13 -32t-31 -13zM192 803h-156q-13 0 -21.5 8.5t-8.5 20.5t8.5 21t21.5 9h156q13 0 21.5 -9t8.5 -21t-8.5 -20.5t-21.5 -8.5z" />
    <glyph glyph-name="imacron" unicode="&#x12b;" horiz-adv-x="220" 
d="M116 0h-11q-19 0 -32 14t-13 31v383q0 17 13 30.5t32 13.5h11q18 0 31 -13t13 -31v-383q0 -19 -13 -32t-31 -13zM189 583h-157q-13 0 -21.5 9t-8.5 21t8.5 21t21.5 9h157q12 0 20.5 -9t8.5 -21t-8.5 -21t-20.5 -9z" />
    <glyph glyph-name="Ibreve" unicode="&#x12c;" horiz-adv-x="229" 
d="M120 0h-10q-19 0 -32 14t-13 31v610q0 17 13 31t32 14h10q18 0 31 -13t13 -32v-610q0 -19 -13 -32t-31 -13zM203 905h14q11 0 16.5 -9.5t3.5 -17.5q-9 -42 -43 -70t-79 -28q-46 0 -80.5 29t-42.5 73q-3 23 20 23h18q14 0 21 -21t24.5 -34t39.5 -13t39.5 13t24.5 34t24 21
z" />
    <glyph glyph-name="ibreve" unicode="&#x12d;" horiz-adv-x="220" 
d="M116 0h-11q-19 0 -32 14t-13 31v383q0 17 13 30.5t32 13.5h11q18 0 31 -13t13 -31v-383q0 -19 -13 -32t-31 -13zM199 686h13q12 0 17.5 -9.5t3.5 -17.5q-9 -42 -43 -70t-79 -28q-46 0 -80.5 29t-42.5 74q-2 7 3 14.5t16 7.5h19q14 0 21 -21q6 -20 24 -33.5t40 -13.5
t39.5 13t24.5 34t24 21z" />
    <glyph glyph-name="Iogonek" unicode="&#x12e;" horiz-adv-x="229" 
d="M146 8v-8q0 -42 26.5 -69t65.5 -27q11 0 19 -7.5t8 -19.5t-8.5 -19.5t-18.5 -7.5q-66 0 -110 43.5t-44 106.5v8q-19 13 -19 37v610q0 17 13 31t32 14h10q18 0 31 -13t13 -32v-610q0 -24 -18 -37z" />
    <glyph glyph-name="iogonek" unicode="&#x12f;" horiz-adv-x="220" 
d="M140 8v-21q0 -42 26.5 -69t65.5 -27q12 0 20 -7.5t8 -19.5t-9 -20t-19 -8q-66 0 -109.5 43.5t-43.5 107.5v22q-19 14 -19 36v383q0 17 13 30.5t32 13.5h11q18 0 31 -13t13 -31v-383q0 -24 -20 -37zM114 581h-11q-19 0 -32 14t-13 31v16q0 17 13 30.5t32 13.5h11
q18 0 31 -13t13 -32v-15q0 -18 -13 -31.5t-31 -13.5z" />
    <glyph glyph-name="Idotaccent" unicode="&#x130;" horiz-adv-x="230" 
d="M120 0h-10q-19 0 -32 14t-13 31v571q0 17 12.5 30.5t32.5 13.5h10q18 0 31.5 -13t13.5 -31v-571q0 -19 -13.5 -32t-31.5 -13zM120 756h-10q-19 0 -32 14t-13 31v16q0 17 12.5 30.5t32.5 13.5h10q18 0 31.5 -13t13.5 -32v-15q0 -19 -13.5 -32t-31.5 -13z" />
    <glyph glyph-name="dotlessi" unicode="&#x131;" horiz-adv-x="220" 
d="M116 0h-11q-19 0 -32 14t-13 31v383q0 17 13 30.5t32 13.5h11q18 0 31 -12.5t13 -31.5v-383q0 -19 -13 -32t-31 -13z" />
    <glyph glyph-name="IJ" unicode="&#x132;" horiz-adv-x="645" 
d="M399 -15h-5q-82 2 -133.5 54.5t-51.5 138.5q0 16 13 29t31 13h11q19 0 32 -13t13 -29q0 -49 23 -73.5t64 -24.5h2q87 0 87 98v432h-160q-17 0 -31 13t-14 32q0 18 13 31.5t32 13.5h215q18 0 31.5 -13t13.5 -32v-477q0 -86 -51.5 -138.5t-134.5 -54.5zM120 0h-10
q-19 0 -32 14t-13 31v610q0 17 13 31t32 14h10q18 0 31 -13t13 -32v-610q0 -19 -13 -32t-31 -13z" />
    <glyph glyph-name="ij" unicode="&#x133;" horiz-adv-x="455" 
d="M249 -221h-34q-19 0 -32 13t-13 32q0 17 13 30.5t32 13.5h10q37 0 54 16.5t17 58.5v484q0 17 12.5 31t31.5 14h11q18 0 31 -13t13 -32v-502q0 -64 -36 -105t-110 -41zM115 0h-10q-19 0 -32 13.5t-13 30.5v383q0 17 13 31t32 14h10q18 0 31.5 -13t13.5 -32v-383
q0 -18 -13.5 -31t-31.5 -13zM115 579h-10q-19 0 -32 13.5t-13 30.5v16q0 17 13 31t32 14h10q18 0 31.5 -13t13.5 -32v-15q0 -19 -13.5 -32t-31.5 -13zM351 579h-11q-19 0 -31.5 13.5t-12.5 30.5v16q0 17 12.5 31t31.5 14h11q18 0 31 -13t13 -32v-15q0 -19 -13 -32t-31 -13z
" />
    <glyph glyph-name="Jcircumflex" unicode="&#x134;" horiz-adv-x="466" 
d="M221 -15h-5q-83 2 -134.5 54.5t-51.5 138.5q0 16 13 29t32 13h10q19 0 32 -13t13 -29q0 -49 23 -73.5t64 -24.5h2q88 0 88 98v432h-161q-17 0 -31 13t-14 32q0 18 13 31.5t32 13.5h216q18 0 31 -13t13 -32v-477q0 -86 -51.5 -138.5t-133.5 -54.5zM344 782l-84 48l-84 -48
q-10 -6 -22.5 -2.5t-18.5 13.5t-2.5 22.5t13.5 18.5q2 1 49 27.5t50 28.5q15 7 30 0q1 -1 48 -28t50 -28q10 -6 13.5 -18.5t-2.5 -22.5q-6 -11 -17.5 -14t-22.5 3z" />
    <glyph glyph-name="jcircumflex" unicode="&#x135;" horiz-adv-x="228" 
d="M22 -220h-35q-19 0 -32 13t-13 31t12.5 31.5t32.5 13.5h10q37 0 54 16.5t17 58.5v484q0 17 13 30.5t32 13.5h10q18 0 31.5 -13t13.5 -32v-501q0 -64 -36.5 -105t-109.5 -41zM201 564l-84 47l-84 -47q-11 -6 -22.5 -3t-18.5 14q-6 11 -3 22.5t14 17.5q3 2 50 28.5t49 27.5
q14 8 30 0q2 -1 49.5 -28t48.5 -28q11 -6 14 -18t-3 -22q-6 -11 -17.5 -14t-22.5 3z" />
    <glyph glyph-name="uni0136" unicode="&#x136;" horiz-adv-x="517" 
d="M463 0h-27q-15 0 -29 8t-20 16l-6 8l-185 279q-1 2 -3 5.5t-6 14.5t-5.5 22t1.5 26.5t12 29.5q1 1 171 258q10 15 24 23.5t22 9.5h9h22q24 0 35 -14t-1 -31l-193 -295q193 -291 209 -315q13 -18 4.5 -31.5t-34.5 -13.5zM120 0h-10q-19 0 -32 14t-13 31v610q0 17 13 31
t32 14h10q18 0 31 -13t13 -32v-610q0 -19 -13 -32t-31 -13zM227 -173v86q0 15 11 26.5t27 11.5h10q15 0 26 -11t11 -27v-13q0 -11 -3 -19.5t-5 -11.5l-3 -3q-36 -41 -42 -47q-7 -7 -14 -7q-18 0 -18 15z" />
    <glyph glyph-name="kcommaaccent" unicode="&#x137;" horiz-adv-x="508" 
d="M115 0h-10q-19 0 -32 14t-13 31v611q0 17 13 30.5t32 13.5h10q18 0 31.5 -13t13.5 -31v-611q0 -19 -13.5 -32t-31.5 -13zM456 0h-23q-16 0 -32 8t-24 16l-8 9l-170 170q-14 15 -19.5 30t-2.5 26.5t7.5 21t9.5 14.5l5 5l140 140q30 32 68 32h19q26 0 36.5 -15.5
t-3.5 -28.5l-176 -177l206 -206q13 -10 4.5 -27.5t-37.5 -17.5zM213 -173v87q0 15 10.5 26.5t27.5 11.5h9q15 0 26.5 -11t11.5 -27v-14q0 -11 -3 -19.5t-6 -11.5l-3 -3q-35 -40 -41 -47q-8 -7 -15 -7q-17 0 -17 15z" />
    <glyph glyph-name="kgreenlandic" unicode="&#x138;" horiz-adv-x="508" 
d="M457 0h-24q-16 0 -32 8t-23 16l-8 9q-132 132 -171 170q-14 15 -19.5 30t-2.5 26.5t7.5 21t9.5 14.5l5 5l140 140q30 32 68 32h19q26 0 37 -15.5t-3 -28.5l-177 -177l206 -206q5 -7 6.5 -17t-9 -19t-29.5 -9zM116 0h-11q-19 0 -32 14t-13 31v383q0 17 13 30.5t32 13.5h11
q18 0 31 -13t13 -31v-383q0 -19 -13 -32t-31 -13z" />
    <glyph glyph-name="Lacute" unicode="&#x139;" horiz-adv-x="488" 
d="M418 0h-307q-19 0 -32 12.5t-13 32.5v610q0 17 13 31t32 14h10q18 0 31 -13t13 -32v-565h253q19 0 32 -13.5t13 -31.5q0 -19 -13 -32t-32 -13zM246 849l-136 -78q-11 -6 -22.5 -3t-17.5 14q-6 10 -3 22t14 19l136 78q11 6 22.5 3t17.5 -14q6 -10 2.5 -22.5t-13.5 -18.5z
" />
    <glyph glyph-name="lacute" unicode="&#x13a;" horiz-adv-x="289" 
d="M241 1h-35q-73 0 -109.5 41t-36.5 104v510q0 18 13.5 31t31.5 13h10q19 0 32 -13.5t13 -30.5v-491q0 -42 17 -58.5t54 -16.5h10q20 0 32.5 -13.5t12.5 -31.5t-13 -31t-32 -13zM241 808l-136 -78q-10 -6 -22.5 -2.5t-18.5 13.5q-6 11 -3 22.5t14 17.5q3 2 68.5 39.5
t67.5 38.5q11 7 23 3.5t18 -14.5t3 -22.5t-14 -17.5z" />
    <glyph glyph-name="Lcommaaccent" unicode="&#x13b;" horiz-adv-x="488" 
d="M418 0h-308q-18 0 -31.5 12.5t-13.5 32.5v610q0 17 13 31t32 14h11q17 0 30.5 -13t13.5 -32v-565h253q18 0 31.5 -13.5t13.5 -31.5q0 -19 -13 -32t-32 -13zM222 -173v86q0 15 10.5 26.5t27.5 11.5h9q15 0 26 -11t11 -27v-13q0 -11 -3 -19.5t-5 -11.5l-3 -3
q-36 -41 -42 -47q-7 -7 -14 -7q-17 0 -17 15z" />
    <glyph glyph-name="uni013C" unicode="&#x13c;" horiz-adv-x="289" 
d="M241 1h-35q-73 0 -109.5 41t-36.5 104v510q0 18 13 31t31 13h11q19 0 32 -13.5t13 -30.5v-491q0 -42 17 -58.5t54 -16.5h10q20 0 32.5 -13.5t12.5 -31.5t-13 -31t-32 -13zM169 -173v87q0 15 11 26.5t27 11.5h9q16 0 27 -11t11 -27v-14q0 -11 -3 -19.5t-6 -11.5l-3 -3
q-35 -40 -41 -47q-7 -7 -14 -7q-18 0 -18 15z" />
    <glyph glyph-name="Lcaron" unicode="&#x13d;" horiz-adv-x="487" 
d="M418 0h-308q-18 0 -31.5 12.5t-13.5 31.5v611q0 17 13 31t32 14h11q17 0 30.5 -13t13.5 -32v-566h253q18 0 31 -13t13 -32q0 -18 -12.5 -31t-31.5 -13zM357 677l-14 -60q-6 -22 -34 -25q-16 1 -21 0q-13 0 -19 6t-5 12v5l14 60q6 22 34 25h21q13 0 19 -6t6 -12z" />
    <glyph glyph-name="lcaron" unicode="&#x13e;" horiz-adv-x="282" 
d="M241 1h-35q-73 0 -109.5 41t-36.5 104v510q0 18 13 31t31 13h11q19 0 32 -13.5t13 -30.5v-491q0 -42 17 -58.5t54 -16.5h10q20 0 32.5 -13.5t12.5 -31.5t-13 -31t-32 -13zM248 579h-21q-13 0 -19 5.5t-6 11.5l1 6l14 59q7 25 34 25h21q13 0 19 -6t5 -12v-5l-14 -59
q-7 -25 -34 -25z" />
    <glyph glyph-name="Ldot" unicode="&#x13f;" horiz-adv-x="487" 
d="M417 0h-307q-18 0 -31.5 12.5t-13.5 32.5v610q0 17 13 31t32 14h10q18 0 31.5 -13t13.5 -32v-565h252q19 0 32 -13.5t13 -31.5q0 -19 -13 -32t-32 -13zM319 378h-11q-19 0 -31.5 14t-12.5 31v15q0 17 12.5 31t31.5 14h11q18 0 31 -13t13 -32v-15q0 -19 -13 -32t-31 -13z
" />
    <glyph glyph-name="ldot" unicode="&#x140;" horiz-adv-x="325" 
d="M241 1h-35q-73 0 -109.5 41t-36.5 104v510q0 19 13 31.5t31 12.5h11q19 0 31.5 -13.5t12.5 -30.5v-491q0 -42 17 -58.5t54 -16.5h11q19 0 31.5 -13.5t12.5 -31.5t-13 -31t-31 -13zM291 350h-11q-19 0 -32 14t-13 31v16q0 17 12.5 30.5t32.5 13.5h11q18 0 31 -12.5
t13 -31.5v-16q0 -19 -13 -32t-31 -13z" />
    <glyph glyph-name="Lslash" unicode="&#x141;" horiz-adv-x="579" 
d="M509 0h-307q-18 0 -31.5 12.5t-13.5 32.5v307q-98 -69 -99 -72q-10 -7 -22 -5t-19 12t-5.5 22t11.5 20q1 0 134 97v229q0 17 13 31t32 14h10q18 0 31.5 -13t13.5 -32v-157l99 72q11 7 22.5 5.5t19.5 -12.5q7 -10 5 -22t-12 -19l-18 -13q-18 -13 -51.5 -37.5t-64.5 -47.5
v-334h252q19 0 32 -13.5t13 -31.5q0 -19 -13 -32t-32 -13z" />
    <glyph glyph-name="lslash" unicode="&#x142;" horiz-adv-x="433" 
d="M323 1h-35q-73 0 -109 41t-36 104v176l-74 -53q-10 -7 -22 -5.5t-19 11.5q-17 24 6 42l109 78v261q0 19 13 31.5t31 12.5h10q19 0 32 -13.5t13 -30.5v-188q27 20 60 43.5t49 34.5l16 12q24 17 42 -6q7 -10 5 -22.5t-12 -19.5l-160 -116v-229q0 -42 17 -58.5t54 -16.5h10
q20 0 32.5 -13.5t12.5 -31.5t-13 -31t-32 -13z" />
    <glyph glyph-name="Nacute" unicode="&#x143;" horiz-adv-x="732" 
d="M622 0h-34q-14 0 -27.5 8t-19.5 16l-6 8l-370 511v-498q0 -19 -13 -32t-31 -13h-11q-18 0 -31.5 13t-13.5 32v610q0 18 13 31.5t32 13.5h29q16 0 30.5 -8t20.5 -16l7 -9l370 -509v497q0 19 13.5 32t31.5 13h10q19 0 32 -13.5t13 -31.5v-610q0 -19 -13 -32t-32 -13z
M449 849l-136 -78q-11 -6 -22.5 -3t-17.5 14q-6 10 -3 22t14 19q3 1 68.5 39t66.5 39q11 6 23 3t18 -14q6 -10 2.5 -22.5t-13.5 -18.5z" />
    <glyph glyph-name="nacute" unicode="&#x144;" horiz-adv-x="557" 
d="M462 0h-7q-18 0 -31.5 12.5t-13.5 32.5v212q0 56 -24 89.5t-80.5 44t-148.5 -18.5v-327q0 -17 -13 -31t-32 -14h-7q-18 0 -31.5 13t-13.5 32v383q0 18 13 31t32 13h52q55 11 132 11q30 0 57 -5t57.5 -20t52.5 -39.5t36.5 -67t14.5 -99.5v-207q0 -20 -13.5 -32.5
t-31.5 -12.5zM193 604q1 1 67.5 39t68.5 39q11 6 22.5 3t17.5 -14t3 -22.5t-14 -17.5q-3 -2 -68 -39.5t-68 -38.5q-11 -7 -22.5 -3.5t-17.5 14.5q-6 10 -3 22t14 18z" />
    <glyph glyph-name="Ncommaaccent" unicode="&#x145;" horiz-adv-x="732" 
d="M622 0h-35q-14 0 -27.5 8t-19.5 16l-6 8l-369 511v-498q0 -19 -13.5 -32t-31.5 -13h-11q-18 0 -31 13t-13 32v610q0 18 12.5 31.5t31.5 13.5h29q16 0 30.5 -8t21.5 -16l6 -9l371 -509v497q0 19 13 32t31 13h11q19 0 32 -13.5t13 -31.5v-610q0 -19 -13 -32t-32 -13z
M323 -173v86q0 15 11 26.5t27 11.5h9q16 0 27 -11t11 -27v-13q0 -11 -3 -19.5t-6 -11.5l-3 -3q-35 -41 -41 -47q-7 -7 -14 -7q-18 0 -18 15z" />
    <glyph glyph-name="ncommaaccent" unicode="&#x146;" horiz-adv-x="556" 
d="M462 0h-8q-17 0 -30.5 13t-13.5 32v212q0 56 -24.5 89.5t-80.5 44t-148 -18.5v-327q0 -17 -13 -31t-32 -14h-7q-18 0 -31.5 13t-13.5 32v383q0 18 13 31t32 13h52q55 11 131 11q30 0 57 -5t57.5 -20t52.5 -39.5t36.5 -67t14.5 -99.5v-207q0 -20 -13.5 -32.5t-30.5 -12.5z
M241 -173v87q0 15 10.5 26.5t27.5 11.5h9q15 0 26.5 -11t11.5 -27v-14q0 -11 -3 -19.5t-6 -11.5l-3 -3q-36 -40 -42 -47q-7 -7 -14 -7q-17 0 -17 15z" />
    <glyph glyph-name="Ncaron" unicode="&#x147;" horiz-adv-x="732" 
d="M622 0h-34q-14 0 -27.5 8t-19.5 16l-6 8l-370 511v-498q0 -19 -13 -32t-31 -13h-11q-18 0 -31.5 13t-13.5 32v610q0 18 13 31.5t32 13.5h28q16 0 31 -8t21 -16l7 -9l370 -509v497q0 19 13.5 32t31.5 13h10q19 0 32 -13.5t13 -31.5v-610q0 -19 -13 -32t-32 -13zM480 838
l-99 -56q-16 -8 -30 0q-1 1 -49 28t-49 28q-11 6 -14 18.5t3 22.5q6 11 17.5 14t22.5 -4l84 -47l84 47q11 7 22.5 4t18.5 -14q6 -10 2.5 -22.5t-13.5 -18.5z" />
    <glyph glyph-name="ncaron" unicode="&#x148;" horiz-adv-x="557" 
d="M462 0h-7q-18 0 -31.5 12.5t-13.5 32.5v212q0 56 -24 89.5t-80.5 44t-148.5 -18.5v-327q0 -17 -13 -31t-32 -14h-7q-18 0 -31.5 13t-13.5 32v383q0 18 13 31t32 13h52q55 11 132 11q30 0 57 -5t57.5 -20t52.5 -39.5t36.5 -67t14.5 -99.5v-207q0 -20 -13.5 -32.5
t-31.5 -12.5zM276 623l84 48q11 6 22.5 3t17.5 -14q7 -11 4 -22.5t-14 -18.5q-2 -1 -50 -27.5t-49 -27.5q-14 -8 -30 0q-1 0 -25 13.5t-48 27.5t-25 14q-11 7 -14 19t3 22q6 11 17.5 14t22.5 -3z" />
    <glyph glyph-name="napostrophe" unicode="&#x149;" horiz-adv-x="571" 
d="M476 0h-7q-18 0 -31.5 12.5t-13.5 32.5v212q0 56 -24 89.5t-80.5 44t-148.5 -18.5v-327q0 -17 -13 -31t-32 -14h-7q-18 0 -31.5 13t-13.5 32v383q0 18 13 31t32 13h52q55 11 132 11q30 0 57 -5t57.5 -20t52.5 -39.5t36.5 -67t14.5 -99.5v-207q0 -20 -14 -32.5t-31 -12.5z
M36 564h-21q-13 0 -19 5.5t-6 11.5l1 6l14 59q7 25 34 25h21q13 0 19 -5.5t5 -11.5v-6l-14 -59q-7 -25 -34 -25z" />
    <glyph glyph-name="Eng" unicode="&#x14a;" horiz-adv-x="732" 
d="M605 0h-18q-14 0 -27.5 8t-19.5 16l-6 8l-369 511v-498q0 -19 -13.5 -32t-31.5 -13h-10q-18 0 -31.5 13t-13.5 32v610q0 18 12.5 31.5t32.5 13.5h28q16 0 30.5 -8t21.5 -16l6 -9l371 -509v497q0 19 13 32t31 13h11q19 0 32 -13.5t13 -31.5v-655q0 -63 -44 -106.5
t-110 -43.5q-10 0 -18.5 7.5t-8.5 19.5t8 19.5t19 7.5q39 0 65.5 27t26.5 69z" />
    <glyph glyph-name="eng" unicode="&#x14b;" horiz-adv-x="556" 
d="M445 -13v15q-15 3 -25 14.5t-10 28.5v212q0 56 -24.5 89.5t-80.5 44t-148 -18.5v-327q0 -17 -13 -31t-32 -14h-7q-18 0 -31.5 13t-13.5 32v383q0 18 13 31t32 13h52q55 11 132 11q30 0 57 -5t57.5 -20t52 -39.5t36 -67t14.5 -99.5v-265q0 -64 -43.5 -107.5t-109.5 -43.5
q-10 0 -18.5 8t-8.5 20t8 19.5t19 7.5q39 0 65.5 27t26.5 69z" />
    <glyph glyph-name="Omacron" unicode="&#x14c;" horiz-adv-x="833" 
d="M788 349q0 -158 -108 -261t-264 -103q-155 0 -263 103t-108 261q0 159 107.5 262t263.5 103t264 -103t108 -262zM416 78q112 0 189 78t77 193t-77 193t-189 78q-111 0 -188 -78t-77 -193t77 -193t188 -78zM495 803h-157q-12 0 -21 8.5t-9 20.5t9 21t21 9h157
q12 0 20.5 -9t8.5 -21t-8.5 -20.5t-20.5 -8.5z" />
    <glyph glyph-name="omacron" unicode="&#x14d;" horiz-adv-x="587" 
d="M547 234q0 -104 -72 -176t-181 -72t-181.5 72t-72.5 176t72.5 176t181.5 72t181 -72t72 -176zM294 76q65 0 108 44t43 114t-43 114t-108 44t-108.5 -44t-43.5 -114t43.5 -114t108.5 -44zM372 583h-157q-12 0 -20.5 9t-8.5 21t8.5 20.5t20.5 8.5h157q12 0 21 -8.5t9 -21.5
q0 -12 -9 -20.5t-21 -8.5z" />
    <glyph glyph-name="Obreve" unicode="&#x14e;" horiz-adv-x="834" 
d="M789 349q0 -158 -108 -261t-264 -103t-264 103t-108 261q0 159 108 262t264 103t264 -103t108 -262zM417 78q112 0 189 78t77 193t-77 193t-189 78t-189 -78t-77 -193t77 -193t189 -78zM505 905h14q11 0 16.5 -9.5t3.5 -17.5q-9 -42 -43 -70t-79 -28t-80 29t-43 74
q-1 7 3.5 14.5t16.5 7.5h18q14 0 21 -21t24.5 -34t39.5 -13t39.5 13t24.5 34t24 21z" />
    <glyph glyph-name="obreve" unicode="&#x14f;" horiz-adv-x="586" 
d="M546 234q0 -105 -72 -176.5t-181 -71.5t-181 72t-72 176t72 176t181 72t181 -71.5t72 -176.5zM293 76q65 0 108.5 44t43.5 114t-43.5 114t-108.5 44t-108 -44t-43 -114t43 -114t108 -44zM382 686h13q12 0 17.5 -9.5t3.5 -17.5q-9 -42 -43 -70t-79 -28q-46 0 -80.5 29
t-42.5 74q-2 7 3 14.5t16 7.5h19q14 0 21 -21q6 -20 24 -33.5t40 -13.5t39.5 13t24.5 34t24 21z" />
    <glyph glyph-name="Ohungarumlaut" unicode="&#x150;" horiz-adv-x="834" 
d="M789 349q0 -158 -108 -261t-264 -103t-264 103t-108 261q0 159 108 262t264 103t264 -103t108 -262zM417 78q111 0 188 78t77 193t-77 193t-188 78q-112 0 -189 -78t-77 -193t77 -193t189 -78zM474 782h-21q-13 0 -19 5.5t-6 11.5l1 6l14 59q7 25 34 25h21q13 0 19 -5.5
t5 -11.5v-6l-14 -59q-7 -25 -34 -25zM356 782h-21q-13 0 -18.5 5.5t-4.5 11.5v6l14 59q7 25 34 25h21q13 0 18.5 -5.5t4.5 -11.5v-6l-14 -59q-7 -25 -34 -25z" />
    <glyph glyph-name="ohungarumlaut" unicode="&#x151;" horiz-adv-x="587" 
d="M547 234q0 -104 -72.5 -176t-181.5 -72t-181 72t-72 176t72 176t181 72t181.5 -72t72.5 -176zM293 76q65 0 108.5 44t43.5 114t-43.5 114t-108.5 44t-108 -44t-43 -114t43 -114t108 -44zM237 563h-21q-13 0 -18.5 5.5t-5.5 11.5l1 5l14 60q7 25 34 25h21q13 0 18.5 -6
t5.5 -12l-1 -5l-14 -59q-7 -25 -34 -25zM355 563h-21q-13 0 -18.5 5.5t-5.5 11.5l1 5l14 60q7 25 34 25h21q13 0 18.5 -6t5.5 -12l-1 -5l-14 -59q-7 -25 -34 -25z" />
    <glyph glyph-name="OE" unicode="&#x152;" horiz-adv-x="1140" 
d="M1065 0h-333q-19 0 -32 14t-13 31v49q-107 -109 -270 -109q-156 0 -264 103t-108 261q0 159 108 262t264 103q162 0 270 -110v51q0 20 13.5 32.5t31.5 12.5h333q17 0 31 -13t14 -32t-14 -32t-31 -13h-278v-213h187q19 0 31.5 -13.5t12.5 -31.5t-13 -31.5t-31 -13.5h-187
v-217h278q17 0 31 -13t14 -32t-14 -32t-31 -13zM417 78q112 0 189 78t77 193t-77 193t-189 78q-111 0 -188 -78t-77 -193t77 -193t188 -78z" />
    <glyph glyph-name="oe" unicode="&#x153;" horiz-adv-x="930" 
d="M824 208h-275q6 -67 50 -100t113 -33q27 0 80 17q17 6 34.5 -2t23.5 -27q5 -16 -3 -33t-26 -23q-59 -20 -110 -20q-145 0 -216 94q-75 -95 -202 -95q-109 0 -181 72t-72 176t72 176t181 72q123 0 196 -88q61 88 185 88q80 0 144.5 -47t79.5 -139q7 -40 -11.5 -62
t-40.5 -24zM293 76q65 0 108.5 44t43.5 114t-43.5 114t-108.5 44t-108.5 -44t-43.5 -114t43.5 -114t108.5 -44zM550 290h249q-3 46 -36.5 77.5t-85.5 31.5q-62 0 -91 -32t-36 -77z" />
    <glyph glyph-name="Racute" unicode="&#x154;" horiz-adv-x="553" 
d="M472 0h-23q-16 0 -31.5 8t-22.5 16l-7 8l-207 271l1 41q0 26 26 26h66q63 0 100 31.5t37 89.5q0 52 -33 85.5t-108 33.5h-105v-565q0 -19 -13 -32t-32 -13h-10q-18 0 -31.5 13t-13.5 32v610q0 19 14 32t31 13h167q123 0 183 -61.5t60 -146.5q0 -91 -56.5 -145t-140.5 -65
q164 -216 180 -237q13 -17 4.5 -31t-35.5 -14zM326 849l-136 -78q-11 -6 -22.5 -3t-17.5 14q-7 11 -4 22.5t14 18.5q2 1 68.5 39t67.5 39q11 6 23 3t18 -14q6 -10 2.5 -22.5t-13.5 -18.5z" />
    <glyph glyph-name="racute" unicode="&#x155;" horiz-adv-x="359" 
d="M113 0h-8q-18 0 -31.5 13t-13.5 32v382q0 18 12.5 31.5t32.5 13.5h12q21 1 32 -14q38 14 78 14h65q17 0 30.5 -13t13.5 -32t-13.5 -32t-30.5 -13h-62q-32 0 -52.5 -17.5t-20.5 -54.5v-265q0 -19 -13.5 -32t-30.5 -13zM257 630q-2 -1 -67.5 -38.5t-68.5 -39.5
q-11 -6 -23 -3t-18 14q-6 10 -2.5 22.5t13.5 18.5q2 1 67.5 38.5t68.5 39.5q11 6 22.5 3t17.5 -14q7 -11 4 -22.5t-14 -18.5z" />
    <glyph glyph-name="Rcommaaccent" unicode="&#x156;" horiz-adv-x="553" 
d="M472 0h-23q-16 0 -31.5 8t-22.5 16l-7 8l-207 271l1 41q0 26 26 26h66q63 0 100 31.5t37 89.5q0 52 -33 85.5t-108 33.5h-105v-565q0 -19 -13 -32t-32 -13h-10q-18 0 -31.5 13t-13.5 32v610q0 19 14 32t31 13h167q123 0 183 -61.5t60 -146.5q0 -91 -56.5 -145t-140.5 -65
q164 -216 180 -237q13 -17 4.5 -31t-35.5 -14zM230 -173v86q0 15 11 26.5t27 11.5h9q16 0 27 -11t11 -27v-13q0 -11 -3 -19.5t-6 -11.5l-3 -3q-35 -41 -41 -47q-7 -7 -14 -7q-18 0 -18 15z" />
    <glyph glyph-name="rcommaaccent" unicode="&#x157;" horiz-adv-x="359" 
d="M113 0h-8q-18 0 -31.5 13t-13.5 32v382q0 18 12.5 31.5t32.5 13.5h12q20 1 32 -14q38 14 78 14h65q17 0 30.5 -13t13.5 -32t-13.5 -32t-30.5 -13h-62q-32 0 -52.5 -17.5t-20.5 -54.5v-265q0 -19 -13.5 -32t-30.5 -13zM66 -173v87q0 14 11 26t27 12h9q15 0 26.5 -11
t11.5 -27v-14q0 -11 -3 -19.5t-6 -11.5l-3 -3q-36 -41 -42 -47q-7 -7 -14 -7q-17 0 -17 15z" />
    <glyph glyph-name="Rcaron" unicode="&#x158;" horiz-adv-x="553" 
d="M472 0h-23q-16 0 -31.5 8t-22.5 16l-7 8l-207 271l1 41q0 26 26 26h66q63 0 100 31.5t37 89.5q0 52 -33 85.5t-108 33.5h-105v-565q0 -19 -13 -32t-32 -13h-10q-18 0 -31.5 13t-13.5 32v610q0 19 14 32t31 13h167q123 0 183 -61.5t60 -146.5q0 -91 -56.5 -145t-140.5 -65
q164 -216 180 -237q13 -17 4.5 -31t-35.5 -14zM349 838l-99 -56q-16 -8 -30 0q-1 1 -49 28t-49 28q-11 6 -14 18.5t3 22.5q6 11 17.5 14t22.5 -4l84 -47l84 47q11 7 23 4t18 -14q6 -10 2.5 -22.5t-13.5 -18.5z" />
    <glyph glyph-name="rcaron" unicode="&#x159;" horiz-adv-x="360" 
d="M113 0h-8q-18 0 -31.5 13t-13.5 32v382q0 18 12.5 31.5t32.5 13.5h12q21 1 32 -14q38 14 78 14h65q17 0 31 -13t14 -32t-14 -32t-31 -13h-61q-74 0 -74 -72v-265q0 -19 -13.5 -32t-30.5 -13zM180 563l-99 56q-11 6 -14 17.5t3 22.5t18 14.5t23 -3.5l84 -47l84 47
q11 7 22.5 3.5t17.5 -14.5q6 -10 3 -22t-14 -18q-1 -1 -49 -28t-49 -28q-14 -8 -30 0z" />
    <glyph glyph-name="Sacute" unicode="&#x15a;" horiz-adv-x="526" 
d="M265 -15h-11q-75 0 -135.5 44t-79.5 115q-5 19 8 37t36 18h14q4 0 10 -0.5t18.5 -10.5t17.5 -29q10 -36 43 -58.5t73 -22.5q49 0 84.5 31t35.5 78q0 35 -25 62.5t-62 43.5t-80.5 37t-80.5 42t-62 58.5t-25 87.5q0 86 59.5 140t148.5 54h5q82 0 139.5 -45.5t67.5 -119.5
q3 -18 -10 -34.5t-35 -16.5h-15q-18 0 -29 10t-13 20l-3 11q-3 32 -28 56t-75 24h-2q-54 0 -78.5 -27.5t-24.5 -60.5q0 -34 34.5 -59.5t84 -46t99 -46t84 -71t34.5 -107.5q0 -93 -66 -153.5t-156 -60.5zM349 849l-136 -78q-11 -6 -22.5 -3t-17.5 14q-6 10 -3 22t14 19
l136 78q11 6 22.5 3t17.5 -14q6 -10 2.5 -22.5t-13.5 -18.5z" />
    <glyph glyph-name="sacute" unicode="&#x15b;" horiz-adv-x="441" 
d="M310 630q-2 -1 -67 -38.5t-68 -39.5q-11 -6 -23 -3t-18 14q-6 10 -2.5 22.5t13.5 18.5q2 1 67.5 38.5t68.5 39.5q11 6 22.5 3t17.5 -14q6 -10 3 -22t-14 -19zM415 131q-4 -65 -56.5 -106.5t-145.5 -37.5q-79 5 -138 30q-23 10 -27 32.5t3 29.5q6 13 21 20.5t35 0.5
q54 -23 115 -25q41 -2 66.5 10.5t26.5 35.5q1 18 -13.5 30.5t-39.5 21.5q-98 35 -135.5 53t-56.5 38q-32 33 -29 84q3 61 52.5 99.5t139.5 34.5q49 -2 109 -22q16 -7 24.5 -23.5t1.5 -34.5q-8 -19 -25 -25.5t-31 -1.5q-49 19 -84 22q-45 2 -67 -10.5t-23 -33.5
q-1 -18 14 -29t56 -27q133 -47 168 -76q41 -33 39 -90z" />
    <glyph glyph-name="Scircumflex" unicode="&#x15c;" horiz-adv-x="525" 
d="M265 -15h-11q-75 0 -135.5 44t-79.5 115q-5 19 8 37t35 18h15q4 0 10 -0.5t18.5 -10.5t17.5 -29q10 -36 43 -58.5t73 -22.5q48 0 84 31t36 78q0 35 -25 62.5t-62 43.5t-80.5 37t-80.5 42t-62 58.5t-25 87.5q0 86 59 140t149 54h5q82 0 139 -45.5t67 -119.5
q3 -17 -9.5 -34t-34.5 -17h-15q-18 0 -29 10t-13 20l-3 11q-4 32 -28.5 56t-74.5 24h-2q-54 0 -78.5 -27.5t-24.5 -60.5q0 -34 34.5 -59.5t83.5 -46t98.5 -46t84 -71t34.5 -107.5q0 -93 -65.5 -153.5t-155.5 -60.5zM337 782l-84 48l-83 -48q-11 -6 -23 -3t-18 14
q-6 10 -2.5 22.5t13.5 18.5q2 1 49.5 28t48.5 28q16 7 30 0q3 -2 50 -28.5t49 -27.5q10 -6 13.5 -18.5t-2.5 -22.5t-18.5 -13.5t-22.5 2.5z" />
    <glyph glyph-name="scircumflex" unicode="&#x15d;" horiz-adv-x="441" 
d="M415 131q-4 -65 -56.5 -106.5t-145.5 -37.5q-79 5 -138 30q-23 10 -27 32.5t3 29.5q6 13 21 20.5t35 0.5q54 -23 115 -25q41 -2 66.5 10.5t26.5 35.5q1 18 -13.5 30.5t-39.5 21.5q-98 35 -135.5 53t-56.5 38q-32 33 -29 84q3 61 52.5 99.5t139.5 34.5q49 -2 109 -22
q16 -7 24.5 -23.5t1.5 -34.5q-8 -19 -25 -25.5t-31 -1.5q-49 19 -84 22q-45 2 -67 -10.5t-23 -33.5q-1 -18 14 -29t56 -27q133 -47 168 -76q41 -33 39 -90zM307 563l-84 48l-83 -48q-11 -6 -23 -3t-18 14q-6 10 -2.5 22.5t13.5 18.5q2 1 49.5 28t48.5 28q15 7 30 0
q3 -2 50 -28.5t49 -27.5q10 -6 13.5 -18.5t-2.5 -22.5t-18.5 -13.5t-22.5 2.5z" />
    <glyph glyph-name="Scedilla" unicode="&#x15e;" horiz-adv-x="525" 
d="M268 -77h-41q-17 -2 -19 17v49q-61 12 -107.5 53.5t-61.5 101.5q-5 19 8 37t35 18h15q4 0 10 -0.5t18.5 -10.5t17.5 -29q10 -36 43 -58.5t73 -22.5q48 0 84 31t36 78q0 35 -25 62.5t-62 43.5t-80.5 37t-80.5 42t-62 58.5t-25 87.5q0 86 59 140t149 54h5q81 0 138.5 -45.5
t67.5 -119.5q3 -18 -9.5 -34.5t-34.5 -16.5h-15q-18 0 -29 10t-13 20l-3 11q-4 32 -28.5 56t-74.5 24h-2q-54 0 -78.5 -27.5t-24.5 -60.5q0 -34 34.5 -59.5t83.5 -46t98.5 -46t84 -71t34.5 -107.5q0 -93 -66 -153.5t-156 -60.5h-12v-20h17q32 0 55 -23t23 -56
q0 -32 -22.5 -55.5t-57.5 -23.5q-33 0 -63 19q-10 7 -11.5 15.5t1.5 12.5l3 5q1 2 4 4t12.5 4.5t19.5 -5.5q20 -11 33 -11q18 0 27 10.5t9 26.5q0 14 -10 24.5t-24 10.5z" />
    <glyph glyph-name="scedilla" unicode="&#x15f;" horiz-adv-x="441" 
d="M239 -77h-40q-18 -2 -19 17v50q-60 8 -105 27q-23 10 -27 32.5t3 29.5q6 13 21 20.5t35 0.5q54 -23 115 -25q41 -2 66.5 10.5t26.5 35.5q1 18 -13.5 30.5t-39.5 21.5q-98 35 -135.5 53t-56.5 38q-32 33 -29 84q3 61 52.5 99.5t139.5 34.5q49 -2 109 -22q16 -7 24.5 -23.5
t1.5 -34.5q-8 -19 -25 -25.5t-31 -1.5q-49 19 -84 22q-45 2 -67 -10.5t-23 -33.5q-1 -18 14 -29t56 -27q133 -47 168 -76q41 -33 39 -90q-4 -64 -53.5 -104.5t-137.5 -39.5v-22h17q32 0 55 -23t23 -56q0 -32 -22.5 -55.5t-57.5 -23.5q-33 0 -63 19q-10 7 -11.5 15.5
t1.5 12.5l3 5q1 2 4 4t12.5 4.5t19.5 -5.5q20 -11 33 -11q17 0 26.5 11t9.5 26q0 14 -10.5 24.5t-24.5 10.5z" />
    <glyph glyph-name="Scaron" unicode="&#x160;" horiz-adv-x="526" 
d="M265 -15h-11q-75 0 -135.5 44t-79.5 115q-5 19 8 37t36 18h14q4 0 10 -0.5t18.5 -10.5t17.5 -29q10 -36 43 -58.5t73 -22.5q49 0 84.5 31t35.5 78q0 35 -25 62.5t-62 43.5t-80.5 37t-80.5 42t-62 58.5t-25 87.5q0 86 59.5 140t148.5 54h5q82 0 139.5 -45.5t67.5 -119.5
q3 -18 -10 -34.5t-35 -16.5h-15q-18 0 -29 10t-13 20l-3 11q-3 32 -28 56t-75 24h-2q-54 0 -78.5 -27.5t-24.5 -60.5q0 -34 34.5 -59.5t84 -46t99 -46t84 -71t34.5 -107.5q0 -93 -66 -153.5t-156 -60.5zM373 838l-99 -56q-16 -8 -30 0q-1 1 -49 28t-49 28q-10 6 -13.5 18.5
t2.5 22.5q6 11 18 14t23 -4l83 -47l84 47q11 7 23 4t18 -14q6 -10 2.5 -22.5t-13.5 -18.5z" />
    <glyph glyph-name="scaron" unicode="&#x161;" horiz-adv-x="440" 
d="M413 131q-4 -65 -56.5 -106.5t-145.5 -37.5q-79 5 -138 30q-23 10 -27 32.5t3 29.5q6 13 21 20.5t35 0.5q54 -23 115 -25q41 -2 66.5 10.5t26.5 35.5q1 18 -13.5 30.5t-39.5 21.5q-98 35 -135.5 53t-56.5 38q-32 33 -29 84q3 61 52.5 99.5t139.5 34.5q49 -2 109 -22
q16 -7 24.5 -23.5t1.5 -34.5q-8 -19 -25 -25.5t-31 -1.5q-49 19 -84 22q-45 2 -67 -10.5t-23 -33.5q-1 -18 14 -29t56 -27q133 -47 168 -76q41 -33 39 -90zM332 619l-98 -56q-16 -7 -30 0q-3 2 -50 28.5t-49 27.5q-10 6 -13.5 18.5t2.5 22.5q7 11 18.5 14t22.5 -3l84 -48
l84 48q11 6 22.5 3t17.5 -14q6 -10 3 -22.5t-14 -18.5z" />
    <glyph glyph-name="uni0162" unicode="&#x162;" horiz-adv-x="536" 
d="M278 -77h-40q-18 -2 -19 17v670h-159q-19 0 -32 13.5t-13 31.5t13 31.5t32 13.5h416q19 0 32 -13.5t13 -31.5t-13 -31.5t-32 -13.5h-157v-565q0 -19 -13 -32t-31 -13h-12v-35h17q32 0 55 -23.5t23 -55.5t-23 -55.5t-57 -23.5q-33 0 -63 19q-10 7 -11.5 15t1.5 13l3 5
q1 2 4 4t12 4t20 -6q22 -10 33 -10q17 0 26.5 11t9.5 26q0 14 -10.5 24.5t-24.5 10.5z" />
    <glyph glyph-name="tcedilla" unicode="&#x163;" horiz-adv-x="357" 
d="M263 -77h-41q-17 -2 -19 17v62q-76 10 -109.5 62t-33.5 124v467q0 17 12.5 31t32.5 14h7q18 0 31.5 -13t13.5 -32v-183h108q18 0 31.5 -13t13.5 -32t-13.5 -32t-31.5 -13h-108v-191q0 -101 87 -101h53q18 0 31.5 -13t13.5 -32q0 -20 -13.5 -32.5t-31.5 -12.5h-50v-35h17
q32 0 55 -23t23 -56q0 -32 -22.5 -55.5t-57.5 -23.5q-33 0 -63 19q-10 7 -11.5 15.5t1.5 12.5l3 5q1 2 4 4t12.5 4.5t20.5 -5.5q19 -11 32 -11q18 0 27 10.5t9 26.5q0 14 -10 24.5t-24 10.5z" />
    <glyph glyph-name="Tcaron" unicode="&#x164;" horiz-adv-x="536" 
d="M275 0h-11q-19 0 -31.5 14t-12.5 31v565h-160q-19 0 -32 13.5t-13 31.5t13 31.5t32 13.5h416q19 0 32 -13.5t13 -31.5t-13 -31.5t-32 -13.5h-156v-565q0 -19 -13.5 -32t-31.5 -13zM268 842l84 47q11 6 22.5 3t18.5 -14q6 -11 3 -22.5t-14 -17.5q-3 -2 -50 -28.5
t-49 -27.5q-16 -8 -30 0q-2 1 -49.5 28t-48.5 28q-11 6 -14 18t3 22q6 11 17.5 14t22.5 -3z" />
    <glyph glyph-name="tcaron" unicode="&#x165;" horiz-adv-x="358" 
d="M298 0h-62q-93 0 -134.5 54t-41.5 134v467q0 17 12.5 31t32.5 14h8q17 0 30.5 -13t13.5 -32v-183h109q18 0 31 -13t13 -32t-13 -32t-31 -13h-109v-191q0 -53 22 -77t66 -24h53q18 0 31.5 -13t13.5 -32t-14 -32t-31 -13zM294 564h-21q-13 0 -18.5 5.5t-4.5 10.5v6l14 60
q6 22 34 25h21q13 0 18.5 -5.5t4.5 -11.5v-6l-14 -59q-7 -25 -34 -25z" />
    <glyph glyph-name="Tbar" unicode="&#x166;" horiz-adv-x="536" 
d="M274 0h-10q-19 0 -32 14t-13 31v304h-100q-18 0 -31 13.5t-13 31.5t13 31.5t31 13.5h100v171h-160q-18 0 -31 13.5t-13 31.5t13 31.5t31 13.5h417q19 0 32 -13.5t13 -31.5t-13.5 -31.5t-31.5 -13.5h-157v-171h98q19 0 32 -13.5t13 -31.5t-13 -31.5t-32 -13.5h-98v-304
q0 -19 -13.5 -32t-31.5 -13z" />
    <glyph glyph-name="tbar" unicode="&#x167;" horiz-adv-x="365" 
d="M298 0h-62q-93 0 -134.5 54t-41.5 134v467q0 17 12.5 31t32.5 14h8q17 0 30.5 -13t13.5 -32v-128h109q18 0 31 -13t13 -32t-13 -32t-32 -13h-108v-55h109q18 0 31 -13t13 -32q0 -18 -13 -31t-32 -13h-108v-102q0 -53 22 -77t66 -24h53q18 0 31.5 -13t13.5 -32t-14 -32
t-31 -13z" />
    <glyph glyph-name="Utilde" unicode="&#x168;" horiz-adv-x="535" 
d="M289 -12h-43q-83 2 -134.5 54.5t-51.5 138.5v474q0 19 13.5 32t31.5 13h10q19 0 32 -13t13 -32v-474q0 -98 88 -98h40q87 0 87 98v474q0 19 13 32t33 13h9q18 0 31.5 -13t13.5 -32v-474q0 -86 -51.5 -138.5t-134.5 -54.5zM402 835l-31 -32q-3 -3 -9 -6.5t-26.5 -9
t-42.5 5.5q-15 5 -63 27q-22 8 -36 -6l-19 -19q-8 -9 -20.5 -9t-21.5 8q-8 9 -8.5 21.5t8.5 20.5q4 6 29 31q30 30 79 13q18 -9 63 -27q24 -10 38 4l17 19q2 2 5.5 4.5t15.5 5t22 -8.5t8.5 -23t-8.5 -19z" />
    <glyph glyph-name="utilde" unicode="&#x169;" horiz-adv-x="556" 
d="M452 0h-52q-60 -13 -132 -13q-218 0 -218 227v213q0 20 13.5 32.5t31.5 12.5h7q18 0 31.5 -12.5t13.5 -32.5v-218q0 -56 24 -89.5t80.5 -44.5t148.5 18v334q0 18 12.5 31.5t31.5 13.5h8q17 0 30.5 -13t13.5 -32v-382q0 -18 -13 -31.5t-31 -13.5zM408 617l-31 -33
q-1 -1 -3.5 -3t-10 -6t-16 -6t-22 -1t-27.5 7q-2 1 -63 26q-20 9 -36 -5l-18 -20q-9 -8 -21.5 -8t-20.5 8q-9 8 -9 20.5t8 21.5l8 8t14 15l8 8q30 30 78 12q16 -8 63 -26q23 -11 38 4l18 18q2 2 5.5 4.5t15.5 5.5t22 -8q10 -12 8.5 -24t-8.5 -18z" />
    <glyph glyph-name="Umacron" unicode="&#x16a;" horiz-adv-x="534" 
d="M289 -12h-43q-83 2 -134.5 54.5t-51.5 138.5v474q0 19 13.5 32t31.5 13h9q20 0 33 -13t13 -32v-474q0 -98 87 -98h40q88 0 88 98v474q0 19 13 32t32 13h10q18 0 31 -13t13 -32v-474q0 -86 -51.5 -138.5t-133.5 -54.5zM346 802h-157q-13 0 -21.5 9t-8.5 21t8.5 21t21.5 9
h157q12 0 20.5 -9t8.5 -21t-8.5 -21t-20.5 -9z" />
    <glyph glyph-name="umacron" unicode="&#x16b;" horiz-adv-x="557" 
d="M452 0h-52q-58 -13 -132 -13q-30 0 -56.5 4.5t-57.5 19t-53 38t-36.5 66t-14.5 99.5v213q0 20 14 32.5t31 12.5h7q18 0 31.5 -12.5t13.5 -32.5v-218q0 -56 24.5 -89.5t80.5 -44.5t148 18v334q0 18 13 31.5t32 13.5h7q18 0 31.5 -12.5t13.5 -32.5v-382q0 -18 -13 -31.5
t-32 -13.5zM352 584h-157q-12 0 -21 9t-9 21t9 21t21 9h157q12 0 21 -9t9 -21q0 -13 -9 -21.5t-21 -8.5z" />
    <glyph glyph-name="Ubreve" unicode="&#x16c;" horiz-adv-x="534" 
d="M288 -12h-42q-83 2 -134.5 54.5t-51.5 138.5v474q0 19 13 32t31 13h10q19 0 32 -13t13 -32v-474q0 -98 88 -98h40q88 0 88 98v474q0 19 12.5 32t32.5 13h9q18 0 31.5 -13t13.5 -32v-474q0 -86 -51.5 -138.5t-134.5 -54.5zM355 904h14q12 0 17 -9t3 -17q-9 -42 -43 -70
t-79 -28t-80 29t-43 73q-3 22 20 22h18q14 0 21 -20q7 -21 24.5 -34t39.5 -13t40 13.5t24 33.5q7 20 24 20z" />
    <glyph glyph-name="ubreve" unicode="&#x16d;" horiz-adv-x="557" 
d="M452 0h-52q-58 -13 -132 -13q-30 0 -56.5 4.5t-57.5 19t-53 38t-36.5 66t-14.5 99.5v213q0 20 14 32.5t31 12.5h7q18 0 31.5 -12.5t13.5 -32.5v-218q0 -56 24.5 -89.5t80.5 -44.5t148 18v334q0 18 13 31.5t32 13.5h7q18 0 31.5 -12.5t13.5 -32.5v-382q0 -18 -13 -31.5
t-32 -13.5zM362 687h13q12 0 17.5 -9t3.5 -17q-9 -43 -43.5 -71t-78.5 -28q-45 0 -80 29.5t-43 73.5q-1 7 3.5 14.5t16.5 7.5h18q15 0 21 -21q7 -20 24.5 -33t39.5 -13t39.5 13t24.5 33q6 21 24 21z" />
    <glyph glyph-name="Uring" unicode="&#x16e;" horiz-adv-x="535" 
d="M289 -12h-43q-83 2 -134.5 54.5t-51.5 138.5v474q0 19 13.5 32t31.5 13h9q20 0 33 -13t13 -32v-474q0 -98 87 -98h40q88 0 88 98v474q0 19 13 32t32 13h10q18 0 31.5 -13t13.5 -32v-474q0 -86 -51.5 -138.5t-134.5 -54.5zM346 846q0 -32 -23 -55t-56 -23q-32 0 -55 23
t-23 55q0 33 23 56t55 23q33 0 56 -23t23 -56zM305 846q0 16 -11 27t-27 11t-26.5 -11t-10.5 -27q0 -15 10.5 -26t26.5 -11t27 11t11 26z" />
    <glyph glyph-name="uring" unicode="&#x16f;" horiz-adv-x="556" 
d="M451 0h-52q-59 -13 -131 -13q-218 0 -218 227v213q0 20 13.5 32.5t30.5 12.5h8q17 0 30.5 -13t13.5 -32v-218q0 -56 24.5 -89.5t80.5 -44.5t148 18v334q0 18 13 31.5t32 13.5h7q18 0 31.5 -12.5t13.5 -32.5v-382q0 -18 -13 -31.5t-32 -13.5zM273 550q-32 0 -55 23t-23 55
t23 55.5t55 23.5t55 -23.5t23 -55.5t-23 -55t-55 -23zM273 590q16 0 27 11t11 27t-11 27t-27 11t-27 -11t-11 -27t11 -27t27 -11z" />
    <glyph glyph-name="Uhungarumlaut" unicode="&#x170;" horiz-adv-x="535" 
d="M289 -12h-43q-83 2 -134.5 54.5t-51.5 138.5v474q0 19 13.5 32t31.5 13h10q19 0 32 -13t13 -32v-474q0 -98 87 -98h41q87 0 87 98v474q0 19 13 32t32 13h10q18 0 31.5 -13t13.5 -32v-474q0 -86 -51.5 -138.5t-134.5 -54.5zM324 782h-20q-13 0 -19 5.5t-5 10.5v6l14 60
q7 25 34 25h21q13 0 18.5 -5.5t4.5 -11.5v-6l-13 -59q-7 -25 -35 -25zM207 782h-21q-13 0 -18.5 5.5t-5.5 10.5l1 6l14 60q7 25 34 25h21q13 0 18.5 -5.5t5.5 -11.5l-1 -6l-14 -59q-7 -25 -34 -25z" />
    <glyph glyph-name="uhungarumlaut" unicode="&#x171;" horiz-adv-x="557" 
d="M452 0h-52q-58 -13 -132 -13q-30 0 -56.5 4.5t-57.5 19t-53 38t-36.5 66t-14.5 99.5v213q0 20 14 32.5t31 12.5h8q17 0 30.5 -13t13.5 -32v-218q0 -56 24.5 -89.5t80.5 -44.5t148 18v334q0 18 13 31.5t32 13.5h7q18 0 31.5 -12.5t13.5 -32.5v-382q0 -18 -13 -31.5
t-32 -13.5zM268 648l-13 -60q-7 -24 -35 -24q-15 0 -20 -1q-13 0 -19 5.5t-5 11.5v6l14 60q6 22 34 25h21q13 0 18.5 -5.5t4.5 -11.5v-6zM386 648l-14 -60q-7 -24 -34 -24q-15 0 -21 -1q-13 0 -18.5 5.5t-4.5 11.5v6l14 60q6 22 34 25h21q13 0 18.5 -5.5t4.5 -11.5v-6z" />
    <glyph glyph-name="Uogonek" unicode="&#x172;" horiz-adv-x="534" 
d="M375 181v474q0 19 12.5 32t32.5 13h9q18 0 31.5 -13t13.5 -32v-474q0 -85 -49 -137t-129 -56q4 -37 29.5 -60.5t61.5 -23.5q11 0 19 -7.5t8 -19.5t-8.5 -20t-18.5 -8q-63 0 -106 40t-47 99q-78 5 -126 57.5t-48 135.5v474q0 19 13 32t31 13h10q19 0 32 -13t13 -32v-474
q0 -98 88 -98h40q88 0 88 98z" />
    <glyph glyph-name="uogonek" unicode="&#x173;" horiz-adv-x="574" 
d="M400 93v334q0 18 12.5 31.5t32.5 13.5h7q17 0 31 -13t14 -32v-382q0 -17 -12 -30.5t-30 -14.5q0 -42 26.5 -68.5t65.5 -26.5q11 0 19 -8t8 -20t-8.5 -19.5t-18.5 -7.5q-66 0 -109.5 43t-44.5 106q-58 -12 -125 -12q-218 0 -218 227v213q0 20 13.5 32.5t31.5 12.5h7
q18 0 31.5 -12.5t13.5 -32.5v-218q0 -56 24 -89.5t80.5 -44.5t148.5 18z" />
    <glyph glyph-name="Wcircumflex" unicode="&#x174;" horiz-adv-x="907" 
d="M645 136l143 531q1 4 3.5 9.5t15 14.5t31.5 9h18q48 0 35 -45l-173 -610q-1 -2 -2 -5t-6.5 -10.5t-13 -13.5t-21 -11t-30.5 -5q-16 0 -29.5 4.5t-21 11t-12.5 13.5t-7 11l-2 5q-75 219 -120 348l-119 -348q-1 -2 -2 -5t-6.5 -10.5t-13 -13.5t-21 -11t-30.5 -5
q-16 0 -29.5 4.5t-21 11t-12.5 13.5t-7 11l-2 5q-165 582 -173 610q-13 45 35 45h18q19 0 31.5 -8t15.5 -16l3 -9l143 -531l146 432q1 4 4 9t14.5 14t26.5 9t26.5 -8t15.5 -16l4 -8zM537 782l-84 48l-83 -48q-11 -6 -23 -3t-18 14t-3 22.5t14 18.5q2 1 49.5 28t48.5 28
q16 7 30 0q3 -2 50 -28.5t49 -27.5q11 -7 14 -18.5t-3 -22.5q-6 -10 -18.5 -13.5t-22.5 2.5z" />
    <glyph glyph-name="wcircumflex" unicode="&#x175;" horiz-adv-x="727" 
d="M453 45l-90 272l-90 -272q-2 -5 -6 -12.5t-19.5 -20t-34.5 -12.5t-34 11t-21 23l-6 11q-129 361 -136 382q-8 17 0 31t32 14h17q15 0 25.5 -8t13.5 -16l4 -8l105 -297l99 295q1 4 4.5 9.5t16.5 15t30 9.5t30 -8.5t17 -17.5l5 -8l99 -295l104 297q1 4 3.5 9t13 14t23.5 9
h17q51 0 36 -45l-136 -382q-2 -5 -5.5 -12.5t-19 -20t-35.5 -12.5t-35.5 11t-21.5 23zM364 612l-84 -48q-10 -6 -22.5 -2.5t-18.5 13.5q-6 11 -3 22.5t14 17.5q3 2 50 28.5t49 27.5q13 7 30 0l98 -56q11 -6 14 -17.5t-3 -22.5t-17.5 -14t-22.5 3q-32 16 -84 48z" />
    <glyph glyph-name="Ycircumflex" unicode="&#x176;" horiz-adv-x="563" 
d="M287 0h-11q-19 0 -31.5 14t-12.5 31v290q-196 295 -212 320q-13 19 -4 32t35 13h28q15 0 28 -8t19 -16l5 -9l151 -227l150 227q21 33 58 33h21q27 0 36 -14t-3 -31l-212 -320v-290q0 -19 -13.5 -32t-31.5 -13zM365 782l-84 48l-83 -48q-11 -6 -23 -3t-18 14t-3 22.5
t14 18.5q2 1 49.5 28t48.5 28q16 7 30 0q3 -2 50 -28.5t49 -27.5q11 -7 14 -18.5t-3 -22.5t-18 -14t-23 3z" />
    <glyph glyph-name="ycircumflex" unicode="&#x177;" horiz-adv-x="519" 
d="M67 -220h-40q-17 0 -31 12t-14 32q0 18 12.5 31.5t32.5 13.5h29q34 0 56.5 15t41.5 53l62 122q-174 342 -187 368q-10 20 -0.5 32.5t33.5 12.5h15q16 0 28 -8t16 -16l4 -8l140 -281l140 281q14 32 43 32h20q27 0 35.5 -12t-2.5 -33l-264 -520q-34 -70 -74 -98.5
t-96 -28.5zM347 564l-84 48q-11 -7 -31.5 -18.5t-35.5 -20t-16 -9.5q-11 -6 -23 -3t-18 14t-3 22.5t14 17.5l98 56q14 8 30 0q2 -1 49 -27.5t50 -28.5q11 -6 14 -17.5t-3 -22.5q-6 -10 -18.5 -13.5t-22.5 2.5z" />
    <glyph glyph-name="Ydieresis" unicode="&#x178;" horiz-adv-x="562" 
d="M286 0h-10q-19 0 -32 14t-13 31v290q-196 295 -212 320q-12 19 -3.5 32t34.5 13h29q15 0 27.5 -8t17.5 -16l6 -9l151 -227l151 227q20 33 58 33h20q27 0 36 -14t-3 -31l-212 -320v-290q0 -19 -13.5 -32t-31.5 -13zM201 791h-9q-16 0 -27 11.5t-11 25.5v13q0 14 11 25.5
t27 11.5h9q15 0 26 -10.5t11 -26.5v-13q0 -16 -11 -26.5t-26 -10.5zM370 791h-9q-16 0 -26.5 11.5t-10.5 25.5v13q0 14 10.5 25.5t26.5 11.5h9q15 0 26 -10.5t11 -26.5v-13q0 -16 -11 -26.5t-26 -10.5z" />
    <glyph glyph-name="Zacute" unicode="&#x179;" horiz-adv-x="629" 
d="M547 0h-456q-26 0 -39 23t1 46l370 541h-332q-17 0 -31 12.5t-14 32.5t14 32.5t31 12.5h426q25 0 38 -22t0 -46l-370 -543h362q19 0 32 -13t13 -31q0 -20 -13.5 -32.5t-31.5 -12.5zM236 822l136 79q10 6 22.5 2.5t18.5 -13.5t2.5 -22.5t-13.5 -18.5q-1 -1 -67.5 -38.5
t-68.5 -39.5q-10 -6 -22.5 -2.5t-18.5 13.5q-6 11 -3 22.5t14 17.5z" />
    <glyph glyph-name="zacute" unicode="&#x17a;" horiz-adv-x="405" 
d="M334 0h-262q-25 0 -38.5 22t1.5 48l197 313h-145q-18 0 -31.5 13t-13.5 32t13 31.5t32 12.5h225q26 0 38.5 -23.5t-0.5 -44.5l-197 -314h179q19 0 32.5 -13t13.5 -32q0 -20 -13.5 -32.5t-30.5 -12.5zM286 631l-136 -78q-11 -6 -23 -3t-18 14t-3 22.5t14 17.5
q3 2 68.5 39.5t67.5 38.5q11 6 22.5 3t17.5 -14q6 -10 3 -22t-13 -18z" />
    <glyph glyph-name="Zdotaccent" unicode="&#x17b;" horiz-adv-x="628" 
d="M546 0h-456q-26 0 -38.5 23t1.5 46l369 541h-332q-17 0 -30.5 12.5t-13.5 32.5t13.5 32.5t30.5 12.5h426q25 0 38 -22t0 -46l-369 -543h361q19 0 32 -13t13 -31q0 -20 -13.5 -32.5t-31.5 -12.5zM324 783h-11q-19 0 -31.5 14t-12.5 31v15q0 17 12.5 31t31.5 14h11
q18 0 31 -13t13 -32v-15q0 -19 -13 -32t-31 -13z" />
    <glyph glyph-name="zdotaccent" unicode="&#x17c;" horiz-adv-x="405" 
d="M334 0h-262q-25 0 -38.5 22t1.5 48l197 313h-145q-18 0 -31.5 13t-13.5 32t13 31.5t32 12.5h225q26 0 38.5 -23.5t-0.5 -44.5l-197 -314h179q19 0 32.5 -13t13.5 -32q0 -20 -13.5 -32.5t-30.5 -12.5zM208 565h-10q-19 0 -32 14t-13 31v15q0 17 13 31t32 14h10
q18 0 31.5 -13t13.5 -32v-15q0 -19 -13.5 -32t-31.5 -13z" />
    <glyph glyph-name="Zcaron" unicode="&#x17d;" horiz-adv-x="629" 
d="M547 0h-456q-26 0 -39 23t1 46l370 541h-332q-17 0 -31 12.5t-14 32.5t14 32.5t31 12.5h426q25 0 38 -22t0 -46l-370 -543h362q19 0 32 -13t13 -31q0 -20 -13.5 -32.5t-31.5 -12.5zM319 842l84 47q11 6 22.5 3t17.5 -14q7 -11 4 -22.5t-14 -17.5q-3 -2 -50 -28.5
t-49 -27.5q-16 -8 -30 0q-2 1 -49.5 28t-48.5 28q-11 6 -14 18t3 22q6 11 17.5 14t22.5 -3z" />
    <glyph glyph-name="zcaron" unicode="&#x17e;" horiz-adv-x="407" 
d="M335 0h-261q-25 0 -38.5 22t0.5 48l198 313h-145q-18 0 -31.5 13t-13.5 32t13 31.5t32 12.5h224q27 0 39.5 -23.5t-0.5 -44.5l-197 -314h179q19 0 32.5 -13t13.5 -32q0 -20 -14 -32.5t-31 -12.5zM318 620l-98 -56q-14 -8 -30 0q-2 1 -49 27.5t-50 28.5q-11 6 -14 17.5
t3 22.5q6 10 18.5 13.5t22.5 -2.5l84 -48q11 7 31.5 18.5t35.5 20t16 9.5q11 6 23 3t18 -14t3 -22.5t-14 -17.5z" />
    <glyph glyph-name="longs" unicode="&#x17f;" 
 />
    <glyph glyph-name="florin" unicode="&#x192;" horiz-adv-x="631" 
d="M79 -236h-61q-18 0 -29 13t-7 32t19.5 32t33.5 13h53q89 0 108 101l109 556q15 81 67 135t146 54h61q17 0 28.5 -13t7.5 -32t-20 -32t-33 -13h-54q-88 0 -107 -101l-7 -38h108q18 0 29 -12.5t7 -31.5t-19.5 -32t-33.5 -13h-109l-84 -429q-15 -81 -67 -135t-146 -54z" />
    <glyph glyph-name="Aringacute" unicode="&#x1fa;" 
 />
    <glyph glyph-name="aringacute" unicode="&#x1fb;" 
 />
    <glyph glyph-name="AEacute" unicode="&#x1fc;" 
 />
    <glyph glyph-name="aeacute" unicode="&#x1fd;" 
 />
    <glyph glyph-name="Oslashacute" unicode="&#x1fe;" 
 />
    <glyph glyph-name="oslashacute" unicode="&#x1ff;" 
 />
    <glyph glyph-name="Scommaaccent" unicode="&#x218;" 
 />
    <glyph glyph-name="scommaaccent" unicode="&#x219;" 
 />
    <glyph glyph-name="uni021B" unicode="&#x21b;" 
 />
    <glyph glyph-name="circumflex" unicode="&#x2c6;" horiz-adv-x="476" 
d="M322 563l-84 48l-84 -48q-11 -6 -22.5 -3t-17.5 14q-7 11 -4 23t14 18q2 1 49 27.5t50 28.5q14 8 30 0l98 -56q11 -6 14 -18.5t-3 -22.5q-6 -11 -17.5 -14t-22.5 3z" />
    <glyph glyph-name="caron" unicode="&#x2c7;" horiz-adv-x="476" 
d="M223 563l-99 56q-11 6 -14 18t4 23q6 11 17.5 14t22.5 -3l84 -48l84 48q11 6 22.5 3t17.5 -14q6 -10 3 -22.5t-14 -18.5q-1 -1 -49 -28t-49 -28q-14 -8 -30 0z" />
    <glyph glyph-name="breve" unicode="&#x2d8;" horiz-adv-x="477" 
d="M327 687h14q11 0 16.5 -9.5t3.5 -17.5q-9 -42 -43 -70t-79 -28t-80 29t-43 73q-3 23 20 23h18q14 0 21 -21t24.5 -34t39.5 -13t39.5 13t24.5 34t24 21z" />
    <glyph glyph-name="dotaccent" unicode="&#x2d9;" horiz-adv-x="454" 
d="M233 582h-11q-20 0 -32.5 13.5t-12.5 30.5v16q0 17 13 31t32 14h11q17 0 30.5 -13.5t13.5 -31.5v-15q0 -19 -13 -32t-31 -13z" />
    <glyph glyph-name="ring" unicode="&#x2da;" horiz-adv-x="465" 
d="M232 549q-32 0 -55 23.5t-23 55.5t23 55t55 23q33 0 56 -23t23 -55t-23 -55.5t-56 -23.5zM232 590q16 0 27 11t11 27t-11 27t-27 11t-26.5 -11t-10.5 -27t10.5 -27t26.5 -11z" />
    <glyph glyph-name="ogonek" unicode="&#x2db;" horiz-adv-x="478" 
d="M168 0h62q0 -42 26.5 -69t65.5 -27q11 0 19 -7.5t8 -19.5t-8.5 -19.5t-18.5 -7.5q-66 0 -110 43.5t-44 106.5z" />
    <glyph glyph-name="tilde" unicode="&#x2dc;" horiz-adv-x="390" 
d="M338 616l-31 -32q-3 -3 -9 -6.5t-26.5 -9t-42.5 5.5q-15 5 -63 27q-23 8 -36 -6l-19 -19q-8 -9 -20.5 -9t-21.5 9q-8 8 -8.5 20.5t8.5 21.5l29 30q31 31 79 13q18 -9 63 -27q25 -10 38 5l17 18q2 2 5.5 4.5t15.5 5t22 -8.5t8.5 -23t-8.5 -19z" />
    <glyph glyph-name="hungarumlaut" unicode="&#x2dd;" horiz-adv-x="421" 
d="M161 579h-20q-13 0 -19 5.5t-6 11.5l1 6l14 60q6 22 34 25h21q13 0 18.5 -5.5t5.5 -11.5l-1 -6l-14 -60q-5 -22 -34 -25zM279 579h-21q-13 0 -18.5 5.5t-5.5 11.5l1 6l14 60q6 22 34 25h21q13 0 18.5 -5.5t5.5 -11.5l-1 -6l-14 -60q-6 -22 -34 -25z" />
    <glyph glyph-name="uni03A9" unicode="&#x3a9;" horiz-adv-x="918" 
d="M848 0h-260q-19 0 -32 13t-13 32v47q81 27 131 96.5t50 161.5q0 115 -76.5 192.5t-188.5 77.5t-189 -77.5t-77 -192.5q0 -91 50.5 -161t131.5 -97v-47q0 -19 -13 -32t-32 -13h-260q-19 0 -32 13t-13 32q0 18 13 31.5t32 13.5h123q-106 104 -106 260q0 158 108 261
t264 103t264 -103t108 -261q0 -156 -107 -260h124q19 0 32 -13.5t13 -31.5q0 -19 -13 -32t-32 -13z" />
    <glyph glyph-name="pi" unicode="&#x3c0;" horiz-adv-x="696" 
d="M627 0h-35q-73 0 -109.5 41.5t-36.5 104.5v301h-233v-402q0 -19 -13 -32t-31 -13h-11q-19 0 -31.5 14t-12.5 31v402h-25q-18 0 -31 13.5t-13 31.5q0 19 13 32t31 13h496q19 0 32 -13t13 -32q0 -18 -13 -31.5t-32 -13.5h-39v-283q0 -42 16.5 -58.5t53.5 -16.5h11
q19 0 31.5 -13.5t12.5 -30.5q0 -19 -12.5 -32t-31.5 -13z" />
    <glyph glyph-name="Wgrave" unicode="&#x1e80;" 
 />
    <glyph glyph-name="wgrave" unicode="&#x1e81;" 
 />
    <glyph glyph-name="Wacute" unicode="&#x1e82;" 
 />
    <glyph glyph-name="wacute" unicode="&#x1e83;" 
 />
    <glyph glyph-name="Wdieresis" unicode="&#x1e84;" 
 />
    <glyph glyph-name="wdieresis" unicode="&#x1e85;" 
 />
    <glyph glyph-name="Ygrave" unicode="&#x1ef2;" 
 />
    <glyph glyph-name="ygrave" unicode="&#x1ef3;" 
 />
    <glyph glyph-name="endash" unicode="&#x2013;" horiz-adv-x="532" 
d="M458 211h-383q-19 0 -32 13.5t-13 31.5q0 19 13 32t32 13h383q18 0 31 -13t13 -32q0 -18 -13 -31.5t-31 -13.5z" />
    <glyph glyph-name="emdash" unicode="&#x2014;" horiz-adv-x="709" 
d="M634 211h-559q-19 0 -32 13.5t-13 31.5q0 19 13 32t32 13h559q19 0 32 -13t13 -32q0 -18 -13 -31.5t-32 -13.5z" />
    <glyph glyph-name="quoteleft" unicode="&#x2018;" horiz-adv-x="170" 
d="M95 536h-11q-18 0 -31 13t-13 32v16q0 13 3.5 23t6.5 14l4 3q42 47 49 55q8 8 16 8q21 0 21 -18v-101q0 -17 -13 -31t-32 -14z" />
    <glyph glyph-name="quoteright" unicode="&#x2019;" horiz-adv-x="169" 
d="M40 554v101q0 17 12.5 31t31.5 14h11q18 0 31 -13t13 -32v-16q0 -13 -3.5 -23t-6.5 -14l-3 -3q-42 -48 -49 -55q-8 -8 -17 -8q-20 0 -20 18z" />
    <glyph glyph-name="quotesinglbase" unicode="&#x201a;" horiz-adv-x="170" 
d="M40 -41v101q0 17 13 31t32 14h10q18 0 31.5 -13t13.5 -32v-16q0 -13 -3.5 -23t-6.5 -13l-4 -4q-42 -48 -49 -55q-8 -8 -17 -8q-20 0 -20 18z" />
    <glyph glyph-name="quotedblleft" unicode="&#x201c;" horiz-adv-x="323" 
d="M249 536h-11q-18 0 -31 13t-13 32v16q0 13 3 23t7 14l3 3q42 47 49 55q9 8 17 8q20 0 20 -18v-101q0 -17 -12.5 -31t-31.5 -14zM95 536h-11q-18 0 -31 13t-13 32v16q0 13 3 23t7 14l3 3q42 47 49 55q9 8 17 8q20 0 20 -18v-101q0 -17 -12.5 -31t-31.5 -14z" />
    <glyph glyph-name="quotedblright" unicode="&#x201d;" horiz-adv-x="323" 
d="M40 554v101q0 17 12.5 31t31.5 14h11q18 0 31 -13t13 -32v-16q0 -13 -3.5 -23t-6.5 -14l-3 -3q-42 -48 -49 -55q-9 -8 -17 -8q-20 0 -20 18zM194 554v101q0 17 12.5 31t31.5 14h11q18 0 31 -13t13 -32v-16q0 -13 -3.5 -23t-6.5 -14l-3 -3q-42 -48 -49 -55q-9 -8 -17 -8
q-20 0 -20 18z" />
    <glyph glyph-name="quotedblbase" unicode="&#x201e;" horiz-adv-x="323" 
d="M40 -41v101q0 17 13 31t32 14h10q18 0 31 -13t13 -32v-16q0 -13 -3.5 -23t-6.5 -13l-3 -4q-42 -48 -49 -55q-8 -8 -17 -8q-20 0 -20 18zM194 -41v101q0 17 13 31t32 14h10q18 0 31 -13t13 -32v-16q0 -13 -3.5 -23t-6.5 -13l-3 -4q-42 -48 -49 -55q-8 -8 -17 -8
q-20 0 -20 18z" />
    <glyph glyph-name="dagger" unicode="&#x2020;" horiz-adv-x="482" 
d="M246 -154h-10q-20 0 -32.5 13.5t-12.5 30.5v503h-116q-19 0 -32 13t-13 31v10q0 19 14 32t31 13h116v163q0 17 13 31t32 14h10q18 0 31.5 -13t13.5 -32v-163h116q17 0 31 -13t14 -32v-10q0 -18 -13 -31t-32 -13h-116v-502q0 -19 -13.5 -32t-31.5 -13z" />
    <glyph glyph-name="daggerdbl" unicode="&#x2021;" horiz-adv-x="492" 
d="M252 -154h-11q-19 0 -32 13.5t-13 30.5v311h-116q-19 0 -32 13.5t-13 31.5v10q0 19 14 32t31 13h116v92h-116q-19 0 -32 13t-13 31v10q0 19 14 32t31 13h116v163q0 17 13 31t32 14h11q18 0 31 -13t13 -32v-163h116q17 0 31 -13t14 -32v-10q0 -18 -13 -31t-32 -13h-116
v-92h116q17 0 31 -13t14 -32v-10q0 -18 -13 -31.5t-32 -13.5h-116v-310q0 -19 -13 -32t-31 -13z" />
    <glyph glyph-name="bullet" unicode="&#x2022;" horiz-adv-x="333" 
d="M288 344q0 -50 -36 -85.5t-86 -35.5t-85.5 35.5t-35.5 85.5t35.5 85.5t85.5 35.5t86 -35.5t36 -85.5z" />
    <glyph glyph-name="ellipsis" unicode="&#x2026;" horiz-adv-x="660" 
d="M335 0h-10q-18 0 -31.5 13t-13.5 32v15q0 19 13.5 32t31.5 13h10q19 0 32 -14t13 -31v-15q0 -17 -13 -31t-32 -14zM586 0h-11q-18 0 -31 13t-13 32v15q0 19 13 32t31 13h11q19 0 31.5 -14t12.5 -31v-15q0 -17 -12.5 -31t-31.5 -14zM85 0h-11q-18 0 -31 13t-13 32v15
q0 19 13 32t31 13h11q19 0 31.5 -14t12.5 -31v-15q0 -17 -12.5 -31t-31.5 -14z" />
    <glyph glyph-name="perthousand" unicode="&#x2030;" horiz-adv-x="1244" 
d="M665 -13q-71 0 -121.5 50.5t-50.5 121.5t50.5 121.5t121.5 50.5t121.5 -50.5t50.5 -121.5t-50.5 -121.5t-121.5 -50.5zM1042 -13q-71 0 -121.5 50.5t-50.5 121.5t50.5 121.5t121.5 50.5t121.5 -50.5t50.5 -121.5t-50.5 -121.5t-121.5 -50.5zM202 370q-71 0 -121.5 50.5
t-50.5 121.5t50.5 121.5t121.5 50.5t121.5 -50.5t50.5 -121.5t-50.5 -121.5t-121.5 -50.5zM231 0h-28q-28 0 -36.5 13t4.5 32l413 622q20 33 55 33h25q28 0 36 -13t-5 -32l-412 -623q-18 -32 -52 -32zM665 67q38 0 65 27t27 65t-27 65t-65 27t-65 -27t-27 -65t27 -65t65 -27
zM202 450q38 0 65 27t27 65t-27 65t-65 27t-65 -27t-27 -65t27 -65t65 -27zM1042 67q38 0 65 27t27 65t-27 65t-65 27t-64.5 -27t-26.5 -65t26.5 -65t64.5 -27z" />
    <glyph glyph-name="guilsinglleft" unicode="&#x2039;" horiz-adv-x="295" 
d="M228 126h-31q-15 0 -26.5 5t-16.5 10l-4 5l-108 143q-12 17 -11.5 39t11.5 37l108 142q14 21 47 21h31q28 0 34.5 -12t-10.5 -33l-118 -156l118 -157q17 -20 10.5 -32t-34.5 -12z" />
    <glyph glyph-name="guilsinglright" unicode="&#x203a;" horiz-adv-x="295" 
d="M98 126h-32q-28 0 -34 12t10 32l119 157l-119 156q-16 21 -10 33t34 12h32q15 0 26.5 -5t15.5 -11l5 -5l108 -142q11 -15 11.5 -37t-11.5 -39l-108 -143q-14 -20 -47 -20z" />
    <glyph glyph-name="fraction" unicode="&#x2044;" horiz-adv-x="570" 
d="M83 0h-28q-28 0 -36.5 13t4.5 32l413 622q20 33 55 33h25q28 0 36 -13t-5 -32l-412 -623q-18 -32 -52 -32z" />
    <glyph glyph-name="Euro" unicode="&#x20ac;" horiz-adv-x="773" 
d="M128 242h-25q-17 0 -31 13t-14 32q0 18 13 31.5t32 13.5h10v29h-43q-19 0 -32 13.5t-13 31.5q0 19 14 32t31 13h57q32 119 131 190.5t227 71.5q131 0 236 -78q16 -12 20 -32.5t-12 -41.5q-18 -18 -37 -17.5t-35 13.5q-74 63 -172 63q-112 0 -189 -78t-77 -193t77 -193
t189 -78q99 0 172 62q13 13 31.5 14t40.5 -16q16 -23 12.5 -42.5t-20.5 -32.5q-103 -79 -236 -79q-127 0 -225 70.5t-132 187.5zM534 361h-297q2 26 7.5 48.5t9.5 32.5l5 9h275q17 0 30.5 -13t13.5 -32q0 -18 -13 -31.5t-31 -13.5zM456 242h-195q-21 39 -24 90h219
q19 0 32 -13.5t13 -31.5q0 -19 -14 -32t-31 -13z" />
    <glyph glyph-name="trademark" unicode="&#x2122;" horiz-adv-x="355" 
d="M309 530h-2q-11 0 -11 11v125l-44 -94q-5 -9 -14 -9t-13 9l-44 94v-125q0 -11 -11 -11h-3q-10 0 -10 11v148q0 11 10 11h15q4 0 7.5 -2t4.5 -4l1 -2l43 -93l44 93q3 8 13 8h14q11 0 11 -11v-148q0 -11 -11 -11zM88 530h-2q-11 0 -11 11v137h-39q-11 0 -11 11t11 11h101
q11 0 11 -11t-11 -11h-38v-137q0 -11 -11 -11z" />
    <glyph glyph-name="Omega" unicode="&#x2126;" horiz-adv-x="918" 
d="M848 0h-260q-19 0 -32 13t-13 32v47q81 27 131 96.5t50 161.5q0 115 -76.5 192.5t-188.5 77.5t-189 -77.5t-77 -192.5q0 -91 50.5 -161t131.5 -97v-47q0 -19 -13 -32t-32 -13h-260q-19 0 -32 13t-13 32q0 18 13 31.5t32 13.5h123q-106 104 -106 260q0 158 108 261
t264 103t264 -103t108 -261q0 -156 -107 -260h124q19 0 32 -13.5t13 -31.5q0 -19 -13 -32t-32 -13z" />
    <glyph glyph-name="partialdiff" unicode="&#x2202;" horiz-adv-x="594" 
d="M544 488v-258q-1 -103 -72.5 -174t-179.5 -71q-109 0 -180.5 71.5t-71.5 175.5t72 175.5t180 71.5q83 0 151 -47v56q0 60 -37 97.5t-93 37.5q-39 0 -69.5 -19.5t-45.5 -50.5q-9 -18 -27.5 -25.5t-41.5 2.5q-22 11 -26 33.5t7 37.5q2 5 6.5 12.5t21.5 27t38 34.5t57.5 27
t79.5 12q99 0 165 -65.5t66 -160.5zM292 75q65 0 108 43.5t43 113.5t-43 113.5t-108 43.5t-108 -43.5t-43 -113.5t43 -113.5t108 -43.5z" />
    <glyph glyph-name="Delta" unicode="&#x2206;" horiz-adv-x="638" 
d="M582 0h-422q-16 0 -22.5 6.5t-5.5 13.5l2 6l15 40q10 24 36 24h314l-180 495l-200 -553q0 -1 -1 -3.5t-5 -8t-9 -9.5t-14 -7.5t-20 -3.5h-13q-25 0 -34.5 11t-6.5 23l3 11l242 622q1 1 2 3.5t5.5 8t10.5 10t16.5 8t23.5 3.5q20 0 35 -8t20 -16l4 -9l242 -622q1 -2 1.5 -5
t1 -10.5t-2.5 -13.5t-12.5 -11t-25.5 -5z" />
    <glyph glyph-name="product" unicode="&#x220f;" horiz-adv-x="754" 
d="M634 -196h-10q-20 0 -32.5 13.5t-12.5 30.5v902h-404v-902q0 -18 -13 -31t-31 -13h-11q-20 0 -32.5 13.5t-12.5 30.5v947q0 19 13 32t32 13h514q19 0 32 -13t13 -32v-947q0 -18 -13.5 -31t-31.5 -13z" />
    <glyph glyph-name="summation" unicode="&#x2211;" horiz-adv-x="742" 
d="M652 -201h-567q-19 0 -32 13t-13 32v76l399 399l-399 400v76q0 18 13 31.5t32 13.5h567q19 0 32 -13.5t13 -31.5q0 -19 -13 -32t-32 -13h-502l430 -431l-430 -430h502q19 0 32 -13.5t13 -31.5q0 -19 -13 -32t-32 -13z" />
    <glyph glyph-name="minus" unicode="&#x2212;" horiz-adv-x="532" 
d="M458 211h-383q-19 0 -32 13.5t-13 31.5q0 19 13 32t32 13h383q18 0 31 -13t13 -32q0 -18 -13 -31.5t-31 -13.5z" />
    <glyph glyph-name="radical" unicode="&#x221a;" horiz-adv-x="694" 
d="M411 -199h-24q-35 0 -52 36l-127 248q-20 37 -43 44.5t-55 -10.5l-9 -5q-18 -9 -35 -3t-25 22q-9 16 -3.5 34t21.5 26l31 16q71 32 119.5 13.5t77.5 -74.5l99 -189q23 111 68 321.5t79 368t35 158.5q7 36 48 36h15q21 0 31 -12.5t6 -31.5l-202 -948q-10 -50 -55 -50z" />
    <glyph glyph-name="infinity" unicode="&#x221e;" horiz-adv-x="687" 
d="M395 223l-51 52l-52 -52q-44 -44 -108 -44t-106.5 42.5t-42.5 103.5t42.5 103.5t106.5 42.5q66 0 107 -43l53 -53l52 53q41 43 107 43q64 0 106.5 -42.5t42.5 -103.5t-42.5 -103.5t-106.5 -42.5t-108 44zM292 325l-52 52q-24 24 -55 24q-32 0 -52.5 -21t-20.5 -55
t20.5 -55t52.5 -21q30 0 55 25zM395 325l52 -51q25 -25 55 -25q32 0 53 21.5t21 54.5q0 34 -21 55t-53 21q-31 0 -55 -24z" />
    <glyph glyph-name="integral" unicode="&#x222b;" horiz-adv-x="401" 
d="M105 -196h-35q-19 0 -32 13.5t-13 31.5t12.5 31.5t32.5 13.5h10q37 0 54 16.5t17 58.5v728q0 64 36 105t110 41h34q19 0 32 -13.5t13 -31.5t-12.5 -31.5t-32.5 -13.5h-10q-37 0 -54 -16.5t-17 -58.5v-728q0 -63 -36 -104.5t-109 -41.5z" />
    <glyph glyph-name="approxequal" unicode="&#x2248;" horiz-adv-x="510" 
d="M249 417q-43 21 -64 28.5t-43 1t-38 -33.5q-2 -5 -6.5 -11t-17.5 -14t-27 -1q-33 15 -4 66q60 112 230 20q31 -17 50.5 -23t41 0.5t35.5 33.5q1 2 2.5 4.5t7.5 9.5t12 9.5t14.5 5t16.5 -3.5q28 -15 3 -65q-19 -34 -44.5 -49.5t-55.5 -13t-56 11t-57 24.5zM249 201
q-43 21 -64 28.5t-43 1t-38 -33.5q-2 -4 -6.5 -10.5t-17.5 -14t-27 -1.5q-32 16 -4 66q60 112 230 20q31 -17 50.5 -23t41 0.5t35.5 33.5q1 2 2.5 4.5t7.5 9.5t12 9.5t14.5 5t16.5 -3.5q28 -15 3 -65q-19 -34 -44.5 -49.5t-55.5 -13t-56 11t-57 24.5z" />
    <glyph glyph-name="notequal" unicode="&#x2260;" horiz-adv-x="592" 
d="M513 191h-261l-109 -174q-8 -13 -20.5 -16t-27.5 5q-14 9 -16.5 22.5t5.5 24.5l86 138h-90q-19 0 -32 13t-13 31q0 19 13 32t32 13h147l64 103h-211q-19 0 -32 13t-13 32q0 18 13 31t32 13h267l110 174q18 29 47 11q30 -18 12 -47q-37 -58 -87 -138h84q18 0 31 -13
t13 -31q0 -19 -13 -32t-31 -13h-140l-65 -103h205q18 0 31 -13t13 -32q0 -18 -13 -31t-31 -13z" />
    <glyph glyph-name="lessequal" unicode="&#x2264;" horiz-adv-x="602" 
d="M563 229v-20q0 -48 -46 -31l-433 155q-5 2 -12.5 6.5t-20 21.5t-12.5 37t11 36.5t22 22.5l12 6l434 156q2 1 5 1.5t10.5 0.5t13.5 -2t11 -10t5 -21v-17q0 -16 -8.5 -28t-16.5 -16l-8 -4l-371 -125l370 -124q4 -1 9.5 -4t15 -14.5t9.5 -26.5zM522 0h-442q-19 0 -32 13
t-13 32q0 18 13 31.5t32 13.5h442q19 0 32 -13.5t13 -31.5q0 -19 -13 -32t-32 -13z" />
    <glyph glyph-name="greaterequal" unicode="&#x2265;" horiz-adv-x="602" 
d="M443 398l-371 125q-4 1 -9.5 4t-14.5 15.5t-9 28.5v17q0 20 11 28t22 6l12 -3l434 -156q5 -2 12.5 -6.5t20 -21.5t12.5 -37t-11.5 -36.5t-22.5 -22.5l-11 -6q-408 -147 -432 -155q-47 -17 -47 31v20q0 15 8.5 26t16.5 15l9 4zM522 0h-442q-19 0 -32 13t-13 32
q0 18 13 31.5t32 13.5h442q19 0 32 -13.5t13 -31.5q0 -19 -13 -32t-32 -13z" />
    <glyph glyph-name="lozenge" unicode="&#x25ca;" horiz-adv-x="452" 
d="M167 -16l-142 367l142 367q1 1 2 3.5t5.5 8t10.5 10t17 8t24 3.5q20 0 35 -8.5t19 -16.5l5 -8l142 -367l-142 -367q-2 -4 -5.5 -9.5t-18.5 -14.5t-35 -9t-35 8.5t-19 16.5zM226 66l103 285l-103 285l-103 -285z" />
    <glyph glyph-name="apple" unicode="&#xf8ff;" 
 />
    <glyph glyph-name="u1D76E" unicode="&#x1d76e;" horiz-adv-x="918" 
d="M848 0h-260q-19 0 -32 13t-13 32v47q81 27 131 96.5t50 161.5q0 115 -76.5 192.5t-188.5 77.5t-189 -77.5t-77 -192.5q0 -91 50.5 -161t131.5 -97v-47q0 -19 -13 -32t-32 -13h-260q-19 0 -32 13t-13 32q0 18 13 31.5t32 13.5h123q-106 104 -106 260q0 158 108 261
t264 103t264 -103t108 -261q0 -156 -107 -260h124q19 0 32 -13.5t13 -31.5q0 -19 -13 -32t-32 -13z" />
    <glyph glyph-name="uni0162.001" horiz-adv-x="526" 
d="M265 -15h-11q-75 0 -135.5 44t-79.5 115q-5 19 8 37t36 18h14q4 0 10 -0.5t18.5 -10.5t17.5 -29q10 -36 43 -58.5t73 -22.5q49 0 84.5 31t35.5 78q0 35 -25 62.5t-62 43.5t-80.5 37t-80.5 42t-62 58.5t-25 87.5q0 86 59.5 140t148.5 54h5q82 0 139.5 -45.5t67.5 -119.5
q3 -18 -10 -34.5t-35 -16.5h-15q-18 0 -29 10t-13 20l-3 11q-3 32 -28 56t-75 24h-2q-54 0 -78.5 -27.5t-24.5 -60.5q0 -34 34.5 -59.5t84 -46t99 -46t84 -71t34.5 -107.5q0 -93 -66 -153.5t-156 -60.5zM373 838l-99 -56q-16 -8 -30 0q-1 1 -49 28t-49 28q-10 6 -13.5 18.5
t2.5 22.5q6 11 18 14t23 -4l83 -47l84 47q11 7 23 4t18 -14q6 -10 2.5 -22.5t-13.5 -18.5z" />
    <glyph glyph-name="W.001" horiz-adv-x="907" 
d="M645 136l143 531q1 4 3.5 9.5t15 14.5t31.5 9h18q48 0 35 -45l-173 -611q-1 -2 -2 -5t-6.5 -10.5t-13 -13t-21 -10.5t-29.5 -5q-26 0 -44.5 11t-23.5 22l-5 11q-75 220 -119 349l-120 -349q-1 -2 -2 -5t-6.5 -10.5t-13 -13t-21 -10.5t-29.5 -5q-26 0 -44.5 11t-23.5 22
l-5 11q-165 583 -173 611q-13 45 35 45h18q19 0 31.5 -8t15.5 -16l3 -9l143 -531l146 432q1 4 4 9t15 14t27 9t26 -8t15 -16l4 -8z" />
    <glyph glyph-name="Kcommaaccent1" 
 />
    <glyph glyph-name="a.alt" 
 />
    <glyph glyph-name="a.001" horiz-adv-x="546" 
d="M344 20h-87q-93 0 -155 61.5t-62 150.5q0 90 62 151.5t155 61.5h87q3 0 7.5 -0.5t11.5 -7t7 -18.5v-48q0 -12 -6.5 -18.5t-13.5 -6.5l-6 -1h-87q-46 0 -77 -31.5t-31 -81.5t31 -81t77 -31h87q3 0 7.5 -0.5t11.5 -7t7 -18.5v-48q0 -12 -6.5 -18.5t-13.5 -7.5h-6zM442 -31
h-11q-18 0 -31 13t-13 32v459q0 19 13 32t31 13h11q19 0 31.5 -14t12.5 -31v-459q0 -17 -12.5 -31t-31.5 -14z" />
    </font>
</defs>
</svg>
